<svg xmlns="http://www.w3.org/2000/svg" width="12" height="14"><path d="M2.273.113h4.633c.559 0 1.067.2 1.43.524l3.45 3.058c.366.325.593.774.597 1.27v7.691c0 .989-.91 1.79-2.028 1.79H2.273c-1.117 0-2.023-.801-2.023-1.79V1.906C.25.918 1.156.113 2.273.113zm5.051 5.375c0-.496-.449-.898-1.008-.898-.558 0-1.011.402-1.011.898v1.793h-2.02c-.558 0-1.012.399-1.012.895s.454.894 1.012.894h2.02v1.793c0 .496.453.899 1.011.899.559 0 1.008-.403 1.008-.899V9.07h2.02c.562 0 1.011-.398 1.011-.894s-.449-.895-1.011-.895h-2.02zm0 0" fill="rgb(0%,0%,0%)"/></svg>