<svg xmlns="http://www.w3.org/2000/svg" width="15" height="15"><path d="M3 5.879c0-.531.43-.961.96-.961h.958v-.957a.96.96 0 1 1 1.922 0v.957h.96a.96.96 0 1 1 0 1.922h-.96v.96a.96.96 0 1 1-1.922 0v-.96h-.957A.96.96 0 0 1 3 5.879zm0 0" fill="rgb(0%,0%,0%)"/><path d="M.121 5.879A5.758 5.758 0 0 1 5.88.12a5.759 5.759 0 0 1 4.684 9.113l.011-.015 4.625 4.62a.962.962 0 0 1-1.36 1.36l-4.62-4.625c-.973.7-2.14 1.07-3.34 1.067A5.758 5.758 0 0 1 .12 5.883zM5.88 2.043a3.838 3.838 0 1 0 .003 7.675 3.838 3.838 0 0 0-.003-7.675zm0 0" fill="rgb(0%,0%,0%)"/></svg>