<svg xmlns="http://www.w3.org/2000/svg" width="14" height="12"><path d="M7.008.48c.289.13.492.426.492.774V11.27a.833.833 0 0 1-.492.77.775.775 0 0 1-.875-.18L3.168 8.765H1.102C.66 8.766.3 8.39.3 7.93V4.59c0-.457.36-.832.8-.832h2.067L6.133.664a.775.775 0 0 1 .879-.18zm4.219-.12a.774.774 0 0 1 1.129 0c1.503 1.558 2.347 3.68 2.343 5.89v.02a8.5 8.5 0 0 1-2.344 5.894.779.779 0 0 1-1.125-.012.861.861 0 0 1-.003-1.172 6.798 6.798 0 0 0 1.875-4.71v-.012a6.789 6.789 0 0 0-1.875-4.719.849.849 0 0 1-.235-.594c0-.23.09-.437.235-.59zM8.96 2.718a.794.794 0 0 1 .566-.242c.223 0 .422.093.57.242A5.09 5.09 0 0 1 11.5 6.254v.012a5.1 5.1 0 0 1-1.402 3.539.787.787 0 0 1-1.13-.008.866.866 0 0 1-.007-1.176 3.4 3.4 0 0 0 .941-2.355v-.008c0-.887-.34-1.735-.941-2.36a.85.85 0 0 1-.23-.59c0-.23.085-.44.23-.59zm0 0" fill="rgb(0%,0%,0%)"/></svg>