<svg xmlns="http://www.w3.org/2000/svg" width="15" height="15"><path d="M3 .121c.527 0 .96.43.96.961v.961h.958a.96.96 0 1 1 0 1.918h-.957v.957a.96.96 0 0 1-1.918 0v-.957h-.961a.96.96 0 0 1 0-1.918h.961v-.961c0-.531.43-.96.957-.96zM3 9.72c.527 0 .96.43.96.96v.962h.958a.96.96 0 1 1 0 1.921h-.957v.958a.96.96 0 0 1-1.918 0v-.957h-.961a.96.96 0 1 1 0-1.922h.961v-.961c0-.532.43-.961.957-.961zM9.719.12c.445 0 .816.297.93.707v.004l1.132 4.277L15 6.97a.95.95 0 0 1 .48.828c0 .34-.18.66-.476.832H15l-3.219 1.86-1.133 4.277a.966.966 0 0 1-.93.714.966.966 0 0 1-.925-.707v-.007L7.66 10.488l-3.219-1.86a.95.95 0 0 1-.48-.827c0-.34.18-.66.477-.832h.003l3.22-1.86L8.792.832a.959.959 0 0 1 .926-.71zm0 0" fill="rgb(0%,0%,0%)"/></svg>