<svg xmlns="http://www.w3.org/2000/svg" width="15" height="15"><path d="M6.297 5.324c.148-.101.332-.191.543-.258v1.63a2.253 2.253 0 0 1-.555-.262l.012.003c-.348-.23-.418-.449-.418-.554 0-.113.07-.328.418-.559zm2.465 5.211V8.902c.21.07.394.16.543.258.351.235.414.45.414.559 0 .11-.067.328-.414.558a2.429 2.429 0 0 1-.528.254zm0 0" fill="rgb(0%,0%,0%)"/><path d="M7.8 15.48A7.679 7.679 0 0 1 .122 7.8 7.679 7.679 0 0 1 7.801.122a7.679 7.679 0 0 1 7.68 7.68 7.679 7.679 0 0 1-7.68 7.68zM8.763 3a.96.96 0 0 0-.961-.957A.96.96 0 0 0 6.84 3v.09a4.313 4.313 0 0 0-1.625.644l.015-.011c-.69.46-1.27 1.207-1.27 2.156 0 .95.58 1.695 1.27 2.156.461.309 1.012.527 1.61.637v1.863c-.375-.12-.652-.305-.809-.484a.959.959 0 0 0-.918-.336.959.959 0 0 0-.531 1.594c.54.625 1.356 1.035 2.258 1.203v.09a.96.96 0 1 0 1.922 0v-.09a4.215 4.215 0 0 0 1.62-.649l-.015.016c.695-.461 1.274-1.207 1.274-2.16 0-.95-.579-1.692-1.274-2.153a4.2 4.2 0 0 0-1.582-.632l-.023-.004V5.066c.375.118.652.301.808.485a.968.968 0 0 0 1.652-.305.971.971 0 0 0-.202-.957c-.54-.621-1.356-1.031-2.258-1.2zm0 0" fill="rgb(0%,0%,0%)"/></svg>