<svg xmlns="http://www.w3.org/2000/svg" width="12" height="14"><path d="M2.273.113h4.633c.559 0 1.067.2 1.43.524l3.45 3.058c.366.325.593.774.597 1.27v7.691c0 .989-.91 1.79-2.028 1.79H2.273c-1.117 0-2.023-.801-2.023-1.79V1.906C.25.918 1.156.113 2.273.113zm5.051 5.375c0-.496-.449-.898-1.008-.898-.558 0-1.011.402-1.011.898v3.215l-1.309-1.16a1.101 1.101 0 0 0-.98-.242c-.352.082-.63.324-.72.636-.093.313.013.645.274.872l3.032 2.687c.18.164.433.266.714.266.278 0 .532-.102.711-.266l3.035-2.687a.824.824 0 0 0-.015-1.258 1.103 1.103 0 0 0-1.414-.008L7.324 8.699zm0 0" fill="rgb(0%,0%,0%)"/></svg>