<svg xmlns="http://www.w3.org/2000/svg" width="14" height="13"><path d="M5.488 6.145c1.485 0 2.688-1.27 2.688-2.836 0-1.567-1.203-2.836-2.688-2.836-1.484 0-2.687 1.27-2.687 2.836 0 1.566 1.203 2.836 2.687 2.836zm0 1.89c2.969 0 5.375 2.54 5.375 5.672H.113c0-3.133 2.407-5.672 5.375-5.672zm7.168-3.777c0-.524-.398-.95-.894-.95s-.899.426-.899.95v.941H9.97c-.496 0-.899.426-.899.946 0 .523.403.945.899.945h.894v.945c0 .524.403.945.899.945s.894-.421.894-.945V7.09h.899c.492 0 .89-.422.89-.945 0-.52-.398-.946-.89-.946h-.899zm0 0" fill="rgb(0%,0%,0%)"/></svg>