<svg xmlns="http://www.w3.org/2000/svg" width="15" height="15"><path d="M5.5.121c-.55 0-1 .43-1 .961 0 .531.45.961 1 .961h2c.555 0 1-.43 1-.961 0-.531-.445-.96-1-.96zm0 0" fill="rgb(0%,0%,0%)"/><path d="M.5 3c0-1.059.895-1.918 2-1.918 0 1.586 1.344 2.879 3 2.879h2c1.656 0 3-1.293 3-2.879 1.105 0 2 .86 2 1.918v5.762H7.914L9.207 7.52a.934.934 0 0 0-.012-1.348 1.026 1.026 0 0 0-1.402-.012l-3 2.883a.939.939 0 0 0-.293.676c0 .265.113.504.293.68l3 2.878c.39.368 1.016.364 1.402-.007a.934.934 0 0 0 .012-1.348L7.914 10.68H12.5v2.883c0 1.058-.895 1.917-2 1.917h-8c-1.105 0-2-.859-2-1.918zm12 5.762h2c.55 0 1 .43 1 .957 0 .531-.45.96-1 .96h-2zm0 0" fill="rgb(0%,0%,0%)"/></svg>