<svg xmlns="http://www.w3.org/2000/svg" width="15" height="15"><path d="M6.77 5.418a1.155 1.155 0 0 0-1.528.012.945.945 0 0 0-.012 1.406l2.18 1.996c.195.18.469.293.77.293.3 0 .578-.113.77-.293l2.187-1.996a.942.942 0 0 0-.016-1.406 1.16 1.16 0 0 0-1.527-.012l-.32.293V1.129c0-.559-.489-1-1.094-1-.602 0-1.09.441-1.09 1V5.71zm0 0" fill="rgb(0%,0%,0%)"/><path d="M.547 3.121c0-1.101.976-1.992 2.18-1.992H3.82c.602 0 1.086.441 1.086.996 0 .555-.484.996-1.086.996H2.727v7h2.18L6 12.125h4.363l1.094-2.004h2.18v-7h-1.09c-.606 0-1.09-.441-1.09-.996 0-.555.484-.996 1.09-.996h1.09c1.203 0 2.18.89 2.18 1.992v10.004c0 1.102-.977 2.004-2.18 2.004H2.727c-1.204 0-2.18-.902-2.18-2.004zm0 0" fill="rgb(0%,0%,0%)"/></svg>