<svg xmlns="http://www.w3.org/2000/svg" width="15" height="15"><path d="M15.48 7.8a7.679 7.679 0 0 1-7.68 7.68A7.679 7.679 0 0 1 .122 7.8 7.679 7.679 0 0 1 7.801.122a7.679 7.679 0 0 1 7.68 7.68zM7.8 4.919a.966.966 0 0 0-.831.477l-.004.007a.955.955 0 0 1-1.68.012.97.97 0 0 1 .02-.976v.003a2.877 2.877 0 0 1 3.238-1.343 2.884 2.884 0 0 1 2.137 2.785c0 1.21-.762 2.293-1.903 2.707l-.015.008v.164a.96.96 0 0 1-.961.957.96.96 0 0 1-.961-.957V7.8c0-.531.43-.961.96-.961a.96.96 0 1 0 0-1.918zm0 7.684a.96.96 0 1 0 .002-1.92.96.96 0 0 0-.001 1.92zm0 0" fill="rgb(0%,0%,0%)"/></svg>