<svg xmlns="http://www.w3.org/2000/svg" width="15" height="15"><path d="M11.875 3.727a5.767 5.767 0 0 0-7.855-.27 5.761 5.761 0 0 0 6.93 9.172l-.024.012a.959.959 0 1 1 1.047 1.605l-.004.004A7.584 7.584 0 0 1 7.8 15.48 7.679 7.679 0 0 1 .12 7.8 7.681 7.681 0 0 1 7.801.122a7.679 7.679 0 0 1 7.68 7.68 2.873 2.873 0 0 1-1.598 2.578 2.875 2.875 0 0 1-3.016-.277l.004.003A3.84 3.84 0 0 1 3.961 7.8 3.834 3.834 0 0 1 7.8 3.96a3.842 3.842 0 0 1 3.84 3.84.96.96 0 1 0 1.921 0 5.753 5.753 0 0 0-1.687-4.073zM9.719 7.8a1.92 1.92 0 1 0-3.84-.005 1.92 1.92 0 0 0 3.84.005zm0 0" fill="rgb(0%,0%,0%)"/></svg>