<svg xmlns="http://www.w3.org/2000/svg" width="15" height="15"><path d="M7.8.121c.532 0 .962.43.962.961v.961A.96.96 0 0 1 7.8 3a.96.96 0 0 1-.961-.957v-.961c0-.531.43-.96.96-.96zm3.84 7.68a3.84 3.84 0 1 1-7.678 0 3.84 3.84 0 0 1 7.679 0zm-.445 4.75l.68.68a.958.958 0 0 0 1.348-.012.962.962 0 0 0 .007-1.348l-.68-.676a.962.962 0 0 0-1.347.008.962.962 0 0 0-.008 1.348zM13.23 2.37a.944.944 0 0 1 .282.676.947.947 0 0 1-.282.68l-.68.675a.96.96 0 1 1-1.617-.422.973.973 0 0 1 .262-.933l.68-.676a.948.948 0 0 1 1.355 0zm1.29 6.39a.96.96 0 1 0 0-1.921h-.957a.96.96 0 1 0 0 1.922zm-6.72 3.84c.532 0 .962.43.962.961v.958a.96.96 0 1 1-1.922 0v-.957c0-.532.43-.961.96-.961zM3.048 4.403a.95.95 0 0 0 1.355 0 .954.954 0 0 0 .004-1.355l-.68-.676a.958.958 0 0 0-1.355 1.356zm1.355 8.149l-.675.68a.958.958 0 0 1-1.348-.012.958.958 0 0 1-.008-1.348l.676-.676a.962.962 0 0 1 1.348.008.955.955 0 0 1 .007 1.348zM2.043 8.76A.96.96 0 0 0 3 7.802a.96.96 0 0 0-.957-.961h-.961a.96.96 0 1 0 0 1.922zm0 0" fill="rgb(0%,0%,0%)"/></svg>