<svg xmlns="http://www.w3.org/2000/svg" width="12" height="14"><path d="M5.305.113c-.559 0-1.008.403-1.008.895 0 .496.45.898 1.008.898h2.02c.562 0 1.01-.402 1.01-.898 0-.492-.448-.895-1.01-.895zm0 0" fill="rgb(0%,0%,0%)"/><path d="M.25 2.8c0-.991.906-1.792 2.023-1.792 0 1.484 1.356 2.687 3.032 2.687h2.02c1.675 0 3.03-1.203 3.03-2.687 1.118 0 2.028.8 2.028 1.793v9.855c0 .989-.91 1.79-2.028 1.79H2.273c-1.117 0-2.023-.801-2.023-1.79zm3.035 3.587c-.558 0-1.012.398-1.012.894 0 .492.454.895 1.012.895h.008c.559 0 1.012-.403 1.012-.895 0-.496-.453-.894-1.012-.894zm3.031 0c-.558 0-1.011.398-1.011.894 0 .492.453.895 1.011.895h3.028c.562 0 1.011-.403 1.011-.895 0-.496-.449-.894-1.011-.894zm-3.03 3.578c-.56 0-1.013.402-1.013.898s.454.899 1.012.899h.008c.559 0 1.012-.403 1.012-.899s-.453-.898-1.012-.898zm3.03 0c-.558 0-1.011.402-1.011.898s.453.899 1.011.899h3.028c.562 0 1.011-.403 1.011-.899s-.449-.898-1.011-.898zm0 0" fill="rgb(0%,0%,0%)"/></svg>