<svg xmlns="http://www.w3.org/2000/svg" width="14" height="14"><path d="M2.547.113h10.18c1.12 0 2.035.801 2.035 1.793v12.54l-3.567-1.79-3.558 1.79-3.563-1.79-3.566 1.79V1.905c0-.992.914-1.793 2.039-1.793zM7.34 3.438c.383-.356.383-.915-.012-1.258a1.13 1.13 0 0 0-1.433-.016L2.844 4.855a.848.848 0 0 0-.297.633c0 .246.113.469.297.633l3.05 2.691a1.13 1.13 0 0 0 1.434-.015c.395-.344.395-.902.012-1.258L6.023 6.387h1.614c1.687 0 3.054 1.203 3.054 2.683v.895c0 .496.454.898 1.02.898.559 0 1.016-.402 1.016-.898V9.07c0-2.472-2.278-4.48-5.09-4.48H6.023zm0 0" fill="rgb(0%,0%,0%)"/></svg>