<svg xmlns="http://www.w3.org/2000/svg" width="15" height="15"><path d="M7.8 15.48A7.679 7.679 0 0 1 .122 7.8 7.679 7.679 0 0 1 7.801.122a7.679 7.679 0 0 1 7.68 7.68 7.679 7.679 0 0 1-7.68 7.68zM5.743 3.465a.956.956 0 0 0-1.316-.324.964.964 0 0 0-.328 1.32v-.008l1.43 2.387h-.61a.96.96 0 0 0-.957.96c0 .532.43.962.957.962H6.68l.16.265v.692H4.918a.96.96 0 0 0-.957.96c0 .532.43.962.957.962H6.84v.96a.96.96 0 1 0 1.922 0v-.96h1.918a.96.96 0 1 0 0-1.922H8.762v-.692l.156-.265h1.762a.96.96 0 1 0 0-1.922h-.61l1.434-2.387a.962.962 0 0 0-1.645-.992l-.004.004L7.832 6.84h-.066zm0 0" fill="rgb(0%,0%,0%)"/></svg>