<svg xmlns="http://www.w3.org/2000/svg" width="14" height="14"><path d="M.508 13.555c0-.496.46-.899 1.02-.899h12.214c.567 0 1.02.403 1.02.899 0 .492-.453.89-1.02.89H1.527c-.558 0-1.02-.398-1.02-.89zm3.355-9.227a.833.833 0 0 1-.297-.633c0-.246.114-.472.297-.632L6.918.374c.18-.164.437-.262.719-.262.277 0 .535.098.715.262l3.062 2.688c.383.355.383.91-.016 1.257a1.115 1.115 0 0 1-1.43.008L8.657 3.172v6.797c0 .496-.457.894-1.02.894-.566 0-1.019-.398-1.019-.894V3.172L5.301 4.328a1.077 1.077 0 0 1-.723.262 1.07 1.07 0 0 1-.715-.262zm0 0" fill="rgb(0%,0%,0%)"/></svg>