<svg xmlns="http://www.w3.org/2000/svg" width="15" height="15"><path d="M15.406.715a.98.98 0 0 0-.203-.313h-.008a.948.948 0 0 0-.675-.28h-3.84a.96.96 0 1 0 0 1.921h1.523l-3.16 3.16a.962.962 0 0 0 .008 1.348.963.963 0 0 0 1.351.008l3.16-3.16v1.523c0 .527.43.96.958.96.53 0 .96-.433.96-.96v-3.84a.92.92 0 0 0-.078-.375zm0 0" fill="rgb(0%,0%,0%)"/><path d="M.121 1.082c0-.531.43-.96.961-.96h2.066c.465 0 .864.335.942.796v.004l.715 4.258a.967.967 0 0 1-.516 1.015l-1.488.746C3.898 9.617 5.984 11.7 8.59 12.773l.07.028.742-1.485a.962.962 0 0 1 1.024-.52l-.008-.003 4.258.715a.964.964 0 0 1 .804.945v2.067a.96.96 0 0 1-.96.96h-1.918C5.707 15.48.122 9.895.122 3zm0 0" fill="rgb(0%,0%,0%)"/></svg>