<svg xmlns="http://www.w3.org/2000/svg" width="15" height="15"><path d="M12.602 5.879c1.199 0 2.27-.742 2.691-1.863a2.885 2.885 0 0 0-.79-3.18 2.89 2.89 0 0 0-3.257-.379 2.886 2.886 0 0 0-1.504 2.914v-.016L5 5.727a2.889 2.889 0 0 0-4.05.046 2.888 2.888 0 0 0 0 4.051A2.885 2.885 0 0 0 5 9.871l4.742 2.371a2.874 2.874 0 0 0 2.028 3.113 2.878 2.878 0 0 0 3.406-1.468 2.874 2.874 0 0 0-.871-3.61 2.879 2.879 0 0 0-3.707.25L5.859 8.152a2.982 2.982 0 0 0-.004-.722v.015l4.743-2.375c.539.524 1.254.813 2 .809zm0 0" fill="rgb(0%,0%,0%)"/></svg>