<svg xmlns="http://www.w3.org/2000/svg" width="14" height="12"><path d="M9.352.48a.83.83 0 0 1 .464.442c.094.207.11.45.04.668l.003-.008L6.66 12.059c-.144.457-.598.703-1.015.546-.418-.152-.641-.648-.5-1.105l-.004.008L8.34 1.035a.86.86 0 0 1 .406-.508A.765.765 0 0 1 9.36.48zM4.066 3.313a.905.905 0 0 1 .235.613c0 .242-.09.46-.235.617L2.234 6.547l1.832 2c.207.219.29.543.215.848a.844.844 0 0 1-.57.625.762.762 0 0 1-.777-.239L.535 7.161a.915.915 0 0 1-.234-.614c0-.242.09-.461.234-.617l2.399-2.617a.754.754 0 0 1 .566-.254c.223 0 .422.093.566.253zm6.868 0a.758.758 0 0 1 .566-.258c.223 0 .422.097.566.257l2.399 2.618a.907.907 0 0 1 .234.617c0 .238-.09.457-.234.613l-2.399 2.621a.762.762 0 0 1-.777.239.844.844 0 0 1-.57-.625.923.923 0 0 1 .215-.848l1.836-2-1.836-2.004a.9.9 0 0 1-.235-.617c0-.239.09-.457.235-.614zm0 0" fill="rgb(0%,0%,0%)"/></svg>