<svg xmlns="http://www.w3.org/2000/svg" width="15" height="15"><path d="M3.96 3.96H2.044A1.92 1.92 0 0 0 .121 5.88v3.43l-.152-.051a21.933 21.933 0 0 0 7.808 1.422h.047c2.75 0 5.383-.504 7.656-1.371v-3.43c0-1.059-.859-1.918-1.918-1.918h-1.921V3A2.88 2.88 0 0 0 8.76.121H6.84A2.88 2.88 0 0 0 3.96 3zM5.88 3a.96.96 0 0 1 .96-.957h1.923c.527 0 .957.43.957.957v.96h-3.84zm.96 4.8c0-.53.43-.96.962-.96h.008a.96.96 0 1 1 0 1.922H7.8A.96.96 0 0 1 6.84 7.8zM.122 11.345v2.219a1.92 1.92 0 0 0 1.922 1.917h11.52c1.058 0 1.917-.859 1.917-1.918v-2.218c-2.285.797-4.918 1.258-7.656 1.258h-.023c-2.684 0-5.27-.442-7.68-1.258zm0 0" fill="rgb(0%,0%,0%)"/></svg>