<svg xmlns="http://www.w3.org/2000/svg" width="15" height="15"><path d="M.547 1.637c0-.602.488-1.09 1.09-1.09h13.09c.601 0 1.09.488 1.09 1.09v2.18c0 .605-.489 1.093-1.09 1.093H1.637c-.602 0-1.09-.488-1.09-1.094zm0 6.543c0-.602.488-1.09 1.09-1.09H8.18c.605 0 1.093.488 1.093 1.09v6.547c0 .601-.488 1.09-1.093 1.09H1.637a1.09 1.09 0 0 1-1.09-1.09zm12-1.09c-.606 0-1.09.488-1.09 1.09v6.547c0 .601.484 1.09 1.09 1.09h2.18a1.09 1.09 0 0 0 1.09-1.09V8.18a1.09 1.09 0 0 0-1.09-1.09zm0 0" fill="rgb(0%,0%,0%)"/></svg>