<svg xmlns="http://www.w3.org/2000/svg" width="14" height="14"><path d="M1.527.113c.563 0 1.02.403 1.02.899V2.89c1.34-1.204 3.176-1.883 5.09-1.88 3.086 0 5.715 1.723 6.707 4.137l.015.04a.809.809 0 0 1-.18.89c-.234.25-.6.367-.96.309-.364-.063-.656-.29-.778-.594l-.004-.004C11.72 4.035 9.84 2.797 7.641 2.797c-1.602 0-3.11.66-4.07 1.785l-.005.012h3.051c.559 0 1.02.398 1.02.894s-.461.899-1.02.899h-5.09c-.558 0-1.02-.403-1.02-.899V1.012c0-.496.462-.899 1.02-.899zm.008 8.117c.528-.164 1.106.075 1.293.536l.004.011c.723 1.75 2.598 2.985 4.805 2.985 1.593 0 3.101-.66 4.062-1.782l.016-.015H8.656c-.562 0-1.015-.399-1.015-.895 0-.492.453-.894 1.015-.894h5.086c.57 0 1.024.402 1.024.894v4.485c0 .492-.454.89-1.024.89-.558 0-1.015-.398-1.015-.89v-1.883c-1.336 1.203-3.172 1.883-5.086 1.883-3.086 0-5.711-1.73-6.707-4.14l-.02-.044c-.187-.465.086-.976.617-1.14h.008zm0 0" fill="rgb(0%,0%,0%)"/></svg>