<svg xmlns="http://www.w3.org/2000/svg" width="14" height="12"><path d="M6.7 3.055c0 1.445-1.075 2.617-2.4 2.617-1.323 0-2.398-1.172-2.398-2.617 0-1.45 1.075-2.621 2.399-2.621s2.398 1.171 2.398 2.62zm6.398 0c0 1.445-1.075 2.617-2.399 2.617S8.301 4.5 8.301 3.055c0-1.45 1.074-2.621 2.398-2.621s2.399 1.171 2.399 2.62zm-3.254 9.597a6.4 6.4 0 0 0 .054-.87v-.009a6.4 6.4 0 0 0-1.207-3.78l.008.01a3.717 3.717 0 0 1 2-.585c2.211 0 4.004 1.953 4.004 4.363v.875h-4.86zM4.3 7.418c2.207 0 4 1.953 4 4.363v.871h-8v-.87c0-2.41 1.789-4.364 4-4.364zm0 0" fill="rgb(0%,0%,0%)"/></svg>