<?xml version="1.0" encoding="UTF-8" standalone="yes"?>
<svg xmlns="http://www.w3.org/2000/svg" xmlns:xlink="http://www.w3.org/1999/xlink" width="15px" height="15px" viewBox="0 0 15 15" version="1.1">
  <g id="surface1">
    <path style=" stroke:none;fill-rule:nonzero;fill:rgb(0%,0%,0%);fill-opacity:1;" d="M 10.285156 2.605469 C 10.765625 2.105469 11.476562 1.90625 12.148438 2.082031 C 12.820312 2.257812 13.339844 2.785156 13.519531 3.449219 C 13.695312 4.121094 13.496094 4.832031 12.996094 5.316406 L 12.996094 5.320312 L 10.117188 8.195312 C 9.757812 8.558594 9.269531 8.761719 8.761719 8.761719 C 8.253906 8.761719 7.761719 8.558594 7.402344 8.195312 C 7.027344 7.832031 6.425781 7.835938 6.054688 8.207031 C 5.683594 8.578125 5.679688 9.179688 6.042969 9.554688 C 6.765625 10.277344 7.746094 10.679688 8.761719 10.679688 C 9.777344 10.679688 10.753906 10.277344 11.472656 9.554688 L 14.355469 6.675781 C 15.808594 5.167969 15.789062 2.773438 14.308594 1.296875 C 12.824219 -0.183594 10.433594 -0.207031 8.925781 1.246094 L 7.488281 2.683594 C 7.238281 2.925781 7.136719 3.285156 7.226562 3.617188 C 7.316406 3.953125 7.574219 4.214844 7.910156 4.304688 C 8.246094 4.390625 8.605469 4.289062 8.84375 4.042969 Z M 5.480469 7.402344 C 5.84375 7.042969 6.332031 6.839844 6.839844 6.839844 C 7.351562 6.839844 7.839844 7.042969 8.195312 7.402344 C 8.4375 7.648438 8.796875 7.75 9.128906 7.664062 C 9.464844 7.574219 9.726562 7.316406 9.816406 6.980469 C 9.902344 6.644531 9.804688 6.285156 9.554688 6.042969 C 8.835938 5.324219 7.859375 4.917969 6.839844 4.921875 C 5.820312 4.917969 4.84375 5.324219 4.125 6.042969 L 1.242188 8.925781 C 0.246094 9.890625 -0.15625 11.316406 0.195312 12.660156 C 0.546875 14.003906 1.59375 15.050781 2.941406 15.402344 C 4.28125 15.753906 5.710938 15.355469 6.671875 14.355469 L 6.675781 14.355469 L 8.113281 12.914062 C 8.363281 12.671875 8.464844 12.316406 8.375 11.980469 C 8.289062 11.648438 8.023438 11.386719 7.691406 11.300781 C 7.355469 11.210938 7 11.308594 6.757812 11.554688 L 5.320312 12.996094 C 4.832031 13.492188 4.121094 13.691406 3.453125 13.515625 C 2.785156 13.339844 2.257812 12.820312 2.082031 12.148438 C 1.90625 11.476562 2.105469 10.765625 2.601562 10.285156 L 2.605469 10.285156 Z M 5.480469 7.402344 "/>
  </g>
</svg>