<svg xmlns="http://www.w3.org/2000/svg" width="15" height="15"><path d="M7.8 15.48A7.679 7.679 0 0 1 .122 7.8 7.679 7.679 0 0 1 7.801.122a7.679 7.679 0 0 1 7.68 7.68 7.679 7.679 0 0 1-7.68 7.68zm.962-13.437a2.88 2.88 0 0 0-2.883 2.875V6.84h-.961a.96.96 0 0 0-.957.96c0 .532.43.962.957.962h.96v.957a.96.96 0 0 1-.96.96.96.96 0 0 0-.957.962c0 .53.43.96.957.96h5.762a.96.96 0 1 0 0-1.921H7.637c.11-.309.164-.633.164-.961v-.957h.96A.96.96 0 0 0 9.72 7.8a.96.96 0 0 0-.957-.961H7.8V4.918a.96.96 0 0 1 1.918 0 .96.96 0 1 0 1.922 0 2.878 2.878 0 0 0-2.88-2.875zm0 0" fill="rgb(0%,0%,0%)"/></svg>