<svg xmlns="http://www.w3.org/2000/svg" width="15" height="15"><path d="M7.8.063a11.666 11.666 0 0 1-7.515 2.82H.281c-.11.61-.164 1.23-.16 1.847 0 4.825 3.207 8.926 7.68 10.446 4.472-1.52 7.68-5.621 7.68-10.446 0-.628-.06-1.246-.16-1.847-2.786-.031-5.466-1.035-7.532-2.828zm.962 11.128c0 .512-.43.926-.961.926-.531 0-.961-.414-.961-.926 0-.507.43-.921.96-.921.532 0 .962.414.962.921zm0-6.46c0-.508-.43-.922-.961-.922-.531 0-.961.414-.961.921V7.5c0 .512.43.926.96.926.532 0 .962-.414.962-.926zm0 0" fill="rgb(0%,0%,0%)"/></svg>