<svg xmlns="http://www.w3.org/2000/svg" width="15" height="15"><path d="M9.273.547a1.091 1.091 0 0 0 0 2.18h2.82L5.228 9.594a1.094 1.094 0 0 0-.293 1.058c.097.38.398.68.78.778.376.101.782-.012 1.056-.293l6.867-6.867v2.824a1.09 1.09 0 0 0 2.18 0V1.637a1.09 1.09 0 0 0-1.09-1.09zm0 0" fill="rgb(0%,0%,0%)"/><path d="M2.727 2.727c-1.204 0-2.18.976-2.18 2.183v8.727a2.18 2.18 0 0 0 2.18 2.18h8.73a2.18 2.18 0 0 0 2.18-2.18v-3.274a1.09 1.09 0 0 0-2.18 0v3.274h-8.73V4.91H6a1.091 1.091 0 0 0 0-2.183zm0 0" fill="rgb(0%,0%,0%)"/></svg>