<svg xmlns="http://www.w3.org/2000/svg" width="14" height="14"><path d="M5.598 1.906c-1.684 0-3.051 1.203-3.051 2.684v3.586c0 2.476 2.281 4.48 5.09 4.48 2.812 0 5.09-2.004 5.09-4.48V4.59c0-.496.457-.895 1.015-.895.567 0 1.02.399 1.02.895v3.586c0 3.465-3.188 6.27-7.125 6.27-3.934 0-7.13-2.805-7.13-6.27V4.59C.508 2.117 2.79.113 5.598.113c2.813 0 5.094 2.004 5.094 4.477v3.586c0 1.484-1.367 2.687-3.054 2.687-1.692 0-3.059-1.203-3.059-2.687V4.59c0-.496.461-.895 1.02-.895.566 0 1.02.399 1.02.895v3.586c0 .492.452.894 1.019.894.562 0 1.02-.402 1.02-.894V4.59c0-1.48-1.372-2.684-3.06-2.684zm0 0" fill="rgb(0%,0%,0%)"/></svg>