<svg xmlns="http://www.w3.org/2000/svg" width="12" height="14"><path d="M5.305.113c-.559 0-1.008.403-1.008.895 0 .496.45.898 1.008.898h2.02c.562 0 1.01-.402 1.01-.898 0-.492-.448-.895-1.01-.895zm0 0" fill="rgb(0%,0%,0%)"/><path d="M.25 2.8c0-.991.906-1.792 2.023-1.792 0 1.484 1.356 2.687 3.032 2.687h2.02c1.675 0 3.03-1.203 3.03-2.687 1.118 0 2.028.8 2.028 1.793v9.855c0 .989-.91 1.79-2.028 1.79H2.273c-1.117 0-2.023-.801-2.023-1.79zm9.813 5.114a.827.827 0 0 0-.012-1.258 1.109 1.109 0 0 0-1.418-.011L5.305 9.598l-1.309-1.16a1.098 1.098 0 0 0-1.414.011.827.827 0 0 0-.012 1.258l2.02 1.79c.183.163.437.265.715.265.28 0 .53-.102.715-.266zm0 0" fill="rgb(0%,0%,0%)"/></svg>