<svg xmlns="http://www.w3.org/2000/svg" width="14" height="14"><path d="M1.527 1.906c0-.992.914-1.793 2.04-1.793h8.144c1.125 0 2.031.801 2.031 1.793v10.75c.567 0 1.02.403 1.02.899 0 .492-.453.89-1.02.89h-3.05c-.563 0-1.02-.398-1.02-.89v-1.793c0-.496-.453-.899-1.016-.899H6.617c-.562 0-1.02.403-1.02.899v1.793c0 .492-.452.89-1.019.89h-3.05c-.56 0-1.02-.398-1.02-.89 0-.496.46-.899 1.02-.899zm3.051.89h2.04V4.59h-2.04zm2.04 3.59h-2.04v1.79h2.04zm2.038-3.59h2.035V4.59H8.656zm2.035 3.59H8.656v1.79h2.035zm0 0" fill="rgb(0%,0%,0%)"/></svg>