<svg xmlns="http://www.w3.org/2000/svg" width="15" height="15"><path d="M7.8 15.48a7.679 7.679 0 0 0 7.68-7.68A7.679 7.679 0 0 0 7.8.122a7.679 7.679 0 0 0-7.679 7.68 7.679 7.679 0 0 0 7.68 7.68zM4.919 6.84a.96.96 0 1 0 0-1.922.96.96 0 0 0-.957.96c0 .532.43.962.957.962zm6.723-.961a.96.96 0 1 1-1.92.001.96.96 0 0 1 1.92-.001zm-7.239 5.644a.962.962 0 0 0 1.364 0A2.87 2.87 0 0 1 7.8 10.68a2.87 2.87 0 0 1 2.035.843.963.963 0 0 0 1.351-.007.958.958 0 0 0 .008-1.348 4.772 4.772 0 0 0-3.394-1.406 4.785 4.785 0 0 0-3.399 1.406.95.95 0 0 0-.277.676.96.96 0 0 0 .277.68zm0 0" fill="rgb(0%,0%,0%)"/></svg>