<svg xmlns="http://www.w3.org/2000/svg" width="14" height="14"><path d="M2.918 9.672c0 .562.418 1.02.93 1.02.52 0 .933-.458.933-1.02V3.984l1.211 1.317a.877.877 0 0 0 1.309-.008 1.088 1.088 0 0 0 .008-1.434L4.508.81a.874.874 0 0 0-.66-.301.888.888 0 0 0-.657.3L.391 3.86a1.088 1.088 0 0 0 .011 1.434.88.88 0 0 0 1.309.008l1.207-1.317zm9.332-4.07c0-.563-.418-1.02-.934-1.02-.515 0-.933.457-.933 1.02v5.687L9.176 9.973a.877.877 0 0 0-1.309.007 1.083 1.083 0 0 0-.012 1.43l2.801 3.055a.893.893 0 0 0 .66.297.9.9 0 0 0 .66-.297l2.801-3.055a1.083 1.083 0 0 0-.011-1.43.877.877 0 0 0-1.309-.007l-1.207 1.316zm0 0" fill="rgb(0%,0%,0%)"/></svg>