<svg xmlns="http://www.w3.org/2000/svg" width="15" height="15"><path d="M.547 1.637c0-.602.488-1.09 1.09-1.09h13.09a1.09 1.09 0 0 1 0 2.18H1.637a1.09 1.09 0 0 1-1.09-1.09zM.547 6c0-.602.488-1.09 1.09-1.09h13.09a1.09 1.09 0 0 1 0 2.18H1.637A1.09 1.09 0 0 1 .547 6zm0 4.363c0-.601.488-1.09 1.09-1.09h13.09c.601 0 1.09.489 1.09 1.09 0 .602-.489 1.094-1.09 1.094H1.637c-.602 0-1.09-.492-1.09-1.094zm0 4.364c0-.602.488-1.09 1.09-1.09h13.09a1.09 1.09 0 0 1 0 2.18H1.637a1.09 1.09 0 0 1-1.09-1.09zm0 0" fill="rgb(0%,0%,0%)"/></svg>