<svg xmlns="http://www.w3.org/2000/svg" width="14" height="13"><path d="M6.602.5a.91.91 0 0 1 .554.438c.121.214.153.472.098.714v-.004l-.395 1.66h2.637l.5-2.12c.121-.504.606-.81 1.086-.684.48.129.773.644.652 1.148v-.004l-.394 1.66h2.215c.492 0 .894.426.894.95 0 .52-.402.941-.894.941H10.89L9.996 8.98h1.766c.496 0 .894.422.894.946 0 .523-.398.949-.894.949H9.547l-.504 2.117c-.121.508-.605.813-1.086.684-.48-.125-.77-.64-.648-1.149v.008l.394-1.66H5.066l-.5 2.117c-.12.508-.609.813-1.09.684-.48-.125-.769-.64-.648-1.149l-.004.008.395-1.66H1.008c-.496 0-.895-.426-.895-.95 0-.523.399-.945.895-.945h2.66l.894-3.78H2.798c-.492 0-.89-.423-.89-.942 0-.524.398-.95.89-.95h2.215l.504-2.12a.93.93 0 0 1 .41-.583A.88.88 0 0 1 6.609.5zM6.41 5.2l-.894 3.78h2.632l.895-3.78zm0 0" fill="rgb(0%,0%,0%)"/></svg>