<svg xmlns="http://www.w3.org/2000/svg" width="15" height="15"><path d="M7.8 15.48a7.679 7.679 0 0 0 7.68-7.68A7.679 7.679 0 0 0 7.8.122a7.679 7.679 0 0 0-7.679 7.68 7.679 7.679 0 0 0 7.68 7.68zM2.36 5.906a5.816 5.816 0 0 1 1.824-2.59l.007-.007c.27.406.723.652 1.211.652A1.44 1.44 0 0 1 6.84 5.402v.477a1.92 1.92 0 1 0 3.84 0c0-.879.597-1.645 1.449-1.863l.012-.004a5.73 5.73 0 0 1 1.421 3.777v.012c0 .324-.03.648-.082.96h-.878a1.92 1.92 0 0 0-1.922 1.919v2.11a5.663 5.663 0 0 1-2.871.773H7.8V11.64a1.92 1.92 0 0 0-1.922-1.922A1.919 1.919 0 0 1 3.96 7.8a1.917 1.917 0 0 0-1.59-1.89zm0 0" fill="rgb(0%,0%,0%)"/></svg>