<svg xmlns="http://www.w3.org/2000/svg" width="15" height="15"><path d="M.547 1.637c0-.602.488-1.09 1.09-1.09H4.91c.602 0 1.09.488 1.09 1.09V4.91A1.09 1.09 0 0 1 4.91 6H1.637a1.09 1.09 0 0 1-1.09-1.09zm2.18 2.18v-1.09h1.09v1.09zm-2.18 7.64c0-.605.488-1.094 1.09-1.094H4.91c.602 0 1.09.489 1.09 1.094v3.27a1.09 1.09 0 0 1-1.09 1.09H1.637a1.09 1.09 0 0 1-1.09-1.09zm2.18 2.18v-1.09h1.09v1.09zm8.73-13.09c-.605 0-1.094.488-1.094 1.09V4.91c0 .602.489 1.09 1.094 1.09h3.27a1.09 1.09 0 0 0 1.09-1.09V1.637a1.09 1.09 0 0 0-1.09-1.09zm1.09 2.18v1.09h1.09v-1.09zm-3.274-1.09a1.091 1.091 0 0 0-2.183 0v1.09c0 .605.488 1.09 1.09 1.09.605 0 1.093-.485 1.093-1.09zM8.18 4.91c.605 0 1.093.488 1.093 1.09v1.09h2.184a1.091 1.091 0 1 1 0 2.184H8.18c-.602 0-1.09-.489-1.09-1.094V6c0-.602.488-1.09 1.09-1.09zm6.547 2.18a1.091 1.091 0 1 0 0 2.184 1.091 1.091 0 0 0 0-2.184zM7.09 11.457c0-.605.488-1.094 1.09-1.094h1.093a1.091 1.091 0 0 1 0 2.184v2.18a1.091 1.091 0 0 1-2.183 0zM4.91 9.273a1.091 1.091 0 0 0 0-2.183H1.637a1.091 1.091 0 1 0 0 2.184zm10.906 2.184a1.09 1.09 0 0 1-1.09 1.09h-2.18c-.605 0-1.089-.488-1.089-1.09 0-.605.484-1.094 1.09-1.094h2.18c.601 0 1.09.489 1.09 1.094zm-1.09 4.36a1.09 1.09 0 0 0 0-2.18h-3.269a1.091 1.091 0 0 0 0 2.18zm0 0" fill="rgb(0%,0%,0%)"/></svg>