<svg xmlns="http://www.w3.org/2000/svg" width="14" height="11"><path d="M1.906.23C.914.23.113 1.063.113 2.086v.926h14.332v-.926c0-1.023-.8-1.856-1.789-1.856zm12.54 4.633H.112v4.633c0 1.024.801 1.852 1.793 1.852h10.75c.989 0 1.79-.828 1.79-1.852zM1.905 8.57c0-.515.399-.93.895-.93h.898c.492 0 .89.415.89.93 0 .508-.398.926-.89.926h-.898c-.496 0-.895-.418-.895-.926zm4.477-.93h.898c.492 0 .895.415.895.93 0 .508-.403.926-.895.926h-.898c-.496 0-.895-.418-.895-.926 0-.515.399-.93.895-.93zm0 0" fill="rgb(0%,0%,0%)"/></svg>