<svg xmlns="http://www.w3.org/2000/svg" width="15" height="15"><path d="M8.762 1.082a.96.96 0 1 0-1.922 0v.961a.96.96 0 1 0 1.922 0zm4.468 2.645a.958.958 0 0 0-.011-1.348.958.958 0 0 0-1.348-.008l-.676.676a.962.962 0 0 0 .008 1.348.955.955 0 0 0 1.348.007zM15.48 7.8a.96.96 0 0 1-.96.96h-.957a.96.96 0 1 1 0-1.921h.957c.53 0 .96.43.96.96zM3.047 4.402a.946.946 0 0 0 .933.262.947.947 0 0 0 .684-.684.946.946 0 0 0-.262-.933l-.675-.676A.958.958 0 0 0 2.37 3.727zM3 7.801a.96.96 0 0 1-.957.96h-.961a.96.96 0 1 1 0-1.921h.961A.96.96 0 0 1 3 7.8zm2.879 5.761v-.96h3.84v.96a1.92 1.92 0 1 1-3.84 0zm3.84-1.921c.015-.325.199-.621.46-.825a3.845 3.845 0 0 0 1.25-4.273 3.838 3.838 0 0 0-3.624-2.582 3.838 3.838 0 0 0-2.39 6.848l.007.007c.258.204.445.5.457.825zm0 0" fill="rgb(0%,0%,0%)"/></svg>