<svg xmlns="http://www.w3.org/2000/svg" width="15" height="15"><path d="M7.8.121c.532 0 .962.43.962.961v1.27l3.793 1.515 1.535-.765a.96.96 0 1 1 .863 1.714h-.004l-1.183.594 1.668 5.203a.96.96 0 0 1-.274 1.008 3.81 3.81 0 0 1-2.555.98h-.011a3.832 3.832 0 0 1-2.559-.984l.004.004a.956.956 0 0 1-.27-1.016l-.003.008 1.648-5.133-2.652-1.062v9.14h1.918a.96.96 0 1 1 0 1.922H4.918a.96.96 0 0 1-.957-.96c0-.532.43-.961.957-.961H6.84V4.418L4.188 5.48l1.644 5.133a.944.944 0 0 1-.273 1.004v.004c-.7.633-1.61.98-2.555.977h-.008a3.805 3.805 0 0 1-2.558-.985l.003.004a.963.963 0 0 1-.273-1.015v.011l1.668-5.207-1.184-.59A.965.965 0 0 1 .25 3.54a.955.955 0 0 1 1.262-.437v-.004l1.531.77 3.797-1.52v-1.27c0-.531.43-.96.96-.96zM3 8.062l-.785 2.45c.238.105.508.168.785.168.281 0 .543-.063.785-.168zm9.602 0l-.79 2.45c.243.105.508.168.79.168.277 0 .543-.063.785-.168zm0 0" fill="rgb(0%,0%,0%)"/></svg>