<svg xmlns="http://www.w3.org/2000/svg" width="15" height="15"><path d="M4.918.121c.531 0 .96.43.96.961v.961h2.884a.959.959 0 0 1 0 1.918H7.395A17.961 17.961 0 0 1 5.69 8.645l.047-.098c.282.344.574.672.88.988a.959.959 0 0 1-.036 1.348.966.966 0 0 1-1.348-.012c-.183-.191-.359-.383-.53-.578a18.403 18.403 0 0 1-2.966 3.406l-.02.02a.958.958 0 0 1-1.34-.09.95.95 0 0 1 .063-1.34v-.004A16.395 16.395 0 0 0 3.406 8.77l.04-.07a17.596 17.596 0 0 1-1.384-2.286l-.046-.105a.966.966 0 0 1 .043-.97.964.964 0 0 1 1.675.106v.008c.223.453.473.89.735 1.317.402-.903.722-1.844.957-2.81H1.082a.96.96 0 0 1 0-1.918l2.875.001v-.961c0-.531.43-.96.961-.96zM10.68 5.88c.375 0 .699.215.855.527v.004l2.875 5.746a.084.084 0 0 1 .016.028l.004.004.949 1.902a.961.961 0 0 1-1.719.863v-.004l-.691-1.386H8.395l-.696 1.386a.957.957 0 0 1-1.672.11.946.946 0 0 1-.039-.973l-.004.004L9.82 6.41a.958.958 0 0 1 .86-.531zM9.352 11.64h2.652L10.68 8.988zm0 0" fill="rgb(0%,0%,0%)"/></svg>