<svg xmlns="http://www.w3.org/2000/svg" width="14" height="14"><path d="M5.598 2.797c-.559 0-1.02.402-1.02.898s.461.895 1.02.895h5.687L9.97 5.75a.824.824 0 0 0 .011 1.258c.395.347 1.032.347 1.434.008l3.05-2.688a.841.841 0 0 0 .298-.633.841.841 0 0 0-.297-.632L11.415.374a1.102 1.102 0 0 0-.993-.242.973.973 0 0 0-.73.64.84.84 0 0 0 .277.868l1.316 1.156zm4.074 8.965c.566 0 1.02-.403 1.02-.899s-.454-.898-1.02-.898H3.984l1.317-1.152c.261-.231.37-.563.277-.876-.094-.308-.367-.554-.726-.636a1.116 1.116 0 0 0-.989.238L.81 10.23a.838.838 0 0 0-.301.633c0 .246.113.469.3.633l3.055 2.691a1.12 1.12 0 0 0 1.426-.015.819.819 0 0 0 .012-1.258l-1.317-1.152zm0 0" fill="rgb(0%,0%,0%)"/></svg>