<svg xmlns="http://www.w3.org/2000/svg" width="14" height="14"><path d="M.508 13.555c0-.496.46-.899 1.02-.899h12.214c.567 0 1.02.403 1.02.899 0 .492-.453.89-1.02.89H1.527c-.558 0-1.02-.398-1.02-.89zm3.355-6.91c.184-.16.438-.258.715-.258.285 0 .54.097.723.258l1.316 1.164V1.012c0-.496.453-.899 1.02-.899.562 0 1.02.403 1.02.899v6.797l1.312-1.164c.258-.23.636-.325.988-.239.355.078.637.324.73.64a.833.833 0 0 1-.273.868l-3.059 2.688a1.078 1.078 0 0 1-.714.261 1.07 1.07 0 0 1-.723-.261L3.863 7.914a.853.853 0 0 1-.297-.633.85.85 0 0 1 .297-.636zm0 0" fill="rgb(0%,0%,0%)"/></svg>