<svg xmlns="http://www.w3.org/2000/svg" width="14" height="13"><path d="M1.008.473c-.496 0-.895.422-.895.945 0 .52.399.945.895.945h9.855c.496 0 .899-.425.899-.945 0-.523-.403-.945-.899-.945zm0 3.785c-.496 0-.895.422-.895.941 0 .524.399.946.895.946h4.48c.492 0 .895-.422.895-.946 0-.52-.403-.941-.895-.941zm0 3.777c-.496 0-.895.422-.895.945 0 .524.399.946.895.946H4.59c.496 0 .898-.422.898-.946 0-.523-.402-.945-.898-.945zm8.96 4.73c0 .52.403.942.895.942.496 0 .899-.422.899-.941V7.48l1.156 1.227a.862.862 0 0 0 1.258-.016.975.975 0 0 0 .008-1.324l-2.688-2.836a.868.868 0 0 0-1.266 0L7.543 7.367a.975.975 0 0 0-.242.918c.082.332.324.59.636.676a.882.882 0 0 0 .875-.254L9.97 7.48zm0 0" fill="rgb(0%,0%,0%)"/></svg>