<svg xmlns="http://www.w3.org/2000/svg" width="15" height="15"><path d="M7.8 15.48a7.679 7.679 0 0 0 7.68-7.68A7.679 7.679 0 0 0 7.8.122a7.679 7.679 0 0 0-7.679 7.68 7.679 7.679 0 0 0 7.68 7.68zM4.919 6.84a.96.96 0 1 0 0-1.922.96.96 0 0 0-.957.96c0 .532.43.962.957.962zm6.723-.961a.96.96 0 1 1-1.92.001.96.96 0 0 1 1.92-.001zm-.446 5.316a.962.962 0 0 0-1.36-1.36 2.86 2.86 0 0 1-2.034.845c-.766 0-1.5-.301-2.035-.844a.97.97 0 0 0-1.364 0 .97.97 0 0 0 0 1.36 4.804 4.804 0 0 0 6.793 0zm0 0" fill="rgb(0%,0%,0%)"/></svg>