<svg xmlns="http://www.w3.org/2000/svg" width="14" height="13"><path d="M1.906 2.363h1.418c.25 0 .473-.105.633-.277l1.008-1.063c.332-.351.789-.55 1.265-.55h2.102c.492 0 .941.21 1.266.55l1.004 1.063a.865.865 0 0 0 .632.277h1.422c.989 0 1.79.844 1.79 1.895v7.562c0 1.043-.801 1.887-1.79 1.887H1.906c-.992 0-1.793-.844-1.793-1.887V4.258c0-1.051.801-1.895 1.793-1.895zm5.375 8.512c1.485 0 2.688-1.27 2.688-2.84C9.969 6.473 8.766 5.2 7.28 5.2 5.797 5.2 4.59 6.473 4.59 8.035c0 1.57 1.207 2.84 2.691 2.84zm0 0" fill="rgb(0%,0%,0%)"/></svg>