<svg xmlns="http://www.w3.org/2000/svg" width="14" height="13"><path d="M1.008.473c-.496 0-.895.422-.895.945 0 .52.399.945.895.945h9.855c.496 0 .899-.425.899-.945 0-.523-.403-.945-.899-.945zm0 3.785c-.496 0-.895.422-.895.941 0 .524.399.946.895.946H7.28c.492 0 .895-.422.895-.946 0-.52-.403-.941-.895-.941zm0 3.777c-.496 0-.895.422-.895.945 0 .524.399.946.895.946H4.59c.496 0 .898-.422.898-.946 0-.523-.402-.945-.898-.945zM11.762 5.2c0-.52-.403-.941-.899-.941-.492 0-.894.422-.894.941v5.281L8.813 9.258a.865.865 0 0 0-1.258.008.985.985 0 0 0-.012 1.332l2.687 2.836a.883.883 0 0 0 .633.273.877.877 0 0 0 .633-.273l2.688-2.836a.985.985 0 0 0-.008-1.332.865.865 0 0 0-1.258-.008l-1.156 1.222zm0 0" fill="rgb(0%,0%,0%)"/></svg>