<svg xmlns="http://www.w3.org/2000/svg" width="15" height="15"><path d="M12.04 4.918l3.16-3.16A.962.962 0 0 0 15.187.41.958.958 0 0 0 13.84.402l-3.16 3.16V2.043a.96.96 0 0 0-1.918 0v3.84c0 .394.238.738.586.883l.004.004c.109.043.234.07.367.07h3.844a.96.96 0 0 0 .957-.961.96.96 0 0 0-.957-.961zm0 0" fill="rgb(0%,0%,0%)"/><path d="M.121 1.082c0-.531.43-.96.961-.96h2.066c.465 0 .864.335.942.796v.004l.715 4.258a.967.967 0 0 1-.516 1.015l-1.488.746C3.898 9.617 5.984 11.7 8.59 12.773l.07.028.742-1.485a.962.962 0 0 1 1.024-.52l-.008-.003 4.258.715a.964.964 0 0 1 .804.945v2.067a.96.96 0 0 1-.96.96h-1.918C5.707 15.48.122 9.895.122 3zm0 0" fill="rgb(0%,0%,0%)"/></svg>