<svg xmlns="http://www.w3.org/2000/svg" width="14" height="11"><path d="M7.465 7.598c.824 0 1.496-.711 1.496-1.598 0-.883-.672-1.602-1.496-1.602-.82 0-1.492.72-1.492 1.602 0 .887.672 1.598 1.492 1.598zm0 0" fill="rgb(0%,0%,0%)"/><path d="M.34 6c.953 3.246 3.785 5.602 7.125 5.602 3.344 0 6.176-2.356 7.129-5.602C13.64 2.754 10.809.398 7.464.398 4.126.398 1.294 2.754.34 6zm10.113 0c0 1.766-1.336 3.2-2.988 3.2C5.816 9.2 4.48 7.765 4.48 6c0-1.766 1.336-3.2 2.985-3.2 1.652 0 2.988 1.434 2.988 3.2zm0 0" fill="rgb(0%,0%,0%)"/></svg>