<svg xmlns="http://www.w3.org/2000/svg" width="14" height="12"><path d="M7.266.504c.3.133.511.441.511.805V11.78c0 .352-.199.672-.511.805a.792.792 0 0 1-.903-.188L3.29 9.164H1.141c-.457 0-.832-.39-.832-.875V4.801c0-.48.375-.871.832-.871h2.148L6.363.695A.786.786 0 0 1 7.27.508zm2.414 3.68a.803.803 0 0 1 1.172 0l1.074 1.128 1.07-1.128a.812.812 0 0 1 .809-.239c.289.082.515.32.59.625a.889.889 0 0 1-.223.844l-1.07 1.133 1.07 1.129a.902.902 0 0 1-.008 1.222.803.803 0 0 1-1.168.012L11.93 7.781l-1.078 1.13a.798.798 0 0 1-1.165-.013.906.906 0 0 1-.007-1.222l1.074-1.13L9.68 5.419a.895.895 0 0 1-.242-.617c0-.242.093-.461.242-.617zm0 0" fill="rgb(0%,0%,0%)"/></svg>