<svg xmlns="http://www.w3.org/2000/svg" width="14" height="13"><path d="M9.898 3.035c0 1.434-1.074 2.598-2.398 2.598-1.328 0-2.402-1.164-2.402-2.598C5.098 1.598 6.172.434 7.5.434c1.324 0 2.398 1.164 2.398 2.601zm4 1.73c0 .962-.714 1.735-1.597 1.735s-1.602-.773-1.602-1.734c0-.957.719-1.73 1.602-1.73.883 0 1.597.773 1.597 1.73zM10.7 10.833c0-1.914-1.43-3.465-3.199-3.465-1.766 0-3.2 1.551-3.2 3.465v2.602h6.4zM4.301 4.766c0 .96-.719 1.734-1.602 1.734-.883 0-1.597-.773-1.597-1.734 0-.957.714-1.73 1.597-1.73s1.602.773 1.602 1.73zm8 8.668v-2.606c0-.89-.211-1.765-.614-2.539l.012.027a2.263 2.263 0 0 1 2.07.461c.586.496.93 1.25.934 2.055v2.602zm-9-5.118a5.487 5.487 0 0 0-.602 2.512v2.606H.301v-2.602c0-.809.347-1.57.937-2.062a2.266 2.266 0 0 1 2.078-.454zm0 0" fill="rgb(0%,0%,0%)"/></svg>