<svg xmlns="http://www.w3.org/2000/svg" width="8" height="14"><path d="M4.668.508c.293 0 .562.113.754.3l3.2 3.055a.983.983 0 0 1-.013 1.426 1.107 1.107 0 0 1-1.5.012L4.668 2.965 2.223 5.3a1.102 1.102 0 0 1-1.5-.012.983.983 0 0 1-.012-1.426L3.914.81c.191-.188.457-.301.754-.301zM.711 9.968a1.11 1.11 0 0 1 1.512 0l2.445 2.337 2.441-2.336a1.11 1.11 0 0 1 1.5.011.992.992 0 0 1 .012 1.434l-3.2 3.05a1.093 1.093 0 0 1-1.507 0l-3.203-3.05a1.018 1.018 0 0 1-.309-.723c0-.28.118-.535.309-.722zm0 0" fill="rgb(0%,0%,0%)"/></svg>