<svg xmlns="http://www.w3.org/2000/svg" width="15" height="15"><path d="M9.23 1.242v.012a1.478 1.478 0 0 0 2.196.902c1.316-.804 2.82.703 2.023 2.02v-.008a1.467 1.467 0 0 0-.105 1.328c.18.438.554.766 1.011.875 1.5.36 1.5 2.492 0 2.86h-.007a1.478 1.478 0 0 0-1.004.87c-.18.434-.14.926.105 1.325.801 1.316-.703 2.82-2.023 2.023h.008a1.499 1.499 0 0 0-1.332-.105c-.438.18-.758.554-.872 1.011-.363 1.5-2.496 1.5-2.859 0v-.007a1.466 1.466 0 0 0-.875-1.004 1.45 1.45 0 0 0-1.32.105c-1.317.801-2.824-.703-2.02-2.023l-.008.008c.247-.403.286-.899.106-1.332a1.457 1.457 0 0 0-1.012-.872c-1.496-.363-1.496-2.496 0-2.859a1.477 1.477 0 0 0 .914-2.195c-.804-1.317.703-2.824 2.02-2.02l-.008-.004c.402.243.898.282 1.328.102.438-.176.762-.55.875-1.012.363-1.496 2.496-1.496 2.86 0zM7.8 10.68a2.88 2.88 0 0 0 2.88-2.88c0-1.59-1.29-2.882-2.88-2.882a2.886 2.886 0 0 0-2.882 2.883 2.882 2.882 0 0 0 2.883 2.879zm0 0" fill="rgb(0%,0%,0%)"/></svg>