<svg xmlns="http://www.w3.org/2000/svg" width="14" height="13"><path d="M2.8 1.418c0-.523-.402-.945-.894-.945-.496 0-.898.422-.898.945v6.871c-.551.336-.895.961-.895 1.633A1.896 1.896 0 0 0 1 11.559l.008.007v1.2c0 .52.402.941.898.941.492 0 .895-.422.895-.941v-1.2c.554-.336.894-.96.898-1.636 0-.672-.34-1.297-.89-1.637L2.8 8.289zm5.376 0c0-.523-.403-.945-.895-.945-.496 0-.898.422-.898.945v1.2c-.551.335-.895.96-.895 1.632 0 .672.336 1.297.887 1.637l.008.004v6.875c0 .52.402.941.898.941.492 0 .895-.422.895-.941V5.89a1.9 1.9 0 0 0 .894-1.633 1.91 1.91 0 0 0-.886-1.637l-.008-.004zm4.48-.945c.496 0 .899.422.899.945v6.871c.55.336.89.961.894 1.633 0 .676-.336 1.297-.89 1.637l-.004.007v1.2c0 .52-.403.941-.899.941s-.894-.422-.894-.941v-1.2a1.91 1.91 0 0 1-.899-1.636c0-.672.336-1.297.887-1.637l.012-.004V1.418c0-.523.398-.945.894-.945zm0 0" fill="rgb(0%,0%,0%)"/></svg>