<svg xmlns="http://www.w3.org/2000/svg" width="14" height="14"><path d="M6.617.113c-.398 0-.738.2-.906.489l-.004.007-.738 1.297H1.527c-.558 0-1.02.399-1.02.89 0 .497.462.9 1.02.9v8.96c0 .989.914 1.79 2.04 1.79h8.144c1.125 0 2.031-.801 2.031-1.79v-8.96c.57 0 1.024-.403 1.024-.9 0-.491-.454-.89-1.024-.89h-3.441L9.566.61C9.391.301 9.04.113 8.656.113zM4.578 5.488c0-.496.461-.898 1.02-.898.566 0 1.02.402 1.02.898v5.375c0 .496-.454.899-1.02.899-.559 0-1.02-.403-1.02-.899zm5.094-.898c.566 0 1.02.402 1.02.898v5.375c0 .496-.454.899-1.02.899-.559 0-1.016-.403-1.016-.899V5.488c0-.496.457-.898 1.016-.898zm0 0" fill="rgb(0%,0%,0%)"/></svg>