<svg xmlns="http://www.w3.org/2000/svg" width="14" height="13"><path d="M.512 1.367C.512.766.965.273 1.527.273h12.22c.562 0 1.015.493 1.015 1.094 0 .606-.453 1.094-1.016 1.094H1.527C.965 2.46.512 1.973.512 1.367zm0 5.477c0-.606.453-1.098 1.015-1.098h12.22c.562 0 1.015.492 1.015 1.098 0 .601-.453 1.093-1.016 1.093H1.527c-.562 0-1.015-.492-1.015-1.093zm6.105 5.468c0-.601.457-1.093 1.02-1.093h6.11c.562 0 1.015.492 1.015 1.094 0 .609-.453 1.097-1.016 1.097h-6.11c-.562 0-1.019-.488-1.019-1.098zm0 0" fill="rgb(0%,0%,0%)"/></svg>