<svg xmlns="http://www.w3.org/2000/svg" width="15" height="15"><path d="M7.8 15.48A7.679 7.679 0 0 1 .122 7.8 7.679 7.679 0 0 1 7.801.122a7.679 7.679 0 0 1 7.68 7.68 7.679 7.679 0 0 1-7.68 7.68zM4.919 3a.96.96 0 0 0 0 1.918h.96c.708 0 1.325.383 1.661.953l.004.008H4.918a.96.96 0 0 0-.957.96c0 .532.43.962.957.962h2.625a1.93 1.93 0 0 1-1.664.96h-.961a.958.958 0 0 0-.676 1.637l2.88 2.88a.958.958 0 0 0 1.355-1.356l-1.422-1.426a3.868 3.868 0 0 0 2.539-2.672l.004-.023h1.082a.96.96 0 1 0 0-1.922H9.598a3.68 3.68 0 0 0-.403-.977l.012.016h1.473a.96.96 0 1 0 0-1.922H4.918zm0 0" fill="rgb(0%,0%,0%)"/></svg>