<svg xmlns="http://www.w3.org/2000/svg" width="14" height="14"><path d="M3.7 9.902C1.714 9.902.112 8.47.112 6.7.113 4.93 1.715 3.5 3.7 3.5 3.7 1.734 5.301.3 7.281.3c1.977 0 3.586 1.434 3.586 3.2 1.973 0 3.582 1.43 3.582 3.2 0 1.769-1.61 3.202-3.582 3.202H8.176V5.898c0-.437-.399-.8-.895-.8s-.898.363-.898.8v4.004zm2.683 0h1.793v2.067l1.16-1.035a.98.98 0 0 1 1.258.011.736.736 0 0 1 .004 1.121l-2.684 2.399a.95.95 0 0 1-.633.238.95.95 0 0 1-.633-.238l-2.691-2.399c-.227-.203-.324-.5-.242-.773.082-.285.324-.5.64-.574a.971.971 0 0 1 .872.215l1.156 1.035zm0 0" fill="rgb(0%,0%,0%)"/></svg>