<svg xmlns="http://www.w3.org/2000/svg" width="15" height="15"><path d="M7.8 15.48A7.679 7.679 0 0 1 .122 7.8 7.679 7.679 0 0 1 7.801.122a7.679 7.679 0 0 1 7.68 7.68 7.679 7.679 0 0 1-7.68 7.68zM6.587 4.898c.457-.753.926-.937 1.215-.937.293 0 .761.184 1.21.937a.96.96 0 1 0 1.645-.992l.004.008C9.988 2.793 8.98 2.043 7.8 2.043c-1.183 0-2.187.75-2.859 1.871a6.352 6.352 0 0 0-.644 1.488H3.96a.96.96 0 1 0 0 1.918h.012c-.016.325-.016.657 0 .985V8.28H3.96a.96.96 0 0 0 0 1.918h.336c.156.531.371 1.031.644 1.492.672 1.114 1.676 1.871 2.86 1.871 1.18 0 2.187-.757 2.86-1.87a.96.96 0 0 0-.329-1.32.959.959 0 0 0-1.316.323l-.004.004c-.45.758-.918.942-1.211.942-.29 0-.758-.184-1.215-.942a4.141 4.141 0 0 1-.242-.472l-.008-.024H7.8a.96.96 0 1 0 0-1.922H5.895a6.902 6.902 0 0 1 .003-.984l-.003.023H7.8a.96.96 0 0 0 0-1.918H6.336c.074-.18.16-.347.25-.504zm0 0" fill="rgb(0%,0%,0%)"/></svg>