<svg xmlns="http://www.w3.org/2000/svg" width="18" height="16"><path d="M4.465.344h.105l.055.004.105.02.098.027.07.03.09.052.078.05.09.082L8.77 4.25c.164.164.265.39.265.645a.904.904 0 0 1-1.457.718l-.086-.074-2.07-2.086v8.723a.904.904 0 1 1-1.8.11v-.005l-.009-.105V3.449l-2.07 2.09a.903.903 0 0 1-1.195.074L.262 5.54A.933.933 0 0 1 0 4.895c0-.211.07-.407.191-.563l-.004.004.075-.086L3.879.61 3.98.52l.098-.063.102-.05.097-.032.106-.023zm9.09 16.383l-.055-.004-.129-.016-.101-.027-.098-.04-.09-.046-.094-.07-.074-.067-3.613-3.64a.906.906 0 0 1-.266-.645.904.904 0 0 1 1.461-.719h-.004l.086.074 2.07 2.086V4.891c0-.504.407-.91.907-.91a.9.9 0 0 1 .894.8l.004.004.004.106v8.722l2.074-2.086a.903.903 0 0 1 1.195-.074h-.003l.086.074a.913.913 0 0 1 .074 1.203l-.074.086-3.653 3.68-.062.047-.102.066-.101.051-.094.031-.137.028-.105.004zm0 0" fill="rgb(0%,0%,0%)"/></svg>