<svg xmlns="http://www.w3.org/2000/svg" width="18" height="18"><path d="M9 0c4.973 0 9 4.027 9 9s-4.027 9-9 9-9-4.027-9-9 4.027-9 9-9zm0 1.8A7.199 7.199 0 0 0 1.8 9c0 3.977 3.223 7.2 7.2 7.2 3.977 0 7.2-3.223 7.2-7.2 0-3.977-3.223-7.2-7.2-7.2zm2.7 2.7a.9.9 0 0 1 .894.79v.003l.008.105c0 .461-.348.84-.793.895h-.004l-.106.008H10.32c.16.277.285.578.367.898H11.7a.9.9 0 0 1 .11 1.793h-.004L11.699 9h-1.011A3.633 3.633 0 0 1 8.5 11.46l-.027.009-.172.058 1.336 1.336a.9.9 0 0 1-1.191 1.348h.003l-.086-.074-2.699-2.7c-.543-.542-.2-1.453.535-1.53l.102-.009h.902c.66 0 1.238-.355 1.55-.89L8.763 9H6.3a.9.9 0 1 1-.11-1.793h.004l.106-.008h2.46a1.81 1.81 0 0 0-1.421-.894h-.004L7.199 6.3h-.898a.9.9 0 0 1-.11-1.793h.004l.106-.008zm0 0" fill="rgb(0%,0%,0%)"/></svg>