<svg xmlns="http://www.w3.org/2000/svg" width="18" height="16"><path d="M9.938 2.16v12.746c0 1.621-1.946 2.434-3.083 1.285l-3.992-4.015H1.805A1.814 1.814 0 0 1 0 10.356V6.71c0-1.004.809-1.82 1.805-1.82h1.058L6.855.875C7.992-.273 9.937.539 9.937 2.16zm5.488-.062c3.527 3.554 3.527 9.316 0 12.87a.903.903 0 0 1-1.543-.644c0-.25.101-.476.262-.644 2.824-2.844 2.824-7.453 0-10.297a.919.919 0 0 1-.262-.645c0-.5.402-.91.902-.91a.89.89 0 0 1 .64.27zm-7.293.062L3.879 6.445a.901.901 0 0 1-.637.266H1.81v3.644h1.433c.246 0 .473.102.637.266l4.254 4.285zm4.734 2.512a5.466 5.466 0 0 1 1.59 3.863c0 1.508-.61 2.871-1.59 3.86a.894.894 0 0 1-.637.265.908.908 0 0 1-.64-1.55 3.638 3.638 0 0 0 1.058-2.575 3.64 3.64 0 0 0-1.058-2.578.908.908 0 0 1 .64-1.55c.25 0 .473.1.637.265zm0 0" fill="rgb(0%,0%,0%)"/></svg>