<svg xmlns="http://www.w3.org/2000/svg" width="18" height="18"><path d="M7.2 0h3.6a2.703 2.703 0 0 1 2.696 2.535v.008l.004.156v.903h1.8a2.7 2.7 0 0 1 2.696 2.53v.009L18 6.3v9a2.703 2.703 0 0 1-2.535 2.695h-.008l-.156.004H2.699a2.703 2.703 0 0 1-2.695-2.535v-.008L0 15.301v-9a2.7 2.7 0 0 1 2.535-2.696h.008l.156-.003H4.5v-.903A2.703 2.703 0 0 1 7.035.004h.008zM9 13.5c-2.477 0-4.902-.402-7.2-1.176v2.977c0 .46.345.84.79.89l.004.004.105.004h12.602c.46 0 .84-.344.89-.789l.004-.004.004-.105v-2.977c-2.14.746-4.61 1.176-7.18 1.176H9zm6.3-8.102H2.7c-.462 0-.84.348-.891.793l-.004.004-.004.106v4.113c2.133.813 4.597 1.285 7.176 1.285h.05c2.575 0 5.04-.472 7.317-1.332l-.145.047V6.301a.9.9 0 0 0-.789-.895h-.004zm-4.5-3.597H7.2c-.462 0-.84.344-.891.789l-.004.004-.004.105v.903h5.398v-.903c0-.46-.344-.84-.789-.89l-.004-.004zm0 0" fill="rgb(0%,0%,0%)"/></svg>