<svg xmlns="http://www.w3.org/2000/svg" width="17" height="14"><path d="M2.574.11h8.586c1.367 0 2.488 1.109 2.57 2.503v.008l.004.156v.891h.86c1.367 0 2.488 1.105 2.57 2.504v.008l.004.156v5.336c0 1.418-1.07 2.578-2.418 2.664h-.008l-.148.004H6.008c-1.367 0-2.488-1.106-2.57-2.504v-.008l-.004-.156v-.89h-.86c-1.367 0-2.488-1.106-2.57-2.5v-.009L0 8.113V2.777C0 1.36 1.07.2 2.418.117h.008zm12.02 5.34H6.008c-.438 0-.801.34-.852.78v.004l-.008.102v5.336c0 .453.332.832.754.883h.004l.102.008h8.586c.437 0 .8-.34.851-.782v-.004l.004-.105V6.336c0-.492-.383-.887-.855-.887zm-4.293.886c1.422 0 2.574 1.195 2.574 2.668s-1.152 2.668-2.574 2.668-2.574-1.195-2.574-2.668S8.879 6.336 10.3 6.336zm0 1.777c-.473 0-.86.399-.86.89 0 .493.387.892.86.892.472 0 .86-.399.86-.891s-.388-.89-.86-.89zm.86-6.222H2.573c-.437 0-.8.34-.851.78v.005l-.008.101v5.336c0 .457.332.832.754.883L2.473 9l.101.004h.86V6.336c0-1.418 1.066-2.578 2.418-2.664h.003l.153-.004h6.008v-.89a.88.88 0 0 0-.754-.883h-.004zm0 0" fill="rgb(0%,0%,0%)"/></svg>