<svg xmlns="http://www.w3.org/2000/svg" width="18" height="18"><path d="M12.602 0c.457 0 .835.344.89.79v.003l.008.105v.903h1.8a2.703 2.703 0 0 1 2.696 2.535v.004L18 4.5v10.8a2.703 2.703 0 0 1-2.535 2.696h-.008l-.156.004H2.699a2.703 2.703 0 0 1-2.695-2.535v-.008L0 15.301V4.5a2.703 2.703 0 0 1 2.535-2.695h.008l.156-.004H4.5V.898a.9.9 0 1 1 1.793-.11v.005l.008.105v.903h5.398V.898A.9.9 0 0 1 12.602 0zM15.3 3.602H13.5V4.5a.9.9 0 1 1-1.793.11v-.005l-.008-.105v-.898H6.301V4.5a.9.9 0 0 1-1.793.11v-.005L4.5 4.5v-.898H2.7c-.462 0-.84.343-.891.789l-.004.004L1.8 4.5v10.8c0 .462.344.84.789.891l.004.004.105.004h12.602c.46 0 .84-.344.89-.789l.004-.004.004-.105V4.5a.9.9 0 0 0-.789-.895h-.004zM4.5 7.199h9a.9.9 0 0 1 .11 1.793h-.005L13.5 9h-9a.9.9 0 1 1-.11-1.793h.005zm0 0" fill="rgb(0%,0%,0%)"/></svg>