<svg xmlns="http://www.w3.org/2000/svg" width="18" height="18"><path d="M9 0c4.973 0 9 4.027 9 9s-4.027 9-9 9-9-4.027-9-9 4.027-9 9-9zm0 1.8A7.199 7.199 0 0 0 1.8 9c0 3.977 3.223 7.2 7.2 7.2 3.977 0 7.2-3.223 7.2-7.2 0-3.977-3.223-7.2-7.2-7.2zm-.898 7.727l2.96-2.964A.898.898 0 0 1 11.7 6.3a.9.9 0 0 1 .711 1.453V7.75l-.074.086-3.598 3.601a.914.914 0 0 1-1.191.075h.004l-.086-.075-1.8-1.8A.894.894 0 0 1 5.397 9c0-.496.407-.902.903-.902.207 0 .402.074.554.191h-.003l.085.074zm0 0" fill="rgb(0%,0%,0%)"/></svg>