<svg xmlns="http://www.w3.org/2000/svg" width="18" height="18"><path d="M9.602.457C4.562.457.457 4.563.457 9.602s4.106 9.14 9.145 9.14 9.14-4.101 9.14-9.14c0-5.04-4.101-9.145-9.14-9.145zm0 1.828a7.3 7.3 0 0 1 7.312 7.317 7.297 7.297 0 0 1-7.312 7.312h-.016c-4.031 0-7.3-3.27-7.3-7.3v-.016.004a7.304 7.304 0 0 1 7.316-7.317zm-2.747 4.57c-.503 0-.91.41-.91.915a.91.91 0 0 0 .91.914h.012a.915.915 0 0 0 0-1.828zm5.489 0a.915.915 0 0 0 0 1.829h.008a.915.915 0 0 0 0-1.828zm-2.742 4.579H9.59a4.543 4.543 0 0 0-3.223 1.332.916.916 0 0 0 .645 1.562h.004a.895.895 0 0 0 .644-.27 2.736 2.736 0 0 1 1.942-.808c.757 0 1.441.313 1.937.809.164.168.395.27.649.27a.912.912 0 0 0 .914-.911v-.004a.92.92 0 0 0-.27-.648 4.543 4.543 0 0 0-3.223-1.332h-.011zm0 0" fill="rgb(0%,0%,0%)"/></svg>