<svg xmlns="http://www.w3.org/2000/svg" width="18" height="18"><path d="M3 0h12a3.004 3.004 0 0 1 2.996 2.824L18 3v12a3.004 3.004 0 0 1-2.824 2.996L15 18H3a3.005 3.005 0 0 1-2.996-2.816v-.008L0 15V3A3.004 3.004 0 0 1 2.824.004zm3.387 9.04l-.094.081L2 13.414V15c0 .512.387.938.883.992L3 16h12c.512 0 .934-.387.992-.883L16 15v-3.586l-1.293-1.293a1 1 0 0 0-1.324-.082h.004l-.094.082-.879.879 1.293 1.293c.36.36.387.93.082 1.32l-.082.094a.999.999 0 0 1-1.324.082h.004l-.094-.082-4.586-4.586a1 1 0 0 0-1.324-.082zM15 2H3c-.512 0-.934.387-.992.883L2 3v7.586l2.879-2.879A2.99 2.99 0 0 1 7 6.828c.758 0 1.453.281 1.98.746l-.003-.004.144.137L11 9.586l.879-.879A2.99 2.99 0 0 1 14 7.828c.758 0 1.453.281 1.98.746l-.003-.004.023.024V3a.995.995 0 0 0-.883-.992zm0 0" fill="rgb(0%,0%,0%)"/></svg>