<svg xmlns="http://www.w3.org/2000/svg" width="16" height="17"><path d="M2.742 0h10.973c1.457 0 2.648 1.059 2.738 2.395v.007l.004.149v13.597c0 .47-.41.852-.914.852a.928.928 0 0 1-.316-.055l.003.004-.093-.039-3.25-1.512L8.64 16.91a.955.955 0 0 1-.41.09.976.976 0 0 1-.305-.047h.008l-.114-.043-3.246-1.512-3.25 1.512a.926.926 0 0 1-.406.09c-.469 0-.856-.328-.91-.746v-.008L0 16.148V2.551C0 1.195 1.14.086 2.578.004h.004zm10.973 1.7H2.742c-.469 0-.851.323-.906.745l-.004.004-.004.102v12.222l2.336-1.082a.987.987 0 0 1 .71-.043h-.007l.113.043L8.23 15.2l3.247-1.508a.918.918 0 0 1 .41-.09c.101 0 .207.016.3.047h-.007l.117.043 2.332 1.082V2.551c0-.438-.352-.793-.805-.844h-.004zM3.922 6.2l2.746-2.552a.937.937 0 0 1 .648-.25c.504 0 .914.38.914.852a.818.818 0 0 1-.195.523l.004-.003-.078.082-1.184 1.097H8.23c2.454 0 4.457 1.801 4.567 4.059v.008l.004.183v.852c0 .472-.41.847-.914.847-.465 0-.852-.324-.907-.746v-.004l-.007-.097v-.852c0-1.355-1.141-2.465-2.575-2.543l-.007-.004-.16-.004H6.78l1.18 1.102c.168.156.27.367.27.602 0 .468-.41.847-.915.847a.947.947 0 0 1-.562-.18v.004l-.086-.074-2.746-2.547-.086-.093-.066-.098-.047-.094-.032-.09-.023-.101-.008-.078v-.094l.012-.102.031-.117.04-.094.05-.082.05-.074zm0 0" fill="rgb(0%,0%,0%)"/></svg>