<svg xmlns="http://www.w3.org/2000/svg" width="18" height="18"><path d="M8.98.512a.894.894 0 0 1 1.22 0A9.768 9.768 0 0 0 17.44 3.14l-.027.004c.016 0 .031-.004.047-.004.422 0 .777.296.883.703v.004c.238.922.379 1.98.379 3.07v.016c0 5.628-3.7 10.496-8.903 11.882a1.02 1.02 0 0 1-.46 0C4.2 17.398.452 12.617.452 6.934c0-1.051.129-2.086.383-3.086a.905.905 0 0 1 .926-.703c.16.007.347.011.539.011 2.57 0 4.918-1.004 6.687-2.652zm.61 1.933a11.55 11.55 0 0 1-7.133 2.598h-.008a10.46 10.46 0 0 0-.168 1.887v.004c0 4.722 3.059 8.714 7.239 9.968l.07.02c4.855-1.426 7.933-6.348 7.203-11.508l-.063-.371-.355-.008A11.571 11.571 0 0 1 9.566 2.43l.024.02zm-.914 7.871l3.008-3.105a.883.883 0 0 1 .644-.277c.508 0 .914.421.914.941a.968.968 0 0 1-.191.578h.004l-.078.086-3.653 3.777a.9.9 0 0 1-.648.278.906.906 0 0 1-.563-.2h.004l-.086-.078-1.828-1.886a.96.96 0 0 1-.266-.664c0-.528.41-.95.915-.95.21 0 .406.075.558.2h-.004l.09.078zm0 0" fill="rgb(0%,0%,0%)"/></svg>