<svg xmlns="http://www.w3.org/2000/svg" width="18" height="18"><path d="M14.402 0C16.387 0 18 1.664 18 3.715c0 2.055-1.613 3.719-3.602 3.719a3.548 3.548 0 0 1-2.71-1.27l-.004-.004L7.12 8.512c.05.234.078.504.078.777 0 .277-.027.547-.082.805l.004-.028 4.563 2.36a3.546 3.546 0 0 1 2.718-1.278c1.985 0 3.598 1.66 3.598 3.715 0 2.055-1.613 3.715-3.598 3.715-1.988 0-3.601-1.66-3.601-3.719 0-.273.027-.539.082-.796l-.004.023-4.563-2.352A3.552 3.552 0 0 1 3.805 13l-.008.004-.195.004C1.613 13.008 0 11.34 0 9.289c0-2.05 1.613-3.715 3.602-3.715 1.082 0 2.046.492 2.71 1.27l.004.004 4.563-2.352a3.744 3.744 0 0 1-.078-.777C10.8 1.664 12.414 0 14.398 0zm0 13.008h-.004c-.648 0-1.218.355-1.535.89l-.004.008-.07.13-.066.155c-.078.2-.125.43-.125.672 0 1.028.808 1.86 1.8 1.86.997 0 1.801-.832 1.801-1.86 0-1.023-.804-1.855-1.8-1.855zM3.598 7.434c-.993 0-1.797.832-1.797 1.855 0 1.027.804 1.86 1.8 1.86.649 0 1.22-.36 1.536-.891l.004-.004.07-.133.066-.156c.078-.2.125-.43.125-.672v-.004c0-.234-.043-.46-.125-.672l-.066-.16c-.3-.61-.91-1.023-1.613-1.023zm10.804-5.579h-.004c-.992 0-1.8.833-1.8 1.86 0 .242.047.476.129.691l-.004-.02.066.16.07.134c.32.539.891.894 1.543.894.993 0 1.797-.832 1.797-1.86 0-1.026-.804-1.859-1.797-1.859zm0 0" fill="rgb(0%,0%,0%)"/></svg>