<svg xmlns="http://www.w3.org/2000/svg" width="18" height="16"><path d="M9.035 7.621c.5 0 .902.41.902.914a.905.905 0 0 1-.792.902H9.14l-.106.008H.902A.91.91 0 0 1 0 8.535a.91.91 0 0 1 .793-.906h.004l.105-.008zm0-3.64c.5 0 .902.41.902.914a.905.905 0 0 1-.792.902H9.14l-.106.008H.902A.91.91 0 0 1 0 4.895a.91.91 0 0 1 .793-.907h.004l.105-.008zM12.648.34c.5 0 .903.41.903.91a.906.906 0 0 1-.793.906h-.004l-.106.008H.902A.91.91 0 0 1 0 1.25C0 .785.348.402.793.348h.004L.902.34zm.907 16.387l-.055-.004-.129-.016-.101-.027-.098-.04-.09-.046-.078-.055-.047-.039-.043-.043-3.613-3.64a.906.906 0 0 1-.266-.645.904.904 0 0 1 1.461-.719h-.004l.086.074 2.07 2.086V4.891a.904.904 0 1 1 1.8-.11l.001.004.008.106v8.722l2.07-2.086a.903.903 0 0 1 1.196-.074l.086.074a.91.91 0 0 1 .261.645c0 .21-.07.406-.187.558l-.074.086-3.543 3.559-.075.082-.097.086-.102.066-.101.047-.098.035-.133.028-.105.004zm0 0" fill="rgb(0%,0%,0%)"/></svg>