<svg xmlns="http://www.w3.org/2000/svg" width="18" height="16"><path d="M.266 6.07L5.687.61a.875.875 0 0 1 .637-.27c.5 0 .906.406.906.91a.94.94 0 0 1-.19.563v-.004l-.075.086L3.085 5.8h6.856c4.41 0 8 3.539 8.125 7.953l.004.242v1.82c0 .5-.402.91-.902.91a.91.91 0 0 1-.898-.8v-.004l-.004-.106v-1.82c0-3.45-2.72-6.254-6.11-6.371l-.219-.004H3.087l3.879 3.91c.164.164.265.39.265.645 0 .504-.406.91-.906.91a.892.892 0 0 1-.554-.191l-.082-.075L.266 7.355.18 7.254l-.067-.102-.05-.101-.032-.094-.023-.11L0 6.716l.004-.11.02-.105.03-.098.032-.074.047-.09.05-.078.036-.039zm0 0" fill="rgb(0%,0%,0%)"/></svg>