<svg xmlns="http://www.w3.org/2000/svg" width="18" height="18"><path d="M6.3 0A2.702 2.702 0 0 1 9 2.637v.004a2.697 2.697 0 0 1 3.648-.078h-.003l.128.117 2.547 2.547c.489.488.79 1.164.79 1.91a2.69 2.69 0 0 1-.672 1.781l.003-.004L15.36 9l.098.004a2.704 2.704 0 0 1 2.54 2.531v.008l.003.156v3.602a2.703 2.703 0 0 1-2.535 2.695h-.008l-.156.004H4.5A4.501 4.501 0 0 1 0 13.5V2.7C0 1.206 1.207 0 2.7 0zm1.86 16.2h7.14c.462 0 .84-.345.891-.79l.004-.004.004-.105v-3.602c0-.46-.344-.84-.789-.89l-.004-.004-.105-.004h-1.739zM6.3 1.8H2.7a.899.899 0 0 0-.9.9v10.8c0 1.492 1.208 2.7 2.7 2.7 1.492 0 2.7-1.208 2.7-2.7V2.7a.899.899 0 0 0-.9-.9zm7.747 4.7L11.5 3.953a.907.907 0 0 0-1.188-.074l-.085.074L9 5.18v7.636l5.047-5.043a.901.901 0 0 0 .074-1.191v.004zm0 0" fill="rgb(0%,0%,0%)"/></svg>