<svg xmlns="http://www.w3.org/2000/svg" width="14" height="17"><path d="M7.063.008L7.168 0c.457 0 .836.34.89.77v.007l.005.102V14.55l4.742-4.64a.904.904 0 0 1 .636-.259c.207 0 .399.067.551.184h-.004l.086.074a.86.86 0 0 1 .07 1.16l.004-.004-.074.082-6.273 6.141c-.028.031-.063.059-.098.086l-.101.063-.102.046-.094.032-.082.02-.101.01h-.106l-.066-.007-.09-.016-.098-.027-.074-.031-.086-.047-.082-.055-.086-.074-6.273-6.14A.877.877 0 0 1 0 10.526c0-.484.402-.879.895-.879.207 0 .398.07.55.188l.086.07 4.742 4.645V.875c0-.445.344-.816.79-.867V.004zm0 0" fill="rgb(0%,0%,0%)"/></svg>