<svg xmlns="http://www.w3.org/2000/svg" width="18" height="18"><path d="M14.398 18H3.602c-.95 0-1.723-.73-1.797-1.66v-.004l-.004-.137V9.371l-.266.266a.887.887 0 0 1-.637.265.902.902 0 0 1-.707-1.457l-.004.004.075-.086L8.363.262a.907.907 0 0 1 1.192-.07L9.55.186l.086.075 8.097 8.101a.899.899 0 0 1-1.188 1.344v.004l-.085-.074-.262-.266V16.2c0 .946-.73 1.723-1.66 1.793l-.008.004zm-4.5-5.398H8.102v3.597h1.796zM9 2.172L3.602 7.574V16.2H6.3v-3.597c0-.95.73-1.723 1.66-1.797h.004l.137-.004h1.796c.95 0 1.723.73 1.797 1.66v.004l.004.137v3.597h2.7V7.574zm0 0" fill="rgb(0%,0%,0%)"/></svg>