<svg xmlns="http://www.w3.org/2000/svg" width="18" height="18"><path d="M.277.496l.11-.121A1.363 1.363 0 0 1 2.145.273L2.14.27l.125.105L9.289 7.18 16.313.375A1.363 1.363 0 0 1 18.07.273L18.066.27l.125.105a1.26 1.26 0 0 1 .11 1.7l-.11.12L11.164 9l7.027 6.805a1.26 1.26 0 0 1 .11 1.699l-.11.121a1.36 1.36 0 0 1-1.753.102v.003l-.125-.105-7.024-6.809-7.023 6.809a1.36 1.36 0 0 1-1.754.102v.003l-.125-.105a1.258 1.258 0 0 1-.105-1.703l-.005.004.11-.121L7.41 9 .387 2.195a1.255 1.255 0 0 1-.105-1.7zm0 0" fill="rgb(0%,0%,0%)"/></svg>