<svg xmlns="http://www.w3.org/2000/svg" width="16" height="17"><path d="M0 12.8l.004-.124.012-.094.03-.098.04-.093.047-.082.054-.075.036-.039.043-.047L3.922 8.75a.953.953 0 0 1 .652-.25c.504 0 .91.379.91.852 0 .195-.07.375-.191.523l.004-.004-.078.078L3.12 11.9h8.766c.504 0 .91.382.91.851 0 .434-.344.793-.8.844l-.005.004-.105.004H3.12L5.22 15.55a.819.819 0 0 1 .265.597c0 .2-.07.38-.191.528l.004-.004-.078.078a.941.941 0 0 1-.645.25.939.939 0 0 1-.562-.18v.004l-.086-.074-3.66-3.398-.086-.094-.067-.098-.047-.09-.03-.093-.028-.125-.004-.047V12.8zM12.45.18l.081.07 3.696 3.438.05.058.067.094.047.094.03.09.028.101.004.074v.153l-.023.097-.028.094-.03.066-.048.082-.054.079-.082.082L12.53 8.25a.934.934 0 0 1-.644.25c-.508 0-.918-.379-.918-.852 0-.195.074-.375.195-.52l.074-.077 2.094-1.95H4.574c-.508 0-.918-.382-.918-.851 0-.434.352-.793.801-.844h.008l.11-.008h8.757L11.238 1.45a.812.812 0 0 1-.265-.597c0-.2.074-.38.191-.524l.074-.078A.962.962 0 0 1 12.45.18h-.004zm0 0" fill="rgb(0%,0%,0%)"/></svg>