<svg xmlns="http://www.w3.org/2000/svg" width="18" height="18"><path d="M10.336.742l.16.102 6.3 4.336a2.796 2.796 0 0 1 1.196 2.125l.004.008.004.09v8.394c0 1.48-1.121 2.691-2.535 2.777l-.004.004-.16.004H2.699c-1.433 0-2.61-1.156-2.695-2.617v-.008L0 15.797V7.5c0-.871.395-1.684 1.055-2.21l.148-.11 6.3-4.336A2.616 2.616 0 0 1 10.349.75zm.687 11.988l-.527.36a2.619 2.619 0 0 1-2.844.101l.012.004-.16-.105-.531-.36-5.07 3.493c.132.27.39.457.69.492l.106.008h12.602a.9.9 0 0 0 .797-.496v-.004zM1.801 9.168v4.89l3.55-2.445zm14.398 0l-3.55 2.445 3.55 2.446zm-7.597-6.84l-.102.063-6.3 4.336a.98.98 0 0 0-.274.293v.003L8.5 11.547a.87.87 0 0 0 .5.152.872.872 0 0 0 .402-.094h-.007l.105-.058 6.574-4.524a.952.952 0 0 0-.183-.226h-.004l-.086-.07L9.5 2.39a.873.873 0 0 0-.5-.157.872.872 0 0 0-.402.094zm0 0" fill="rgb(0%,0%,0%)"/></svg>