<svg xmlns="http://www.w3.org/2000/svg" width="18" height="18"><path d="M2.7 0h2.952c.739 0 1.375.445 1.653 1.082l.004.016.05.132 1.348 4.043a1.8 1.8 0 0 1-.766 2.105l-.007.005-.13.07-1.222.61a9.16 9.16 0 0 0 3.04 3.167l.038.02.274.164.613-1.219a1.8 1.8 0 0 1 2.047-.941l-.012-.004.145.043 4.043 1.348a1.8 1.8 0 0 1 1.222 1.554v.008l.008.145V15.3a2.703 2.703 0 0 1-2.535 2.695h-.008l-.156.004h-.903C6.543 18 .152 11.703.004 3.883L0 3.598v-.899A2.703 2.703 0 0 1 2.535.004h.004zm2.952 1.8H2.7c-.46 0-.84.345-.89.79l-.004.004-.004.105v.903c0 6.863 5.488 12.445 12.316 12.593l.281.004h.903c.46 0 .84-.344.89-.789l.004-.004.004-.105v-2.953L12.156 11l-1.015 2.031a.905.905 0 0 1-1.18.414l.004.004c-2.414-1.11-4.309-3-5.387-5.347l-.027-.067a.89.89 0 0 1 .32-1.12l.098-.056L7 5.844zM17.102 0l.07.004.11.016.1.027.098.039.09.047.086.058.082.075.086.097.063.102.031.055.027.074.024.066.027.137.004.105v4.5a.9.9 0 1 1-1.793.11v-.008l-.008-.102V3.074l-3.863 3.864a.884.884 0 0 1-.637.261.902.902 0 0 1-.55-.187l-.083-.074a.894.894 0 0 1-.074-1.192l-.004.004.075-.086 3.863-3.863h-2.324a.9.9 0 0 1-.895-.79v-.003l-.008-.106c0-.46.348-.84.793-.894h.004L12.602 0zm0 0" fill="rgb(0%,0%,0%)"/></svg>