<svg xmlns="http://www.w3.org/2000/svg" width="18" height="18"><path d="M9.602.457C4.562.457.457 4.563.457 9.602s4.106 9.14 9.145 9.14 9.14-4.101 9.14-9.14c0-5.04-4.101-9.145-9.14-9.145zm0 1.828a7.3 7.3 0 0 1 7.312 7.317 7.297 7.297 0 0 1-7.312 7.312h-.016c-4.031 0-7.3-3.27-7.3-7.3v-.016.004a7.304 7.304 0 0 1 7.316-7.317zm-3.66 6.402a.915.915 0 0 0 0 1.828h.011a.915.915 0 0 0 0-1.828zm3.66 0a.91.91 0 0 0-.915.915c0 .503.407.914.915.914h.007a.915.915 0 0 0 0-1.829zm3.656 0a.915.915 0 0 0 0 1.828h.008a.915.915 0 0 0 0-1.828zm0 0" fill="rgb(0%,0%,0%)"/></svg>