<svg xmlns="http://www.w3.org/2000/svg" width="9" height="18"><path d="M4.5 0l.117.008.094.015.094.032.078.03.086.048.093.062.075.07 3.597 3.598a.896.896 0 0 1-.633 1.535.904.904 0 0 1-.554-.187l-.086-.074-2.063-2.063v14.028c0 .46-.343.835-.789.89h-.004L4.5 18a.9.9 0 0 1-.895-.79v-.007l-.003-.101V3.074L1.535 5.137a.884.884 0 0 1-.637.261.922.922 0 0 1-.554-.187h.004l-.082-.074A.887.887 0 0 1 0 4.5c0-.207.07-.398.188-.555v.004l.074-.082L3.863.266A.514.514 0 0 1 3.961.18l.102-.067.101-.05.094-.032.11-.023L4.444 0zm0 0" fill="rgb(0%,0%,0%)"/></svg>