<svg xmlns="http://www.w3.org/2000/svg" width="17" height="14"><path d="M7.473.371a.903.903 0 0 1 .07 1.176h.004l-.074.082L2.93 6.336h13.379c.437 0 .8.344.851.781v.004l.008.106a.88.88 0 0 1-.754.882h-.004l-.101.008H2.934l4.539 4.707c.156.16.254.383.254.63a.887.887 0 0 1-.184.546l.004-.004-.074.086a.835.835 0 0 1-.606.262c-.199 0-.383-.07-.527-.192v.004l-.078-.074L.25 7.855a.95.95 0 0 1-.078-.097H.168l-.063-.102L.06 7.56.03 7.465l-.023-.106L0 7.281v-.105l.004-.055.02-.101.027-.098.027-.07.047-.09.055-.082.07-.082L6.258.37a.85.85 0 0 1 .61-.262c.237 0 .448.102.605.262zm0 0" fill="rgb(0%,0%,0%)"/></svg>