<svg xmlns="http://www.w3.org/2000/svg" width="18" height="16"><path d="M15.36.34h.003c1.496 0 2.707 1.222 2.707 2.73a2.725 2.725 0 0 1-1.789 2.57l-.015.005-.004 8.347a2.72 2.72 0 0 1-2.543 2.727h-.008l-.156.008h-9.04a2.72 2.72 0 0 1-2.702-2.563v-.008l-.004-.164V5.648A2.738 2.738 0 0 1 .004 3.074 2.728 2.728 0 0 1 2.543.344h.008L2.71.34zm-.903 5.46H3.613v8.196c0 .465.348.848.793.902h.008l.102.008h9.039c.46 0 .84-.351.894-.8v-.004l.008-.106zm-7.23 1.821h3.617a.91.91 0 0 1 .902.914.908.908 0 0 1-.793.902h-.004l-.105.008H7.227a.91.91 0 0 1-.903-.91.91.91 0 0 1 .793-.906h.004zm8.132-5.46H2.711c-.5 0-.902.41-.902.91 0 .464.343.85.793.906h.003l.106.003 12.754-.003a.909.909 0 0 0 .797-.907c0-.5-.403-.91-.903-.91zm0 0" fill="rgb(0%,0%,0%)"/></svg>