<svg xmlns="http://www.w3.org/2000/svg" width="16" height="17"><path d="M8.23 0c1.348 0 2.473.91 2.7 2.105l.004.012.02.149.218.097c2 .98 3.355 2.86 3.453 5.043v.012l.004.23v2.684c0 .195.07.383.195.535l.082.086 1.285 1.195c.547.512.2 1.372-.546 1.45l-.102.004h-3.656c0 1.878-1.64 3.398-3.657 3.398-1.957 0-3.554-1.43-3.652-3.219v-.011l-.004-.168H.914c-.777 0-1.184-.84-.715-1.38l.067-.074 1.285-1.195a.825.825 0 0 0 .27-.496v-.008l.007-.113V7.648c0-2.335 1.465-4.418 3.676-5.382C5.664.984 6.824 0 8.23 0zM6.398 13.602c0 .937.82 1.699 1.832 1.699.961 0 1.75-.692 1.82-1.567v-.007l.005-.125zm6.97-1.704a2.458 2.458 0 0 1-.56-1.367v-.008l-.011-.187V7.648c0-1.835-1.25-3.406-3.012-3.996l-.031-.011c-.324-.11-.559-.371-.606-.688V2.95l-.007-.11v-.288c0-.469-.407-.852-.91-.852-.47 0-.856.324-.91.746v.004l-.005.102v.289c0 .367-.253.68-.605.8h-.008C4.98 4.22 3.75 5.696 3.664 7.45v.007l-.008.191v2.688c0 .523-.168 1.012-.457 1.422l.004-.012-.117.152zm0 0" fill="rgb(0%,0%,0%)"/></svg>