<svg xmlns="http://www.w3.org/2000/svg" width="18" height="18"><path d="M13.406 7.695l4.5 9a.903.903 0 0 1-.805 1.313.909.909 0 0 1-.753-.41v-.004l-.055-.09-1.102-2.203h-5.187l-1.098 2.203a.907.907 0 0 1-1.117.441h.004l-.098-.039a.905.905 0 0 1-.441-1.117v.004l.039-.098 4.5-9a.905.905 0 0 1 1.484-.191l.07.094zM6.301 0c.46 0 .84.344.89.79l.004.003.004.105v.903h4.5a.9.9 0 0 1 .895.789v.004l.008.105c0 .461-.348.84-.793.895h-.004l-.106.008h-1.281a17.012 17.012 0 0 1-2.992 6.597l.031-.043c.14.16.285.317.434.469a.9.9 0 0 1-1.293 1.25l-.297-.313a17.22 17.22 0 0 1-4.903 3.715l-.097.043a.85.85 0 0 1-.403.094.899.899 0 0 1-.402-1.703H.5a15.475 15.475 0 0 0 4.629-3.54l.012-.015a16.91 16.91 0 0 1-1.957-3.394l-.043-.11a.902.902 0 0 1 .828-1.254c.37 0 .691.227.828.547l.004.004c.445 1.047.949 1.946 1.531 2.781l-.031-.05a15.07 15.07 0 0 0 2.25-4.977l.023-.101-7.676-.004a.9.9 0 1 1-.11-1.793h.005L.898 1.8h4.5V.898c0-.46.348-.84.793-.89l.004-.004zm6.3 10.113L10.907 13.5h3.387zm0 0" fill="rgb(0%,0%,0%)"/></svg>