<svg xmlns="http://www.w3.org/2000/svg" width="18" height="16"><path d="M13.484 3.984h.121l.067.004.094.02.097.027.075.031.085.047.094.07.074.067 3.618 3.64c.164.165.265.391.265.645 0 .504-.406.91-.906.91a.892.892 0 0 1-.555-.191l-.086-.074-2.07-2.086v8.722a.908.908 0 0 1-.793.903h-.004l-.105.008a.907.907 0 0 1-.899-.801v-.004l-.008-.106V7.094l-2.07 2.086a.903.903 0 0 1-1.543-.645c0-.21.07-.406.192-.558h-.004L9.3 7.89l3.613-3.641a.697.697 0 0 1 .102-.086l.101-.066.102-.051.094-.031.105-.024zm-7.16 3.637c.5 0 .903.41.903.914a.905.905 0 0 1-.793.902H6.43l-.106.008H.902A.91.91 0 0 1 0 8.535a.91.91 0 0 1 .793-.906h.004l.105-.008zm2.711-3.64c.5 0 .902.41.902.914a.905.905 0 0 1-.792.902H9.14l-.106.008H.902A.91.91 0 0 1 0 4.895a.91.91 0 0 1 .793-.907h.004l.105-.008zM12.648.34c.5 0 .903.41.903.91a.906.906 0 0 1-.793.906h-.004l-.106.008H.902A.91.91 0 0 1 0 1.25C0 .785.348.402.793.348h.004L.902.34zm0 0" fill="rgb(0%,0%,0%)"/></svg>