<svg xmlns="http://www.w3.org/2000/svg" width="18" height="14"><path d="M13.09 7.227a3.498 3.498 0 0 1-3.488 3.503 3.498 3.498 0 0 1-3.493-3.503 3.498 3.498 0 0 1 3.493-3.504 3.498 3.498 0 0 1 3.488 3.504zm-1.746 0c0-.012.004-.024.004-.036 0-.964-.786-1.75-1.746-1.75-.965 0-1.747.786-1.747 1.75v.036a1.744 1.744 0 1 0 3.488 0zm0 0" fill="rgb(0%,0%,0%)"/><path d="M.441 7.488a.8.8 0 0 1-.043-.261c0-.094.016-.184.043-.27v.008C1.703 3.02 5.324.219 9.601.219c4.274 0 7.895 2.8 9.141 6.676l.02.07c.05.168.05.351 0 .523-1.266 3.942-4.887 6.746-9.16 6.746-4.278 0-7.899-2.804-9.145-6.675zm1.836-.035c1.172 2.965 4.008 5.027 7.325 5.027 3.398 0 6.293-2.168 7.386-5.199l.02-.054C15.895 4.137 13 1.973 9.598 1.973c-3.313 0-6.149 2.058-7.305 4.972L2.277 7l-.086.227.086.226V7.45zm0 0" fill="rgb(0%,0%,0%)"/></svg>