<svg xmlns="http://www.w3.org/2000/svg" width="9" height="17"><path d="M4.395.008L4.5 0c.46 0 .84.336.89.77l.005.003.003.102v13.68l2.063-2.016a.922.922 0 0 1 1.195-.07h-.008l.086.07a.865.865 0 0 1 .079 1.164v-.008l-.079.086-3.597 3.508c-.032.031-.067.059-.098.086h-.004l-.098.063-.101.046-.094.032-.082.015-.105.016h-.11l-.062-.008-.094-.016-.094-.03-.078-.028-.086-.043-.082-.059-.082-.074-3.601-3.508A.867.867 0 0 1 0 13.156c0-.484.402-.875.898-.875.211 0 .403.07.555.188l.086.07 2.063 2.012V.875c0-.445.343-.82.789-.867l.007-.004zm0 0" fill="rgb(0%,0%,0%)"/></svg>