<!-- Generated by IcoMoon.io -->
<svg version="1.1" xmlns="http://www.w3.org/2000/svg"   preserveAspectRatio="xMidYMid meet" >
<title>outline-adjustments</title>
<path d="M5.333 0c0.912 0 1.663 0.686 1.766 1.57l0.012 0.207 0.002 16.304c2.088 0.756 3.552 2.721 3.552 5.029s-1.465 4.273-3.515 5.017l-0.037 0.012-0.002 2.082c0 0.001 0 0.001 0 0.002 0 0.982-0.796 1.778-1.778 1.778-0.909 0-1.659-0.683-1.765-1.563l-0.001-0.009-0.012-0.207v-2.081c-2.090-0.754-3.557-2.721-3.557-5.030s1.467-4.276 3.52-5.018l0.037-0.012v-16.303c0-0.982 0.796-1.778 1.778-1.778zM16 0c0.912 0 1.663 0.686 1.766 1.57l0.012 0.207 0.002 2.082c2.087 0.756 3.552 2.721 3.552 5.029s-1.465 4.273-3.515 5.017l-0.037 0.012-0.002 16.304c0 0.001 0 0.001 0 0.002 0 0.982-0.796 1.778-1.778 1.778-0.909 0-1.659-0.683-1.765-1.563l-0.001-0.009-0.012-0.207v-16.303c-2.090-0.754-3.557-2.721-3.557-5.030s1.467-4.276 3.52-5.018l0.037-0.012v-2.081c0-0.982 0.796-1.778 1.778-1.778zM26.667 0c0.912 0 1.663 0.686 1.766 1.57l0.012 0.207 0.002 16.304c2.087 0.756 3.552 2.721 3.552 5.029s-1.465 4.273-3.515 5.017l-0.037 0.012-0.002 2.082c0 0.001 0 0.001 0 0.002 0 0.982-0.796 1.778-1.778 1.778-0.909 0-1.659-0.683-1.765-1.563l-0.001-0.009-0.012-0.207v-2.081c-2.090-0.754-3.557-2.721-3.557-5.030s1.467-4.276 3.52-5.018l0.037-0.012v-16.303c0-0.982 0.796-1.778 1.778-1.778zM5.333 21.333l-0.207 0.012c-0.889 0.107-1.572 0.857-1.572 1.766s0.683 1.659 1.563 1.765l0.008 0.001 0.207 0.012 0.207-0.012c0.889-0.107 1.572-0.857 1.572-1.766s-0.683-1.659-1.563-1.765l-0.008-0.001-0.207-0.012zM26.667 21.333l-0.207 0.012c-0.889 0.107-1.572 0.857-1.572 1.766s0.683 1.659 1.563 1.765l0.009 0.001 0.207 0.012 0.207-0.012c0.889-0.107 1.572-0.857 1.572-1.766s-0.683-1.659-1.563-1.765l-0.009-0.001-0.207-0.012zM16 7.111l-0.207 0.012c-0.889 0.107-1.572 0.857-1.572 1.766s0.683 1.659 1.563 1.765l0.008 0.001 0.207 0.012 0.207-0.012c0.889-0.107 1.572-0.857 1.572-1.766s-0.683-1.659-1.563-1.765l-0.009-0.001-0.207-0.012z"></path>
</svg>
