<svg xmlns="http://www.w3.org/2000/svg" width="17" height="16"><path d="M9.066 0C4.36 0 .434 3.531.434 8c0 1.406.445 2.703 1.129 3.848L.488 14.8a.867.867 0 0 0-.054.308c0 .493.386.891.863.891a.937.937 0 0 0 .18-.02h-.012l3.875-.796A9.104 9.104 0 0 0 9.066 16c4.707 0 8.637-3.531 8.637-8 0-4.469-3.93-8-8.637-8zm0 1.777c3.88 0 6.91 2.836 6.91 6.223s-3.03 6.223-6.91 6.223c-1.199 0-2.324-.278-3.3-.758a.836.836 0 0 0-.555-.067h.012l-2.575.528.66-1.809a.89.89 0 0 0 .055-.312.896.896 0 0 0-.164-.524v.004l.004.004A5.723 5.723 0 0 1 2.16 8c0-3.387 3.031-6.223 6.906-6.223zM5.613 7.113A.874.874 0 0 0 4.75 8c0 .492.387.887.863.887h.008A.874.874 0 0 0 6.484 8a.874.874 0 0 0-.863-.887zm3.453 0A.874.874 0 0 0 8.203 8c0 .492.387.887.863.887h.008A.874.874 0 0 0 9.938 8a.874.874 0 0 0-.864-.887zm3.454 0a.874.874 0 0 0-.864.887c0 .492.387.887.864.887h.007A.874.874 0 0 0 13.391 8a.874.874 0 0 0-.864-.887zm0 0" fill="rgb(0%,0%,0%)"/></svg>