<svg xmlns="http://www.w3.org/2000/svg" width="17" height="14"><path d="M10.828.297l.078.074 6.012 6.227c.027.03.059.066.082.097l.063.102.042.098.032.093.023.106.008.082v.105l-.004.051-.02.102-.027.097-.027.07-.047.09-.063.094-.062.07-6.008 6.227a.85.85 0 0 1-.61.262c-.472 0-.859-.399-.859-.89 0-.208.07-.395.184-.548l.07-.082 4.543-4.707H.86c-.437 0-.8-.34-.851-.781v-.004L0 7.227a.88.88 0 0 1 .754-.883h.004l.101-.004h13.38L9.694 1.629A.899.899 0 0 1 9.441 1a.92.92 0 0 1 .184-.547l-.004.004.074-.086a.831.831 0 0 1 .606-.258c.164 0 .312.047.445.125h-.004l.086.063zm0 0" fill="rgb(0%,0%,0%)"/></svg>