<svg xmlns="http://www.w3.org/2000/svg" width="18" height="18"><path d="M3 0h8a3.004 3.004 0 0 1 2.996 2.824L14 3v1h1a3.004 3.004 0 0 1 2.996 2.824L18 7v8a3.004 3.004 0 0 1-2.824 2.996L15 18H7a3.005 3.005 0 0 1-2.996-2.816v-.008L4 15v-1H3a3.005 3.005 0 0 1-2.996-2.816v-.008L0 11V3A3.004 3.004 0 0 1 2.824.004zm12 6H7c-.512 0-.934.387-.992.883L6 7v8c0 .512.387.934.883.992L7 16h8c.512 0 .934-.387.992-.883L16 15V7c0-.512-.387-.934-.883-.992zm-4-4H3c-.512 0-.934.387-.992.883L2 3v8c0 .512.387.934.883.992L3 12h1V7a3.004 3.004 0 0 1 2.824-2.996L7 4h5V3a.998.998 0 0 0-.77-.973l-.113-.02zm0 0" fill="rgb(0%,0%,0%)"/></svg>