<svg xmlns="http://www.w3.org/2000/svg" width="17" height="14"><path d="M4.293.11h.004c.66 0 1.262.261 1.715.683h-.004A2.492 2.492 0 0 1 7.52.121l.007-.004.2-.008h1.718c.66 0 1.262.262 1.715.684.402-.379.93-.629 1.512-.672l.008-.004.195-.008h1.715c1.37 0 2.488 1.11 2.57 2.504l.004.008.004.156v8.895c0 1.418-1.07 2.578-2.418 2.664h-.008l-.152.004h-1.715-.004c-.66 0-1.262-.258-1.715-.68-.414.39-.957.64-1.554.676h-.008l-.153.004H7.723c-.66 0-1.262-.258-1.715-.68-.414.39-.961.64-1.559.676h-.008l-.148.004H2.574c-1.367 0-2.488-1.106-2.57-2.504v-.008L0 11.672V2.777C0 1.36 1.07.2 2.418.117h.008L2.574.11zm5.148 1.78H7.727c-.438 0-.801.34-.852.782v.004l-.008.101v8.895l.008.105c.047.407.355.73.746.778h.004l.102.008H9.44c.442 0 .801-.34.852-.782l.004-.004.004-.105v-8.89l-.004-.106a.876.876 0 0 0-.75-.778l-.004-.003zm-5.148 0H2.574c-.437 0-.8.34-.851.782v.004l-.008.101v8.895c0 .453.332.832.754.883h.004l.101.008h1.719c.437 0 .8-.34.852-.782v-.004l.003-.105v-8.89l-.003-.106a.869.869 0 0 0-.852-.785zm10.3 0h-1.718c-.438 0-.8.34-.852.782v.004l-.007.101v8.895l.007.105c.047.407.356.73.75.778h.004l.098.008h1.719c.437 0 .8-.34.851-.782v-.004l.008-.105v-8.89a.878.878 0 0 0-.758-.884h-.004zm0 0" fill="rgb(0%,0%,0%)"/></svg>