<svg xmlns="http://www.w3.org/2000/svg" width="17" height="9"><path d="M13.48.188l.082.078 3.454 3.597c.03.032.058.067.086.102l.062.101.043.098.031.098.024.105.008.078v.11l-.004.05-.02.106-.027.098-.032.074-.042.086-.063.093-.066.075-3.453 3.601a.838.838 0 0 1-.61.266c-.476 0-.863-.406-.863-.902a.91.91 0 0 1 .183-.555l-.003.004.074-.086 1.976-2.063H.863c-.441 0-.804-.347-.855-.793v-.004L0 4.5c0-.457.332-.84.758-.89l.004-.005.101-.003H14.32l-1.976-2.063a.925.925 0 0 1-.07-1.191h-.004l.074-.082a.838.838 0 0 1 1.054-.137h-.003l.085.062zm0 0" fill="rgb(0%,0%,0%)"/></svg>