<svg xmlns="http://www.w3.org/2000/svg" width="18" height="18"><path d="M9 0c4.973 0 9 4.027 9 9s-4.027 9-9 9-9-4.027-9-9 4.027-9 9-9zm0 1.8A7.199 7.199 0 0 0 1.8 9c0 3.977 3.223 7.2 7.2 7.2 3.977 0 7.2-3.223 7.2-7.2 0-3.977-3.223-7.2-7.2-7.2zm.047 11.7h-.102l-.078-.012-.105-.02-.07-.023-.07-.03-.09-.048-.083-.058-.086-.075-2.699-2.699a.9.9 0 0 1 1.191-1.344l-.003-.003.085.074 1.165 1.164V5.398a.9.9 0 0 1 .789-.894h.004L9 4.5a.9.9 0 0 1 .895.79v.003l.007.105v5.028l1.16-1.164A.898.898 0 0 1 11.7 9c.211 0 .403.07.555.188h-.004l.086.074a.894.894 0 0 1 .074 1.191l.004-.004-.078.086-2.7 2.7-.1.085-.098.067-.055.027-.074.031-.07.02-.079.02-.113.011zm0 0" fill="rgb(0%,0%,0%)"/></svg>