<svg xmlns="http://www.w3.org/2000/svg" width="18" height="18"><path d="M9.203 6.762l.106-.004c.464 0 .847.328.898.746l.008.098v8.093l1.168-1.086a.908.908 0 0 1 .637-.25c.21 0 .402.067.554.18l.086.07c.324.301.348.778.074 1.114l-.074.078-2.707 2.535c-.035.027-.07.055-.105.078l-.102.063-.101.043-.094.03-.082.016-.106.012h-.105l-.063-.004-.093-.02-.098-.023-.074-.031-.09-.047-.082-.047-.086-.07L5.965 15.8a.795.795 0 0 1-.262-.598c0-.465.402-.844.902-.844a.92.92 0 0 1 .551.18v-.004l.086.07 1.168 1.09V7.602c0-.434.348-.793.797-.84zM9.31 0c2.308 0 4.359 1.363 5.117 3.398l.07.2.207.062c2.133.711 3.633 2.582 3.637 4.785 0 2.797-2.426 5.067-5.418 5.067-.5 0-.902-.38-.902-.844 0-.465.402-.844.902-.844h.004c1.996 0 3.613-1.511 3.613-3.379 0-1.644-1.262-3.02-2.93-3.32l-.023-.004c-.371-.062-.656-.328-.723-.672l-.004-.004c-.32-1.578-1.789-2.758-3.55-2.758-1.758 0-3.23 1.18-3.547 2.739l-.004.02a.866.866 0 0 1-.715.675l-.008.004c-1.683.305-2.941 1.676-2.941 3.32 0 1.867 1.613 3.375 3.605 3.38.5 0 .903.378.903.843 0 .465-.403.848-.903.848h-.004c-2.992 0-5.418-2.27-5.418-5.07 0-2.274 1.602-4.204 3.809-4.844l.039-.004C4.825 1.496 6.879 0 9.313 0zm0 0" fill="rgb(0%,0%,0%)"/></svg>