<svg xmlns="http://www.w3.org/2000/svg" width="18" height="18"><path d="M9 0c4.973 0 9 4.027 9 9s-4.027 9-9 9-9-4.027-9-9 4.027-9 9-9zm0 1.8A7.199 7.199 0 0 0 1.8 9c0 3.977 3.223 7.2 7.2 7.2 3.977 0 7.2-3.223 7.2-7.2 0-3.977-3.223-7.2-7.2-7.2zm2.68 3.555a.899.899 0 0 1-1.54.93l-.003-.004c-.703-1.176-1.57-1.176-2.274 0-.09.149-.168.305-.238.469H9a.9.9 0 0 1 .11 1.793h-.005L9 8.551H7.215A7.929 7.929 0 0 0 7.199 9c0 .16.008.316.016.473v-.024H9a.9.9 0 0 1 .898.903c0 .46-.343.84-.789.89l-.004.004L9 11.25H7.625c.07.168.148.324.238.469.703 1.176 1.57 1.176 2.274 0a.9.9 0 0 1 .765-.426.9.9 0 0 1 .778 1.355v-.003c-1.403 2.34-3.957 2.34-5.36 0a6.019 6.019 0 0 1-.605-1.391l-.317-.004a.9.9 0 1 1-.11-1.793h.005l.117-.008a7.884 7.884 0 0 1 .004-.918l-.004.02h-.012a.9.9 0 1 1-.11-1.793h.005l.105-.008h.317a6.18 6.18 0 0 1 .617-1.422l-.012.027c1.403-2.34 3.957-2.34 5.36 0zm0 0" fill="rgb(0%,0%,0%)"/></svg>