<svg xmlns="http://www.w3.org/2000/svg" width="18" height="18"><path d="M17.102 18H.898a.9.9 0 1 1-.11-1.793h.005l.105-.008h.903V2.7A2.703 2.703 0 0 1 4.336.004h.004L4.5 0h9a2.703 2.703 0 0 1 2.695 2.535v.008l.004.156v13.5h.903a.9.9 0 0 1 .89.793v.004l.008.106a.899.899 0 0 1-.79.89h-.003zm-7.204-5.398H8.102v3.597h1.796zM13.5 1.8h-9a.9.9 0 0 0-.895.789v.004l-.003.105v13.5H6.3v-3.597c0-.95.73-1.723 1.66-1.797h.004l.137-.004h1.796c.95 0 1.723.73 1.797 1.66v.004l.004.137v3.597h2.7V2.7c0-.46-.344-.84-.79-.89l-.004-.004zM7.2 7.199c.495 0 .902.403.902.903a.902.902 0 0 1-.793.89h-.004L7.199 9h-.898a.902.902 0 0 1-.903-.898c0-.461.348-.84.793-.895h.004l.106-.008zm4.5 0c.495 0 .902.403.902.903a.902.902 0 0 1-.793.89h-.004L11.699 9h-.898a.902.902 0 0 1-.903-.898c0-.461.348-.84.793-.895h.004l.106-.008zM7.2 3.602c.495 0 .902.402.902.898 0 .46-.348.84-.793.895h-.004l-.106.003h-.898a.902.902 0 0 1-.903-.898c0-.46.348-.84.793-.895h.004l.106-.003zm4.5 0c.495 0 .902.402.902.898 0 .46-.348.84-.793.895h-.004l-.106.003h-.898a.902.902 0 0 1-.903-.898c0-.46.348-.84.793-.895h.004l.106-.003zm0 0" fill="rgb(0%,0%,0%)"/></svg>