<svg xmlns="http://www.w3.org/2000/svg" width="18" height="18"><path d="M6.3 9.898a6.3 6.3 0 0 1 6.302 6.301v.903a.902.902 0 0 1-.903.898H.9A.899.899 0 0 1 0 17.102v-.903a6.3 6.3 0 0 1 6.3-6.3zm0 1.801a4.501 4.501 0 0 0-4.5 4.5h9c0-2.484-2.015-4.5-4.5-4.5zm8.098-6.3c.461 0 .84.347.895.792v.004l.008.106v1.8h1.8c.458 0 .837.344.891.79v.004L18 9a.9.9 0 0 1-.79.895h-.003l-.105.003H15.3V11.7a.903.903 0 0 1-.903.903.902.902 0 0 1-.89-.793v-.004l-.008-.106V9.9h-1.8a.893.893 0 0 1-.891-.79l-.004-.004L10.8 9a.9.9 0 0 1 .789-.895h.004l.105-.003H13.5V6.3c0-.496.402-.903.898-.903zM6.301 0a4.501 4.501 0 0 1 0 9 4.501 4.501 0 0 1 0-9zm0 1.8a2.697 2.697 0 0 0-2.7 2.7c0 1.492 1.208 2.7 2.7 2.7C7.793 7.2 9 5.991 9 4.5c0-1.492-1.207-2.7-2.7-2.7zm0 0" fill="rgb(0%,0%,0%)"/></svg>