<svg xmlns="http://www.w3.org/2000/svg" width="16" height="17"><path d="M8.23 0c2.524 0 4.567 1.902 4.567 4.25 0 .469-.406.852-.91.852-.469 0-.852-.329-.907-.75l-.015-.25c-.082-1.344-1.277-2.407-2.735-2.407-1.46 0-2.652 1.063-2.742 2.399v.008l-.004.148V6.8h8.23c1.458 0 2.65 1.06 2.74 2.395V9.2l.003.153v5.097c0 1.356-1.137 2.465-2.574 2.547h-.008l-.16.004H2.742C1.285 17 .094 15.941.004 14.605v-.007L0 14.449V9.352c0-1.356 1.14-2.465 2.574-2.547h.008l.16-.004h.914V4.25C3.656 1.902 5.703 0 8.23 0zm5.485 8.5H2.742c-.469 0-.851.324-.906.746l-.004.004-.004.102v5.097c0 .438.352.793.805.844h.004l.105.008h10.973c.465 0 .851-.324.906-.746v-.004l.008-.102V9.352c0-.438-.352-.797-.8-.844h-.009zM8.23 10.2c.465 0 .848.323.907.745v.004l.004.102v1.699c0 .469-.407.852-.91.852-.47 0-.856-.329-.91-.75l-.005-.102v-1.7c0-.468.407-.85.914-.85zm0 0" fill="rgb(0%,0%,0%)"/></svg>