<svg xmlns="http://www.w3.org/2000/svg" width="14" height="17"><path d="M6.27 0h1.793c1.164 0 2.156.703 2.53 1.684l.009.015h1.046c1.43 0 2.598 1.059 2.684 2.395v.008l.004.148v10.2c0 1.355-1.113 2.464-2.524 2.546h-.007l-.157.004h-8.96c-1.43 0-2.598-1.059-2.68-2.395l-.004-.003L0 14.449V4.25c0-1.355 1.113-2.46 2.523-2.547h.008l.156-.004h1.051C4.098.754 5.008.074 6.09.004h.008zM3.738 3.402h-1.05c-.458 0-.836.325-.891.743v.007l-.004.098v10.2c0 .433.344.792.785.843h.004l.106.008h8.96c.457 0 .836-.328.891-.746v-.008l.004-.098V4.25c0-.438-.34-.793-.785-.844h-.008l-.102-.004h-1.05c-.36.946-1.266 1.621-2.352 1.692l-.008.004H6.27c-1.16 0-2.153-.7-2.528-1.68zm2.532 7.293l2.953-2.797a.912.912 0 0 1 .632-.25c.497 0 .899.383.899.852 0 .195-.07.379-.191.523l-.07.079L6.905 12.5a.905.905 0 0 1-.633.25.903.903 0 0 1-.55-.18v.004L5.64 12.5l-1.793-1.7a.817.817 0 0 1-.262-.6c0-.47.398-.852.894-.852.207 0 .399.07.551.183v-.004l.082.075 1.16 1.097zM8.063 1.7H6.27c-.454 0-.836.328-.887.746l-.004.008-.004.098.004.101a.884.884 0 0 0 .785.743h.004l.105.007h1.79c.46 0 .835-.328.89-.75l.008-.101-.008-.098c-.047-.39-.375-.7-.781-.746h-.004zm0 0" fill="rgb(0%,0%,0%)"/></svg>