<svg xmlns="http://www.w3.org/2000/svg" width="18" height="18"><path d="M6.3 0h5.4a2.7 2.7 0 0 1 2.695 2.535v.008l.003.156.004 1.055a2.712 2.712 0 0 1 1.793 2.379v.008l.004.16v1.054a2.702 2.702 0 0 1 1.793 2.38l.004.007.004.156v5.403a2.703 2.703 0 0 1-2.535 2.695h-.008l-.156.004H2.699a2.7 2.7 0 0 1-2.695-2.535v-.008L0 15.301V9.898A2.7 2.7 0 0 1 1.781 7.36l.02-.004V6.301c0-1.168.742-2.164 1.781-2.543l.016-.004V2.699A2.703 2.703 0 0 1 6.133.004h.008zm9 9l-12.706.008a.9.9 0 0 0-.79.781v.008l-.003.105v5.399a.9.9 0 0 0 .789.894h.004l.105.004h12.602c.457 0 .84-.344.89-.789v-.004l.008-.105V9.902a.9.9 0 0 0-.789-.894h-.004zM4.5 5.398l-.105.008a.904.904 0 0 0-.79.785v.004l-.007.106v.898h10.8v-.898a.9.9 0 0 0-.789-.895h-.004l-.105-.004zm7.2-3.597H6.3a.9.9 0 0 0-.894.789v.004l-.008.105v.903h7.204v-.903c0-.46-.348-.84-.793-.89l-.004-.004zm0 0" fill="rgb(0%,0%,0%)"/></svg>