<svg xmlns="http://www.w3.org/2000/svg" width="16" height="17"><path d="M6.398 0h3.657c.96 0 1.754.691 1.824 1.566l.004.008.004.125v1.7h3.656c.469 0 .852.328.91.75l.004.101c0 .434-.348.793-.805.844h-.004l-.105.008h-.063l-.734 9.53c-.101 1.274-1.2 2.29-2.57 2.364h-.004l-.16.004H4.445c-1.39 0-2.539-.96-2.718-2.207v-.016l-.02-.144-.73-9.531H.914c-.465 0-.852-.329-.906-.75L0 4.25c0-.434.352-.793.8-.844H.81l.105-.008h3.66V1.7c0-.89.742-1.625 1.684-1.691l.008-.004zm7.247 5.102H2.809l.726 9.406c.031.414.371.738.805.785h.004l.101.008h7.567c.445 0 .816-.301.898-.692v-.007l.012-.094zM6.398 6.8c.47 0 .856.324.91.746v.004l.008.097v5.102c0 .469-.41.852-.918.852-.464 0-.851-.329-.906-.75l-.008-.102V7.648c0-.464.41-.847.914-.847zm3.657 0c.468 0 .855.324.91.746v.004l.008.097v5.102c0 .469-.41.852-.918.852-.465 0-.852-.329-.907-.75l-.007-.102V7.648c0-.464.41-.847.914-.847zm0-5.102H6.398v1.7h3.657zm0 0" fill="rgb(0%,0%,0%)"/></svg>