<svg xmlns="http://www.w3.org/2000/svg" width="18" height="18"><path d="M3.602 12.602c.457 0 .836.343.89.789v.004l.008.105v.898h.898c.461 0 .84.348.895.793v.004l.008.106c0 .46-.348.84-.793.89l-.004.004-.106.004H4.5v.903a.9.9 0 1 1-1.793.11v-.005l-.008-.105v-.903h-.898a.9.9 0 0 1-.895-.789v-.004l-.008-.105c0-.461.348-.84.793-.895h.004l.106-.008h.898V13.5a.9.9 0 0 1 .903-.898zM10.754.617l1.922 5.762 4.742 1.777c.777.293.777 1.395 0 1.688l-4.742 1.777-1.922 5.762c-.274.824-1.434.824-1.707 0L7.125 11.62 2.383 9.844c-.778-.293-.778-1.395 0-1.688L7.125 6.38 9.047.617c.273-.824 1.433-.824 1.707 0zm-.856 3.13L8.695 7.354a.907.907 0 0 1-.53.56H8.16L5.262 9l2.898 1.086c.254.094.45.3.535.559l1.203 3.609 1.204-3.61a.928.928 0 0 1 .53-.558h.009L14.535 9l-2.894-1.086a.91.91 0 0 1-.536-.55l-.003-.009zM2.7 0a.9.9 0 0 1 .895.79v.003l.008.105v.903H4.5a.9.9 0 0 1 .895.789v.004l.003.105a.9.9 0 0 1-.789.895h-.004l-.105.008h-.898V4.5c0 .46-.348.84-.793.895h-.004l-.106.003a.893.893 0 0 1-.89-.789l-.004-.004L1.8 4.5v-.898H.898a.902.902 0 0 1-.89-.793v-.004L0 2.699c0-.46.344-.84.79-.89l.003-.004.105-.004h.903V.898a.9.9 0 0 1 .691-.875l.102-.02zm0 0" fill="rgb(0%,0%,0%)"/></svg>