<svg xmlns="http://www.w3.org/2000/svg" width="17" height="15"><path d="M8.574 2.293l-.523-.54A4.629 4.629 0 0 0 4.715.333c-1.3 0-2.48.543-3.332 1.422A4.901 4.901 0 0 0 0 5.188c0 1.34.527 2.554 1.383 3.43l6.586 6.78c.156.16.37.262.605.262a.85.85 0 0 0 .61-.262l6.586-6.78a4.918 4.918 0 0 0 1.382-3.434c0-1.34-.53-2.551-1.382-3.43A4.635 4.635 0 0 0 12.434.332c-1.301 0-2.48.543-3.336 1.422zm-5.98 5.078a3.126 3.126 0 0 1-.88-2.184c0-1.707 1.345-3.09 3-3.09A2.95 2.95 0 0 1 6.84 3l1.129 1.164a.847.847 0 0 0 1.215 0L10.313 3a2.95 2.95 0 0 1 2.124-.902c1.657 0 3 1.382 3 3.09 0 .851-.335 1.625-.878 2.183l-5.98 6.156zm0 0" fill="rgb(0%,0%,0%)"/></svg>