<svg xmlns="http://www.w3.org/2000/svg" width="18" height="18"><path d="M10.66 6.89a.9.9 0 1 0 1.355-1.184l.005.005zm-3.32 4.22a.9.9 0 1 0-1.355 1.184l-.005-.005zM9.898 4.5a.899.899 0 0 0-1.796 0zm-1.796 9a.899.899 0 0 0 1.796 0zM16.199 9c0 3.977-3.222 7.2-7.199 7.2V18c4.969 0 9-4.031 9-9zM9 16.2A7.199 7.199 0 0 1 1.8 9H0a9 9 0 0 0 9 9zM1.8 9c0-3.977 3.223-7.2 7.2-7.2V0C4.027 0 0 4.027 0 9zM9 1.8c3.977 0 7.2 3.223 7.2 7.2H18a9 9 0 0 0-9-9zm0 6.302c-.594 0-1.09-.165-1.41-.38-.328-.214-.39-.417-.39-.523H5.397c0 .89.543 1.59 1.192 2.024.656.437 1.512.675 2.41.675zm-1.8-.903c0-.101.062-.304.39-.523C7.91 6.46 8.406 6.3 9 6.3V4.5c-.898 0-1.754.242-2.41.68-.649.433-1.192 1.129-1.192 2.02zM9 6.301c.813 0 1.406.297 1.66.59l1.36-1.18C11.336 4.926 10.184 4.5 9 4.5zm0 3.597c.594 0 1.09.165 1.41.38.328.214.39.417.39.523h1.802c0-.89-.543-1.59-1.192-2.024-.656-.437-1.512-.675-2.41-.675zM8.102 4.5v.898h1.796V4.5zm0 8.102v.898h1.796v-.898zM9 11.699c-.813 0-1.406-.297-1.66-.59l-1.36 1.18C6.664 13.074 7.816 13.5 9 13.5zm1.8-.898c0 .101-.062.304-.39.523-.32.215-.816.375-1.41.375V13.5c.898 0 1.754-.242 2.41-.68.649-.433 1.192-1.129 1.192-2.02zM8.103 5.398v7.204h1.796V5.398zm0 0" fill="rgb(0%,0%,0%)"/></svg>