<svg xmlns="http://www.w3.org/2000/svg" width="18" height="18"><path d="M9 15.3a.9.9 0 0 1 .895.79v.004l.003.105v.903a.9.9 0 1 1-1.793.11v-.005l-.003-.105v-.903c0-.496.402-.898.898-.898zm5.645-1.921l.082.074.636.637a.901.901 0 0 1-.636 1.539.881.881 0 0 1-.551-.191l-.086-.075-.637-.636a.884.884 0 0 1-.262-.637.899.899 0 0 1 1.454-.707zm-10.098.074a.914.914 0 0 1 .074 1.192v-.004l-.074.086-.637.636a.9.9 0 0 1-1.348-1.191v.004l.075-.086.636-.637a.89.89 0 0 1 .637-.262c.246 0 .473.098.637.262zM9 4.5a4.501 4.501 0 0 1 0 9 4.501 4.501 0 0 1 0-9zm0 1.8A2.697 2.697 0 0 0 6.3 9c0 1.492 1.208 2.7 2.7 2.7 1.492 0 2.7-1.208 2.7-2.7 0-1.492-1.208-2.7-2.7-2.7zm8.102 1.802a.9.9 0 1 1 .11 1.793h-.005l-.105.003h-.903a.9.9 0 1 1-.11-1.793h.005l.105-.003zm-15.301 0a.9.9 0 1 1 .11 1.793h-.005l-.105.003H.898a.9.9 0 1 1-.11-1.793h.005l.105-.003zm2.023-5.54l.086.075.637.636a.9.9 0 0 1-1.192 1.344v.004l-.082-.074-.636-.637a.901.901 0 0 1 .633-1.539c.21 0 .402.07.554.192zm11.54.075a.894.894 0 0 1 .073 1.187h.004l-.078.086-.636.633a.899.899 0 0 1-1.344-1.188h-.004l.078-.085.633-.637a.914.914 0 0 1 .637-.262.9.9 0 0 1 .636.262zM9 0a.9.9 0 0 1 .895.79v.003l.003.105v.903a.9.9 0 1 1-1.793.11v-.005l-.003-.105V.898C8.102.402 8.504 0 9 0zm0 0" fill="rgb(0%,0%,0%)"/></svg>