<svg xmlns="http://www.w3.org/2000/svg" width="18" height="18"><path d="M9.61.41a.906.906 0 0 0-.59.235V.64a9.97 9.97 0 0 1-6.707 2.57h-.02a13.7 13.7 0 0 1-.566-.012.919.919 0 0 0-.887.68v.008A11.594 11.594 0 0 0 .457 6.87v.012c0 5.547 3.8 10.226 8.95 11.55.152.04.312.04.464 0h-.008c5.149-1.324 8.946-6.003 8.946-11.55 0-1.035-.133-2.04-.38-2.996a.92.92 0 0 0-.886-.688h-.05.003c-.172.008-.348.012-.523.012h-.016A10.02 10.02 0 0 1 10.234.633l.012.008a.909.909 0 0 0-.613-.23zm.023 1.977c1.976 1.562 4.41 2.558 7.105 2.613.114.617.235 1.23.235 1.883 0 4.62-3.114 8.469-7.34 9.672-4.223-1.203-7.34-5.051-7.34-9.672 0-.653.121-1.266.238-1.883 2.696-.055 5.13-1.05 7.102-2.613zm0 0" fill="rgb(0%,0%,0%)"/><path d="M9.633 5.965a.916.916 0 0 0-.914.918v1.836a.915.915 0 0 0 1.832 0V6.883a.917.917 0 0 0-.918-.918zm0 5.504a.916.916 0 0 0-.914.918c0 .508.41.918.914.918h.012a.92.92 0 0 0 .918-.918.92.92 0 0 0-.918-.918zm0 0" fill="rgb(0%,0%,0%)"/></svg>