<svg xmlns="http://www.w3.org/2000/svg" width="18" height="18"><path d="M9 0c4.973 0 9 4.027 9 9s-4.027 9-9 9-9-4.027-9-9 4.027-9 9-9zm0 1.8A7.199 7.199 0 0 0 1.8 9c0 3.977 3.223 7.2 7.2 7.2 3.977 0 7.2-3.223 7.2-7.2 0-3.977-3.223-7.2-7.2-7.2zm3.164 2.829a.904.904 0 0 1 .356 1.148V5.77l-.047.093-1.344 2.239h.57a.9.9 0 0 1 .895.789v.004l.008.105c0 .46-.348.84-.793.895h-.004l-.106.007h-1.648l-.153.246v.653H11.7a.9.9 0 0 1 .895.789v.004l.008.105c0 .461-.348.84-.793.895h-.004l-.106.008H9.9v.898a.9.9 0 0 1-.79.895h-.004L9 14.402a.903.903 0 0 1-.895-.793v-.004l-.003-.105v-.898H6.3a.903.903 0 0 1-.895-.793v-.004l-.008-.106a.9.9 0 0 1 .793-.89h.004l.106-.008h1.8v-.653l-.152-.246H6.301a.903.903 0 0 1-.895-.793v-.004L5.398 9c0-.46.348-.84.793-.895h.004l.106-.003h.57L5.527 5.863A.9.9 0 0 1 6.3 4.5a.9.9 0 0 1 .712.348v.004l.058.085L8.97 8.102h.062l1.899-3.165a.896.896 0 0 1 .77-.437c.171 0 .331.047.468.129zm0 0" fill="rgb(0%,0%,0%)"/></svg>