<svg xmlns="http://www.w3.org/2000/svg" width="18" height="18"><path d="M17.602 12.207l.89.36a.96.96 0 0 0-1.254-1.246l.004-.005zM6.375.98l.887.356A.96.96 0 0 0 6.008.09h.008l.359.89h-.004zm10.867 10.336a7.61 7.61 0 0 1-2.855.551v1.918a9.525 9.525 0 0 0 3.57-.687zm-2.855.551A7.674 7.674 0 0 1 6.71 4.195H4.797a9.59 9.59 0 0 0 9.59 9.59zM6.71 4.195c0-1.011.2-1.976.55-2.86L5.485.622a9.373 9.373 0 0 0-.687 3.566v.008zM1.918 8.992A7.677 7.677 0 0 1 6.73 1.867L6.016.09A9.593 9.593 0 0 0 0 8.992zm7.672 7.672a7.673 7.673 0 0 1-7.672-7.672H0c0 5.293 4.293 9.59 9.59 9.59zm7.12-4.812a7.674 7.674 0 0 1-7.12 4.812v1.918c4.035 0 7.484-2.492 8.902-6.016zm0 0" fill="rgb(0%,0%,0%)"/></svg>