<svg xmlns="http://www.w3.org/2000/svg" width="18" height="15"><path d="M9.145 8.277c1.632 0 3.164.825 4.097 2.215a3.187 3.187 0 0 1 1.719-.496c1.777 0 3.23 1.441 3.32 3.258v.008l.004.172v1.718c0 .442-.32.805-.734.856l-.098.008H.832a.847.847 0 0 1-.828-.758v-.004L0 15.152v-1.718c0-1.899 1.488-3.442 3.324-3.442.637 0 1.23.188 1.735.508l-.012-.008c.91-1.347 2.402-2.219 4.094-2.219h.004zm-5.82 3.438c-.876 0-1.59.7-1.657 1.586v.004l-.008.129v.859h2.496v-.86c0-.464.059-.925.176-1.367a1.608 1.608 0 0 0-1.004-.351h-.004zm11.636 0c-.371 0-.723.129-1.008.351.094.356.149.72.168 1.09l.008.278v.859h2.496v-.86c0-.949-.746-1.718-1.664-1.718zM9.145 9.996H9.14c-1.329 0-2.477.809-3.008 1.973l-.008.023-.07.168a3.368 3.368 0 0 0-.227 1.043l-.004.012-.004.219v.863h6.649v-.863c0-.368-.059-.73-.164-1.075l-.082-.222c-.508-1.266-1.696-2.14-3.078-2.14zm5.816-6.02c1.379 0 2.492 1.157 2.492 2.579 0 1.425-1.113 2.582-2.492 2.582-1.375 0-2.492-1.157-2.492-2.582 0-1.422 1.117-2.578 2.492-2.578zm-11.637 0c1.38 0 2.492 1.157 2.492 2.579 0 1.425-1.113 2.582-2.492 2.582C1.95 9.137.832 7.98.832 6.555c0-1.422 1.117-2.578 2.492-2.578zM9.144.54c1.836 0 3.325 1.54 3.325 3.438 0 1.898-1.489 3.437-3.324 3.437-1.82-.023-3.282-1.555-3.282-3.437 0-1.883 1.461-3.414 3.278-3.438h.004V.535zm5.817 5.156c-.457 0-.832.387-.832.86 0 .476.371.863.832.863.46 0 .832-.387.832-.863 0-.473-.371-.86-.832-.86zm-11.637 0c-.457 0-.832.387-.832.86 0 .476.375.863.832.863.461 0 .832-.387.832-.863 0-.473-.37-.86-.832-.86zm5.82-3.437h-.03c-.919 0-1.665.77-1.665 1.719 0 .949.746 1.718 1.664 1.718h.032-.004c.906-.015 1.632-.78 1.632-1.718s-.726-1.704-1.628-1.72zm0 0" fill="rgb(0%,0%,0%)"/></svg>