<svg xmlns="http://www.w3.org/2000/svg" width="18" height="18"><path d="M9 0c4.973 0 9 4.027 9 9s-4.027 9-9 9-9-4.027-9-9 4.027-9 9-9zm0 1.8A7.199 7.199 0 0 0 1.8 9c0 3.977 3.223 7.2 7.2 7.2 3.977 0 7.2-3.223 7.2-7.2 0-3.977-3.223-7.2-7.2-7.2zM7.75 6.489l.086.074L9 7.728l1.164-1.165a.89.89 0 0 1 .637-.261.9.9 0 0 1 .71 1.453V7.75l-.073.086L10.273 9l1.165 1.164a.913.913 0 0 1 .074 1.191v-.003l-.075.085a.902.902 0 0 1-1.188.074l-.085-.073L9 10.273l-1.164 1.165a.9.9 0 0 1-1.344-1.191l-.004.003.078-.086L7.726 9l-1.16-1.164a.894.894 0 0 1-.074-1.188h-.004l.074-.085a.914.914 0 0 1 1.192-.075zm0 0" fill="rgb(0%,0%,0%)"/></svg>