<svg xmlns="http://www.w3.org/2000/svg" width="18" height="18"><path d="M9.602.457C4.562.457.457 4.563.457 9.602s4.106 9.14 9.145 9.14 9.14-4.101 9.14-9.14c0-5.04-4.101-9.145-9.14-9.145zm0 1.828a7.3 7.3 0 0 1 7.312 7.317 7.297 7.297 0 0 1-7.312 7.312h-.016c-4.031 0-7.3-3.27-7.3-7.3v-.016.004a7.304 7.304 0 0 1 7.316-7.317zm0 2.742a.913.913 0 0 0-.915.914c0 .504.407.914.915.914h.007a.915.915 0 0 0 0-1.828zm-.915 3.66a.91.91 0 0 0-.914.915c0 .503.407.914.915.914v2.742c0 .504.406.914.914.914h.914c.504 0 .91-.41.91-.914a.91.91 0 0 0-.91-.914V9.602a.913.913 0 0 0-.914-.915zm0 0" fill="rgb(0%,0%,0%)"/></svg>