<svg xmlns="http://www.w3.org/2000/svg" width="18" height="18"><path d="M9 0c4.973 0 9 4.027 9 9s-4.027 9-9 9-9-4.027-9-9 4.027-9 9-9zm0 1.8A7.199 7.199 0 0 0 1.8 9c0 3.977 3.223 7.2 7.2 7.2 3.977 0 7.2-3.223 7.2-7.2 0-3.977-3.223-7.2-7.2-7.2zm1.453 3.79l.082.074 2.703 2.7.086.1.063.102.031.055.027.07.024.07.023.106.008.078v.11l-.008.05-.015.106-.032.098-.03.074-.048.086-.066.094-.067.074-2.699 2.699a.899.899 0 0 1-1.344-1.188h-.003l.074-.085 1.164-1.16H5.398a.897.897 0 0 1-.89-.794l-.004-.004L4.5 9a.9.9 0 0 1 .79-.895h.003l.105-.003h5.028L9.262 6.937A.914.914 0 0 1 9 6.301c0-.207.07-.403.191-.555l-.004.004.075-.086a.898.898 0 0 1 .636-.262c.211 0 .403.07.555.188h-.004zm0 0" fill="rgb(0%,0%,0%)"/></svg>