<svg xmlns="http://www.w3.org/2000/svg" width="18" height="11"><path d="M9.832.242l.105-.008 7.297.004.114.016.101.027.102.04.086.05.09.063.078.074.09.105.062.106.05.105.032.098.027.14.004.11v7.512c0 .515-.402.937-.902.937a.919.919 0 0 1-.898-.824v-.004l-.004-.11V3.439l-5.688 5.906a.88.88 0 0 1-.637.277.887.887 0 0 1-.558-.2h.004L9.3 9.345l-2.977-3.09-4.781 4.969a.882.882 0 0 1-.64.277c-.5 0-.903-.422-.903-.941a.96.96 0 0 1 .191-.579v.004l.075-.09 5.421-5.632a.879.879 0 0 1 1.192-.074v-.004l.086.078 2.973 3.093 5.046-5.246H9.938c-.461 0-.84-.359-.895-.824v-.004l-.008-.11c0-.476.348-.874.793-.929zm0 0" fill="rgb(0%,0%,0%)"/></svg>