<svg xmlns="http://www.w3.org/2000/svg" width="18" height="18"><path d="M9.29 9.29V.98A.93.93 0 0 0 8.253.06l.004-.004A9.295 9.295 0 0 0 0 9.289c0 5.133 4.16 9.29 9.29 9.29 4.745 0 8.718-3.575 9.233-8.259a.932.932 0 0 0-.922-1.031zm-1.856-7.2v8.129c0 .515.414.93.925.93h8.13A7.433 7.433 0 0 1 1.86 9.288a7.442 7.442 0 0 1 5.343-7.137zm0 0" fill="rgb(0%,0%,0%)"/><path d="M18.05 6.195c.036.09.055.196.055.309 0 .512-.418.93-.93.93h-5.097a.93.93 0 0 1-.93-.93V1.406a.927.927 0 0 1 1.247-.875l-.008-.004c2.652.961 4.707 3.016 5.644 5.602zm-2.476-.879a7.568 7.568 0 0 0-2.531-2.445l-.035-.02v2.723h2.722zm0 0" fill="rgb(0%,0%,0%)"/></svg>