<svg xmlns="http://www.w3.org/2000/svg" width="14" height="17"><path d="M11.648 4.25c0 2.348-2.003 4.25-4.48 4.25-2.473 0-4.48-1.902-4.48-4.25S4.694 0 7.168 0c2.477 0 4.48 1.902 4.48 4.25zm-1.793 0c0-1.41-1.203-2.55-2.687-2.55-1.484 0-2.688 1.14-2.688 2.55S5.684 6.8 7.168 6.8c1.484 0 2.687-1.14 2.687-2.55zM7.168 9.348C3.207 9.348 0 12.395 0 16.152c0 .465.402.848.895.848H13.44c.496 0 .895-.383.895-.848 0-3.757-3.211-6.804-7.168-6.804zm-5.3 5.953c.425-2.414 2.636-4.25 5.3-4.25 2.59 0 4.75 1.738 5.262 4.05l.039.2zm0 0" fill="rgb(0%,0%,0%)"/></svg>