<svg xmlns="http://www.w3.org/2000/svg" width="18" height="17"><path d="M10.078.512c-.973 0-1.95.476-2.492 1.422L.934 13.539c-1.082 1.895.324 4.352 2.496 4.352h13.3c2.172 0 3.579-2.457 2.497-4.352L12.574 1.934C12.031.984 11.06.512 10.082.512zm0 1.875c.32 0 .637.172.832.515l6.652 11.606c.395.683-.046 1.449-.832 1.449H3.43c-.785 0-1.227-.766-.832-1.45L9.25 2.903c.195-.343.512-.515.832-.515zm0 3.898a.964.964 0 0 0-.957.969v1.934c0 .535.43.968.957.968.531 0 .961-.433.961-.969V7.255a.964.964 0 0 0-.96-.969zm0 5.805a.963.963 0 0 0-.957.965c0 .535.43.968.957.968h.012c.531 0 .96-.433.96-.968a.964.964 0 0 0-.96-.965zm0 0" fill="rgb(0%,0%,0%)"/></svg>