<svg xmlns="http://www.w3.org/2000/svg" width="16" height="17"><path d="M8.031.004l.2-.004c2.453 0 4.457 1.8 4.566 4.059v.003l.004.188V6.8h.914c1.457 0 2.648 1.06 2.738 2.395V9.2l.004.153v5.097c0 1.356-1.137 2.465-2.574 2.547h-.008l-.16.004H2.742C1.285 17 .094 15.941.008 14.605l-.004-.007L0 14.449V9.352c0-1.356 1.14-2.465 2.578-2.547h.004l.16-.004h.914V4.25C3.656 1.969 5.594.105 8.02.004zM13.715 8.5H2.742c-.469 0-.851.324-.906.746l-.004.004-.004.102v5.097c0 .438.352.793.805.844h.004l.105.008h10.973c.465 0 .851-.324.906-.746v-.004l.008-.102V9.352c0-.47-.41-.852-.914-.852zM8.23 10.2c.465 0 .848.323.907.745v.004l.004.102v1.699c0 .469-.407.852-.91.852-.47 0-.856-.329-.91-.75l-.005-.102v-1.7c0-.468.407-.85.914-.85zm0-8.5c-1.46 0-2.652 1.058-2.742 2.394v.008l-.004.148V6.8h5.489V4.25c0-1.406-1.23-2.55-2.743-2.55zm0 0" fill="rgb(0%,0%,0%)"/></svg>