<svg xmlns="http://www.w3.org/2000/svg" width="18" height="18"><path d="M9.602.457C4.562.457.457 4.563.457 9.602s4.106 9.14 9.145 9.14 9.14-4.101 9.14-9.14c0-5.04-4.101-9.145-9.14-9.145zm0 1.828a7.3 7.3 0 0 1 7.312 7.317 7.297 7.297 0 0 1-7.312 7.312h-.016c-4.031 0-7.3-3.27-7.3-7.3v-.016.004a7.304 7.304 0 0 1 7.316-7.317zm-2.747 4.57c-.503 0-.91.41-.91.915a.91.91 0 0 0 .91.914h.012a.915.915 0 0 0 0-1.828zm5.489 0a.915.915 0 0 0 0 1.829h.008a.915.915 0 0 0 0-1.828zm-5.305 4.418h-.023-.004c-.5 0-.91.407-.91.91v.005c0 .25.101.48.265.644a4.586 4.586 0 0 0 6.465 0 .902.902 0 0 0 .27-.648.909.909 0 0 0-.91-.91h-.005a.916.916 0 0 0-.648.265 2.727 2.727 0 0 1-3.879 0 .898.898 0 0 0-.617-.266zm0 0" fill="rgb(0%,0%,0%)"/></svg>