<svg xmlns="http://www.w3.org/2000/svg" width="18" height="18"><path d="M5.371 7.664L4.97 6.86a.897.897 0 0 0-.418 1.18v-.004zm4.965 4.965l-.371.82a.894.894 0 0 0 1.172-.41l.004-.008zM2.699 0A2.697 2.697 0 0 0 0 2.7h1.8c0-.497.403-.9.9-.9zm2.953 0H2.7v1.8h2.953zM7.36 1.23A1.803 1.803 0 0 0 5.652 0v1.8zm1.348 4.043L7.359 1.23l-1.707.57L7 5.845zm-.902 2.18c.593-.3.996-.91.996-1.61 0-.202-.035-.398-.098-.581l.004.015L7 5.844zM5.773 8.47l2.032-1.016L7 5.843 4.969 6.86zm4.93 3.34a9.095 9.095 0 0 1-4.488-4.457l-.024-.055-1.64.738c1.105 2.414 3 4.309 5.347 5.387l.067.027zm-.156-1.614L9.53 12.227l1.61.804L12.156 11zm2.18-.902a1.797 1.797 0 0 0-2.176.895l-.004.007 1.61.805zm4.043 1.348l-4.043-1.348-.57 1.707 4.042 1.348zM18 12.348c0-.79-.508-1.461-1.219-1.703l-.011-.004-.57 1.707zm0 2.953v-2.953h-1.8V15.3zM15.3 18c1.493 0 2.7-1.207 2.7-2.7h-1.8a.899.899 0 0 1-.9.9zm-.902 0h.903v-1.8h-.903zM0 3.602C0 11.555 6.445 18 14.398 18v-1.8c-6.957 0-12.597-5.641-12.597-12.598zm0-.903v.903h1.8v-.903zm0 0" fill="rgb(0%,0%,0%)"/></svg>