<svg xmlns="http://www.w3.org/2000/svg" width="16" height="17"><path d="M10.594 0c.449 0 .86.148 1.176.398h-.004l.12.102 4.036 3.75c.305.281.492.656.531 1.05l.004.153v5.598c0 1.355-1.137 2.465-2.574 2.543l-.008.004-.16.004h-.918v.847c0 1.356-1.133 2.465-2.57 2.543l-.008.004-.164.004H2.742C1.285 17 .094 15.941.004 14.605v-.007L0 14.449v-8.5c0-1.355 1.14-2.465 2.574-2.547h.008l.16-.004h.914v-.847c0-1.356 1.14-2.465 2.578-2.547h.004L6.398 0zM3.656 5.102h-.914c-.469 0-.851.324-.906.746l-.004.004-.004.097v8.5c0 .438.352.793.805.844h.004l.105.008h7.313c.468 0 .855-.324.91-.746v-.004l.008-.102v-.847H6.398c-1.457 0-2.648-1.063-2.734-2.395v-.008l-.008-.148zm6.938-3.403H6.398c-.464 0-.851.324-.906.746v.004l-.008.102v8.5c0 .433.352.793.805.844h.004l.105.003h7.317c.465 0 .851-.324.906-.746v-.004l.008-.097V5.453zm0 0" fill="rgb(0%,0%,0%)"/></svg>