<svg xmlns="http://www.w3.org/2000/svg" width="18" height="9"><path d="M5.137.266a.904.904 0 0 1 .074 1.188l-.074.081-2.063 2.067h14.028c.457 0 .835.343.89.789v.004L18 4.5a.9.9 0 0 1-.79.895h-.007l-.101.007H3.074l2.063 2.063a.907.907 0 0 1 .074 1.191v-.004l-.074.086A.914.914 0 0 1 4.5 9a.884.884 0 0 1-.555-.191l.004.004-.086-.075L.262 5.137a.64.64 0 0 1-.082-.098l-.004-.004-.063-.098-.05-.101-.032-.098-.023-.105L0 4.555v-.11l.004-.05.02-.106.027-.098.031-.07.047-.09.058-.082.075-.086L3.863.262A.9.9 0 0 1 4.5 0c.246 0 .473.102.637.262zm0 0" fill="rgb(0%,0%,0%)"/></svg>