<svg xmlns="http://www.w3.org/2000/svg" width="16" height="17"><path d="M8.23 0c1.188 0 2.196.7 2.579 1.684l.007.015h1.07c1.458 0 2.65 1.059 2.739 2.395v.008l.004.148V6.8c0 .47-.41.848-.914.848-.469 0-.856-.324-.91-.746v-.004l-.008-.097V4.25c0-.434-.344-.793-.8-.844h-.005l-.105-.008h-1.07c-.372.954-1.305 1.637-2.422 1.696l-.004.004-.16.004H6.397c-1.187 0-2.195-.704-2.578-1.684l-.007-.02h-1.07c-.47 0-.852.329-.907.75h-.004l-.004.102v10.2c0 .437.352.792.805.843h.004l.105.008h9.145c.468 0 .851-.324.906-.746l.004-.004v-.95c0-.472.41-.851.918-.851.465 0 .851.324.906.746v.004l.008.102v.847c0 1.356-1.14 2.465-2.574 2.543l-.008.004-.16.004H2.742C1.285 17 .094 15.941.004 14.605v-.007L0 14.449V4.25c0-1.355 1.14-2.465 2.574-2.547h.008l.16-.004h1.07C4.18.754 5.11.074 6.216.008l.008-.004L6.398 0zm1.56 7.05a.812.812 0 0 1 .073 1.122l-.074.078-1.18 1.102h6.938c.5 0 .91.378.91.847 0 .438-.348.793-.8.844h-.009l-.101.008H8.609l1.18 1.097c.164.153.27.368.27.602a.8.8 0 0 1-.196.52l-.07.082a.972.972 0 0 1-1.211.07l-.086-.07-2.781-2.59-.047-.059-.066-.09-.051-.097-.031-.09-.024-.098-.008-.05-.004-.094.004-.055.02-.098.027-.097.04-.094.046-.082.059-.082a.738.738 0 0 1 .078-.078L8.5 7.05a.927.927 0 0 1 .645-.25c.25 0 .48.094.648.25zM8.23 1.7H6.398c-.464 0-.851.323-.906.745v.004l-.008.102.008.097c.051.395.38.7.797.747h.008l.101.003H8.23c.47 0 .852-.324.907-.746v-.004l.004-.097-.004-.102c-.051-.386-.38-.695-.797-.742h-.004zm0 0" fill="rgb(0%,0%,0%)"/></svg>