<svg xmlns="http://www.w3.org/2000/svg" width="16" height="17"><path d="M14.043 12.84l-3.832 3.547a2.824 2.824 0 0 1-1.914.734 2.834 2.834 0 0 1-1.79-.625l.005.004-.13-.113-3.835-3.547c-3.172-2.938-3.172-7.7 0-10.637 3.176-2.937 8.32-2.937 11.496 0 3.176 2.938 3.176 7.7 0 10.637zm-1.277-1.184c2.468-2.281 2.468-5.988 0-8.273-2.47-2.285-6.47-2.285-8.938 0-2.414 2.234-2.469 5.82-.164 8.117l.164.156 3.832 3.547a.945.945 0 0 0 .637.242c.25 0 .473-.093.637-.242zm0 0" fill="rgb(0%,0%,0%)"/><path d="M11.91 7.52c0 1.847-1.617 3.343-3.613 3.343S4.684 9.367 4.684 7.52c0-1.844 1.617-3.344 3.613-3.344s3.613 1.5 3.613 3.344zm-1.805 0c0-.922-.808-1.668-1.808-1.668s-1.809.746-1.809 1.668c0 .925.809 1.671 1.809 1.671 1 0 1.808-.746 1.808-1.671zm0 0" fill="rgb(0%,0%,0%)"/></svg>