<svg xmlns="http://www.w3.org/2000/svg" width="18" height="18"><path d="M14.703.031a1.033 1.033 0 0 1 .774 1.137v-.004l-.024.117-.969 3.88h3.063c.531 0 .965.398 1.027.913l.004.117c0 .532-.394.97-.91 1.028l-.121.008h-3.578l-1.035 4.128h2.55c.528 0 .965.399 1.024.91l.008.122c0 .527-.399.965-.91 1.023l-.122.008h-3.066l-1.094 4.379a1.033 1.033 0 0 1-2.035-.25c0-.047.004-.09.012-.137v.004l.02-.117.968-3.879H6.227l-1.094 4.379a1.038 1.038 0 0 1-1.004.781 1.03 1.03 0 0 1-1.031-1.031c0-.047.004-.09.007-.137v.004l.024-.117.969-3.879H1.035c-.523 0-.965-.39-1.027-.91L0 12.387c0-.532.398-.965.914-1.024l.117-.008h3.582l1.032-4.128H3.098c-.524 0-.965-.395-1.028-.915l-.004-.117c0-.53.399-.968.91-1.027l.122-.008H6.16L7.258.781c.113-.449.52-.781 1-.781A1.034 1.034 0 0 1 9.28 1.168v-.004l-.023.117-.969 3.88h4.063L13.449.78a1.033 1.033 0 0 1 1.258-.75zM11.84 7.227H7.773l-1.03 4.128h4.062zm0 0" fill="rgb(0%,0%,0%)"/></svg>