<svg xmlns="http://www.w3.org/2000/svg" width="18" height="18"><path d="M9 0c4.973 0 9 4.027 9 9s-4.027 9-9 9-9-4.027-9-9 4.027-9 9-9zm0 13.5h-.016c-1.687 0-3.289.36-4.738 1l.074-.027a7.126 7.126 0 0 0 4.668 1.726h.024a7.136 7.136 0 0 0 4.675-1.734l-.007.008a11.503 11.503 0 0 0-4.66-.973H9zM9 1.8A7.199 7.199 0 0 0 1.8 9c0 1.512.466 2.914 1.262 4.074C4.79 12.207 6.825 11.7 8.98 11.7H9c2.09 0 4.11.477 5.938 1.375a7.115 7.115 0 0 0 1.261-4.062V9c0-3.977-3.222-7.2-7.199-7.2zm0 1.802A3.6 3.6 0 1 1 9 10.8a3.6 3.6 0 1 1 0-7.2zm0 1.796a1.801 1.801 0 1 0 .001 3.6A1.801 1.801 0 0 0 9 5.399zm0 0" fill="rgb(0%,0%,0%)"/></svg>