<svg xmlns="http://www.w3.org/2000/svg" width="18" height="18"><path d="M9 0c4.973 0 9 4.027 9 9s-4.027 9-9 9-9-4.027-9-9 4.027-9 9-9zm0 1.8A7.199 7.199 0 0 0 1.8 9c0 3.977 3.223 7.2 7.2 7.2 3.977 0 7.2-3.223 7.2-7.2 0-3.977-3.223-7.2-7.2-7.2zm.742 1.805l.156-.003A2.7 2.7 0 0 1 12.602 6.3a.902.902 0 0 1-.903.898.893.893 0 0 1-.89-.789l-.004-.004-.012-.21a.9.9 0 0 0-1.785-.005v.004L9 6.301v1.8h.898a.9.9 0 0 1 .895.79v.004l.008.105a.9.9 0 0 1-.793.895h-.004l-.106.007H9v.899c0 .254-.035.496-.098.726l-.054.172h2.851c.496 0 .903.403.903.903 0 .46-.348.84-.793.89l-.004.004-.106.004H6.301c-1.16 0-1.2-1.676-.121-1.793l.226-.012a.904.904 0 0 0 .79-.785v-.004l.003-.105v-.903h-.898a.9.9 0 0 1-.895-.789v-.004L5.402 9a.9.9 0 0 1 .79-.895h.003l.106-.003h.898V6.3a2.7 2.7 0 0 1 2.535-2.696zm0 0" fill="rgb(0%,0%,0%)"/></svg>