<svg xmlns="http://www.w3.org/2000/svg" width="18" height="18"><path d="M3 0h12a3.004 3.004 0 0 1 2.996 2.824L18 3v12a3.004 3.004 0 0 1-2.824 2.996L15 18H3a3.005 3.005 0 0 1-2.996-2.816v-.008L0 15V3A3.004 3.004 0 0 1 2.824.004zM2 15c0 .512.387.938.883.992L3 16h12c.512 0 .934-.387.992-.883L16 15v-4h-1.586L12 13.414c-.332.332-.77.54-1.238.578l-.176.008H7.414c-.492 0-.941-.176-1.289-.469l.004.004-.129-.12L3.586 11H2zM15 2H3c-.512 0-.934.387-.992.883L2 3v6h1.586c.473 0 .926.168 1.285.469L5 9.586 7.414 12h3.172L13 9.586c.332-.332.77-.54 1.238-.578L14.414 9H16V3a1 1 0 0 0-1-1zm0 0" fill="rgb(0%,0%,0%)"/></svg>