<svg xmlns="http://www.w3.org/2000/svg" width="18" height="18"><path d="M6.3 0h5.4a2.7 2.7 0 0 1 2.695 2.535v.008l.003.156v2.7h.903a2.703 2.703 0 0 1 2.695 2.535v.007l.004.16V11.7a2.7 2.7 0 0 1-2.535 2.696h-.008l-.156.003h-.903v.903a2.7 2.7 0 0 1-2.53 2.695h-.009L11.7 18H6.301a2.7 2.7 0 0 1-2.696-2.535v-.008l-.003-.156v-.903h-.903a2.7 2.7 0 0 1-2.695-2.53v-.009L0 11.7V8.102a2.7 2.7 0 0 1 2.535-2.696h.008l.156-.008h.903V2.7A2.7 2.7 0 0 1 6.132.004h.009zm5.4 10.8H6.3a.9.9 0 0 0-.894.79v.004l-.008.105v3.602c0 .46.348.84.793.89l.004.004.106.004h5.398a.9.9 0 0 0 .895-.789v-.004l.008-.105v-3.602a.902.902 0 0 0-.903-.898zm3.6-3.6H2.7c-.462 0-.84.347-.891.792l-.004.004-.004.106v3.597a.9.9 0 0 0 .789.895h.004l.105.008h.903v-.903a2.7 2.7 0 0 1 2.53-2.695h.009L6.3 9h5.398a2.7 2.7 0 0 1 2.696 2.535v.008l.003.156v.903h.903c.46 0 .84-.348.89-.793l.004-.004.004-.106V8.102a.9.9 0 0 0-.898-.903zm-3.6-5.4H6.3a.9.9 0 0 0-.894.79v.004l-.008.105v2.7h7.204v-2.7c0-.46-.348-.84-.793-.89l-.004-.004zm0 0" fill="rgb(0%,0%,0%)"/></svg>