<svg xmlns="http://www.w3.org/2000/svg" width="18" height="18"><path d="M9 0a9 9 0 0 1 8.996 8.746L18 9v1.352a3.15 3.15 0 0 1-5.75 1.777l-.008-.012A4.488 4.488 0 0 1 9 13.5a4.501 4.501 0 1 1 4.496-4.703v.008L13.5 9v1.352a1.349 1.349 0 0 0 2.691.132l.004-.004.004-.128V9c0-3.977-3.222-7.2-7.199-7.2A7.199 7.199 0 0 0 1.8 9a7.197 7.197 0 0 0 6.977 7.195l.235.008a7.15 7.15 0 0 0 3.62-.984l-.03.015a.896.896 0 0 1 1.347.782c0 .332-.18.62-.445.777H13.5a8.837 8.837 0 0 1-4.148 1.203h-.016L9 18c-4.973 0-9-4.027-9-9s4.027-9 9-9zm0 6.3A2.697 2.697 0 0 0 6.3 9c0 1.492 1.208 2.7 2.7 2.7 1.492 0 2.7-1.208 2.7-2.7 0-1.492-1.208-2.7-2.7-2.7zm0 0" fill="rgb(0%,0%,0%)"/></svg>