<svg xmlns="http://www.w3.org/2000/svg" width="18" height="16"><path d="M2.867 12.176H1.81c-1 0-1.809-.817-1.809-1.82V6.714c0-1.008.809-1.82 1.809-1.82h1.058L6.855.875C7.992-.273 9.937.539 9.937 2.165v12.741c0 1.621-1.945 2.434-3.082 1.285zM3.88 10.62l4.254 4.285V2.164L3.879 6.445a.905.905 0 0 1-.637.27H1.81v3.64h1.433c.246 0 .473.102.637.266zm10.312-4.55l1.168 1.175 1.168-1.176a.89.89 0 0 1 .641-.27.914.914 0 1 1 .71 1.473l.005-.003-.074.085-1.168 1.18 1.168 1.176a.919.919 0 0 1 .07 1.203h.004l-.074.086a.903.903 0 0 1-1.196.074L16.527 11 15.36 9.824 14.191 11a.903.903 0 0 1-1.543-.645c0-.21.07-.406.192-.562v.004l.074-.086 1.168-1.176-1.168-1.18a.903.903 0 0 1-.266-.64c0-.215.07-.406.192-.563v.004l.074-.086a.905.905 0 0 1 .637-.27.91.91 0 0 1 .469.134l-.004-.004.09.062zm0 0" fill="rgb(0%,0%,0%)"/></svg>