<svg xmlns="http://www.w3.org/2000/svg" width="18" height="18"><path d="M9 0c4.973 0 9 4.027 9 9s-4.027 9-9 9l-.254-.004A9 9 0 0 1 0 9l.004-.254A8.994 8.994 0 0 1 8.746.004zm1.781 9.902H7.22c.14 3.457 1.062 6.153 1.726 6.293L9 16.2l.05-.004c.669-.133 1.59-2.832 1.731-6.293zm-5.367 0H1.855a7.21 7.21 0 0 0 4.66 5.856c-.64-1.461-1.023-3.531-1.1-5.856zm10.73 0h-3.558c-.078 2.328-.461 4.395-1.102 5.856a7.199 7.199 0 0 0 4.66-5.856zM6.517 2.238l-.07.028a7.214 7.214 0 0 0-4.59 5.836h3.558c.078-2.329.461-4.399 1.102-5.864zM9 1.801l-.05.004c-.669.133-1.59 2.832-1.731 6.293l3.562.004c-.14-3.461-1.058-6.157-1.726-6.297zm2.484.441l.051.113c.61 1.458.973 3.477 1.05 5.747h3.56a7.204 7.204 0 0 0-4.66-5.86zm0 0" fill="rgb(0%,0%,0%)"/></svg>