<svg xmlns="http://www.w3.org/2000/svg" width="18" height="18"><path d="M6.617 1.875l.047-.164c.715-2.336 4.125-2.281 4.719.164.07.285.328.496.633.496a.629.629 0 0 0 .34-.098v.004c2.195-1.34 4.707 1.172 3.367 3.368a.654.654 0 0 0 .398.973h.004c2.5.605 2.5 4.16 0 4.765a.653.653 0 0 0-.398.976l-.004-.004c1.34 2.196-1.172 4.707-3.368 3.372a.629.629 0 0 0-.34-.098.654.654 0 0 0-.632.492v.008c-.61 2.496-4.16 2.496-4.766 0a.656.656 0 0 0-.633-.5.642.642 0 0 0-.343.098l.004-.004c-2.196 1.34-4.707-1.172-3.372-3.368a.629.629 0 0 0 .098-.34.653.653 0 0 0-.496-.632h-.004c-2.496-.606-2.496-4.16 0-4.766a.652.652 0 0 0 .402-.976v.004C.937 3.449 3.45.938 5.645 2.273a.65.65 0 0 0 .972-.402zm1.707.57a2.452 2.452 0 0 1-3.617 1.368c-.582-.356-1.25.312-.894.894a2.454 2.454 0 0 1-1.516 3.66c-.664.16-.664 1.106 0 1.266a2.454 2.454 0 0 1 1.515 3.66c-.355.582.313 1.25.895.895a2.454 2.454 0 0 1 3.66 1.515c.16.664 1.106.664 1.266 0a2.454 2.454 0 0 1 3.66-1.515c.582.355 1.25-.313.895-.895a2.454 2.454 0 0 1 1.515-3.66c.664-.16.664-1.106 0-1.266a2.454 2.454 0 0 1-1.515-3.66c.355-.582-.313-1.25-.895-.894a2.454 2.454 0 0 1-3.66-1.516c-.153-.629-1.008-.66-1.235-.098l-.03.098zm0 0" fill="rgb(0%,0%,0%)"/><path d="M12.602 9a3.603 3.603 0 0 1-7.204 0 3.603 3.603 0 0 1 7.204 0zM10.8 9c0-.992-.809-1.8-1.801-1.8-.992 0-1.8.808-1.8 1.8s.808 1.8 1.8 1.8 1.8-.808 1.8-1.8zm0 0" fill="rgb(0%,0%,0%)"/></svg>