<svg xmlns="http://www.w3.org/2000/svg" width="18" height="16"><path d="M15.36.34a2.722 2.722 0 0 1 2.71 2.73v7.285a2.722 2.722 0 0 1-2.71 2.73h-2.337l-3.347 3.372a.907.907 0 0 1-.64.27.907.907 0 0 1-.641-.27l-3.348-3.371H2.71A2.722 2.722 0 0 1 0 10.356V3.07A2.722 2.722 0 0 1 2.71.34zm0 1.82H2.71c-.5 0-.901.41-.901.91v7.285c0 .5.402.91.902.91h2.71c.25 0 .477.102.638.266l2.976 2.996 2.977-2.996a.887.887 0 0 1 .636-.265h2.711c.5 0 .903-.41.903-.91V3.07c0-.5-.403-.91-.903-.91zM4.515 7.621h3.617a.91.91 0 0 1 .902.914.908.908 0 0 1-.793.902h-.004l-.105.008H4.516a.91.91 0 0 1-.903-.91.91.91 0 0 1 .793-.906h.008zm0-3.64h9.039a.91.91 0 0 1 .902.914.908.908 0 0 1-.793.902h-.004l-.105.008h-9.04a.91.91 0 0 1-.902-.91.91.91 0 0 1 .793-.907h.008zm0 0" fill="rgb(0%,0%,0%)"/></svg>