<svg xmlns="http://www.w3.org/2000/svg" width="18" height="14"><path d="M1.012 12.57h16.156c.559 0 1.012.461 1.012 1.024 0 .523-.39.953-.89 1.011l-.005.004-.117.004H1.012h-.004A1.015 1.015 0 0 1 0 13.593c0-.523.387-.952.887-1.015H.89zm0-4.082h16.156c.559 0 1.012.457 1.012 1.02 0 .523-.39.953-.89 1.015h-.005l-.117.008H1.012h-.004A1.016 1.016 0 0 1 0 9.508c0-.52.387-.953.887-1.012H.89zm16.156-4.086c.559 0 1.012.457 1.012 1.024 0 .52-.39.953-.89 1.011h-.005l-.117.008H1.012h-.004A1.015 1.015 0 0 1 0 5.425c0-.523.387-.952.887-1.015H.89l.12-.008zm0-4.082c.559 0 1.012.457 1.012 1.02 0 .523-.39.953-.89 1.015h-.005l-.117.008H1.012h-.004A1.016 1.016 0 0 1 0 1.34C0 .82.387.387.887.328H.89L1.01.32zm0 0" fill="rgb(0%,0%,0%)"/></svg>