<svg xmlns="http://www.w3.org/2000/svg" width="18" height="18"><path d="M17 12c.512 0 .934.387.992.883L18 13v1c0 2.14-1.68 3.887-3.79 3.992l-.01.004L14 18H4a4.002 4.002 0 0 1-3.996-3.793v-.008L0 14v-1a1 1 0 0 1 1.992-.121v.004L2 13v1c0 1.055.816 1.918 1.852 1.992L4 16h10a2.003 2.003 0 0 0 1.996-1.852L16 14v-1a1 1 0 0 1 1-1zM8.883.008L9 0c.512 0 .934.387.992.883L10 1v9.586l2.293-2.293a1.002 1.002 0 0 1 1.496 1.32l-.082.094-4 4a.818.818 0 0 1-.11.094l-.003.004-.11.07-.113.055-.105.035-.09.02-.117.011H8.94l-.07-.004-.105-.02-.106-.034-.082-.032-.098-.054-.097-.067-.09-.078-4-4a1 1 0 0 1 1.324-1.496h-.004l.094.082L8 10.586V1c0-.512.387-.938.883-.992zm0 0" fill="rgb(0%,0%,0%)"/></svg>