<svg xmlns="http://www.w3.org/2000/svg" width="18" height="18"><path d="M9.602.457C4.562.457.457 4.563.457 9.602s4.106 9.14 9.145 9.14 9.14-4.101 9.14-9.14c0-5.04-4.101-9.145-9.14-9.145zm0 1.828a7.3 7.3 0 0 1 7.312 7.317 7.297 7.297 0 0 1-7.312 7.312h-.016c-4.031 0-7.3-3.27-7.3-7.3v-.016.004a7.304 7.304 0 0 1 7.316-7.317zm0 1.828c-1.887 0-3.579.867-4.278 2.356a.894.894 0 0 0-.09.386c0 .364.211.676.516.825h.004l.008.004a.915.915 0 0 0 1.21-.43l.005-.004v-.004c.304-.644 1.324-1.305 2.62-1.305.829 0 1.555.258 2.04.622.48.359.707.78.707 1.207 0 .722-.739 1.515-2.008 1.757-.867.168-1.652.895-1.652 1.899a.915.915 0 0 0 1.828 0c0-.004.043-.078.168-.102 1.89-.363 3.488-1.719 3.488-3.554 0-1.086-.594-2.043-1.434-2.672-.84-.63-1.941-.985-3.136-.985zm0 9.145a.913.913 0 0 0-.915.914c0 .504.407.914.915.914h.007a.915.915 0 0 0 0-1.828zm0 0" fill="rgb(0%,0%,0%)"/></svg>