<svg xmlns="http://www.w3.org/2000/svg" width="18" height="15"><path d="M13.375 2.133c-1.2 0-2.328.281-3.227.777v10.246a8.823 8.823 0 0 1 3.227-.594c1.02 0 2.004.165 2.898.473l.332.121V2.91l-.23-.12c-.86-.419-1.898-.657-3-.657zm-8.3 0c-1.102 0-2.141.238-3 .656l-.231.121v10.246l.332-.12c.855-.302 1.84-.473 2.863-.473h.035a8.86 8.86 0 0 1 3.23.593V2.91c-.898-.496-2.03-.777-3.23-.777zm4.112 13.512l-.113-.012-.09-.02-.093-.031-.055-.023-.106-.059-.015-.012c-.953-.652-2.25-1.031-3.64-1.031-1.395 0-2.688.379-3.641 1.031-.586.399-1.356.008-1.43-.683L0 14.699V2.371a.94.94 0 0 1 .41-.785v-.004C1.676.719 3.328.234 5.074.234c1.52 0 2.969.368 4.153 1.032C10.41.602 11.859.234 13.375.234c1.746 0 3.398.485 4.664 1.348a.953.953 0 0 1 .402.672l.008.117V14.7c0 .754-.82 1.207-1.433.79-.953-.653-2.246-1.028-3.641-1.028-1.293 0-2.5.324-3.43.89l-.277.18-.09.043-.098.035-.082.02-.105.016zm0 0" fill="rgb(0%,0%,0%)"/></svg>