<svg xmlns="http://www.w3.org/2000/svg" width="18" height="11"><path d="M.266.508A.885.885 0 0 1 .902.234c.211 0 .403.075.559.2L1.457.43l.086.078 4.781 4.969 2.977-3.09a.892.892 0 0 1 .636-.274c.211 0 .403.075.56.196h-.005l.086.078 5.688 5.906V3.051c0-.48.343-.875.793-.934h.003l.106-.004c.46 0 .844.36.895.825l.003.003.004.11v7.578l-.015.117-.028.106-.039.105-.047.09-.062.09-.07.086-.102.09-.102.07-.101.047-.094.035-.137.027-.105.008H9.941c-.5 0-.906-.422-.906-.941 0-.477.348-.875.793-.93h.008l.105-.008h5.043L9.941 4.38l-2.976 3.09a.876.876 0 0 1-1.195.078h.003l-.085-.078L.266 1.836A.946.946 0 0 1 0 1.172C0 .914.102.68.266.512zm0 0" fill="rgb(0%,0%,0%)"/></svg>