<svg xmlns="http://www.w3.org/2000/svg" width="18" height="18"><path d="M9 0c4.973 0 9 4.027 9 9a9 9 0 0 1-5.75 8.395l-.258.097c-.89.32-1.914.508-2.984.508H9c-.34 0-.676-.02-1.004-.055l.102.004c-.036 0-.075 0-.11-.004h.004A9.003 9.003 0 0 1 0 9c0-4.973 4.027-9 9-9zM4.508 3.371l-.059.047a7.236 7.236 0 0 0-2.41 3.734l-.012.047H2.7a2.7 2.7 0 0 1 2.696 2.535v.008l.003.156v.903c0 .496.407.898.903.898a2.703 2.703 0 0 1 2.695 2.535v.008l.004.156V16.2c.621 0 1.227-.078 1.8-.226v-1.575a2.705 2.705 0 0 1 2.536-2.695h.004l.16-.004h2.176c.34-.832.523-1.742.523-2.699 0-.957-.183-1.867-.523-2.7H15.3a.9.9 0 0 0-.895.79v.004l-.011.265a2.698 2.698 0 0 1-2.696 2.543A2.697 2.697 0 0 1 9 7.203V7.2c0-.46-.344-.84-.79-.89l-.003-.004-.105-.004h-.454a3.147 3.147 0 0 1-3.12-2.746l-.005-.016zm2.691 11.027a.899.899 0 0 0-.789-.89h-.004l-.265-.012a2.7 2.7 0 0 1-2.536-2.531v-.008l-.003-.156v-.903a.902.902 0 0 0-.793-.89h-.004L2.699 9h-.898a7.209 7.209 0 0 0 5.18 6.914l.218.059zm7.422-.898H13.5a.9.9 0 0 0-.895.79v.003l-.003.105v.84a7.332 7.332 0 0 0 2.007-1.722zM9 1.8a7.13 7.13 0 0 0-2.7.524v.824c0 .704.532 1.278 1.216 1.344h.004l.128.008h.454a2.705 2.705 0 0 1 2.695 2.535v.008l.008.262c.054.449.433.797.894.797a.905.905 0 0 0 .903-.903c0-1.27.875-2.336 2.058-2.625l.016-.004A7.178 7.178 0 0 0 9.008 1.8H9zm0 0" fill="rgb(0%,0%,0%)"/></svg>