<svg xmlns="http://www.w3.org/2000/svg" width="18" height="18"><path d="M12.816 5.184A5.362 5.362 0 0 1 14.398 9c0 1.492-.601 2.84-1.582 3.816l-.492.493a2.131 2.131 0 0 0-.625 1.511v.48C11.7 16.794 10.492 18 9 18a2.697 2.697 0 0 1-2.7-2.7v-.48a2.15 2.15 0 0 0-.624-1.511l-.492-.493-.16-.164A5.37 5.37 0 0 1 3.601 9c0-1.492.601-2.84 1.582-3.82a5.406 5.406 0 0 1 7.636 0zm-2.894 9.218H8.078c.016.137.024.278.024.422v.477a.899.899 0 0 0 1.796 0v-.477c0-.144.008-.285.024-.422zM6.453 6.453A3.61 3.61 0 0 0 5.398 9c0 .992.403 1.895 1.055 2.547l.492.492c.176.172.332.36.47.563h3.17c.138-.204.294-.391.47-.563l.492-.492A3.603 3.603 0 0 0 9 5.398a3.61 3.61 0 0 0-2.547 1.055zm10.649 1.649a.9.9 0 1 1 .11 1.793h-.005l-.105.003h-.903a.9.9 0 1 1-.11-1.793h.005l.105-.003zm-15.301 0a.9.9 0 1 1 .11 1.793h-.005l-.105.003H.898a.9.9 0 1 1-.11-1.793h.005l.105-.003zm13.562-5.465a.894.894 0 0 1 .075 1.187h.003l-.078.086-.636.633a.899.899 0 0 1-1.344-1.188h-.004l.078-.085.633-.637a.914.914 0 0 1 .637-.262.9.9 0 0 1 .636.262zm-11.453 0l.637.636a.9.9 0 0 1-1.192 1.344v.004l-.082-.074-.636-.637A.899.899 0 0 1 3.735 2.5H3.73l.094.063zM9 0a.9.9 0 0 1 .895.79v.003l.003.105v.903a.9.9 0 1 1-1.793.11v-.005l-.003-.105V.898C8.102.402 8.504 0 9 0zm0 0" fill="rgb(0%,0%,0%)"/></svg>