<svg xmlns="http://www.w3.org/2000/svg" width="18" height="18"><path d="M11.7 9.898a6.303 6.303 0 0 1 6.296 6.086L18 16.2v.903a.899.899 0 0 1-.79.89h-.003l-.105.008H.898A.899.899 0 0 1 0 17.102v-.903a6.3 6.3 0 0 1 9-5.691 6.269 6.269 0 0 1 2.7-.61zm0 1.801a4.58 4.58 0 0 0-.9.09 6.262 6.262 0 0 1 1.802 4.402v.008h3.597c0-2.484-2.015-4.5-4.5-4.5zm-5.4 0a4.501 4.501 0 0 0-4.5 4.5h9c0-2.484-2.015-4.5-4.5-4.5zM11.7 0a4.501 4.501 0 0 1 0 9c-1.02 0-1.958-.34-2.712-.91L9 8.102A4.499 4.499 0 0 1 1.8 4.5 4.499 4.499 0 0 1 9.013.91L9 .898A4.479 4.479 0 0 1 11.695 0h.004zm0 1.8a2.69 2.69 0 0 0-1.5.454c.378.64.6 1.414.6 2.238v.016c0 .824-.222 1.594-.613 2.258l.012-.02a2.7 2.7 0 1 0 1.5-4.945zm-5.4 0a2.697 2.697 0 0 0-2.698 2.7c0 1.492 1.207 2.7 2.699 2.7C7.793 7.2 9 5.991 9 4.5c0-1.492-1.207-2.7-2.7-2.7zm0 0" fill="rgb(0%,0%,0%)"/></svg>