<svg xmlns="http://www.w3.org/2000/svg" width="18" height="18"><path d="M7.227 2c.57 0 1.03.45 1.03 1 0 .512-.394.934-.905.992h-.004L7.227 4h-4.13c-.53 0-.964.387-1.023.883L2.066 5v10c0 .512.399.938.91.992l.122.008h10.32c.531 0 .969-.387 1.027-.883l.008-.117v-4c0-.55.461-1 1.031-1 .528 0 .965.383 1.024.879l.004.004.004.117v4c0 1.598-1.29 2.902-2.914 2.996l-.18.004H3.098c-1.645 0-2.993-1.246-3.09-2.816v-.008L0 15V5c0-1.598 1.29-2.902 2.914-2.996L3.098 2zM11.234.008L11.355 0l6.27.004.129.016.117.03.113.044.102.05.098.067.093.082.102.113.07.11.059.113.035.105.031.149.004.117v6c0 .555-.46 1-1.031 1a1.02 1.02 0 0 1-1.024-.879v-.004L16.516 7V3.414l-8.563 8.293a1.023 1.023 0 0 1-.73.293c-.239 0-.457-.078-.633-.21l.004.003-.098-.086a.971.971 0 0 1-.086-1.32l.086-.094L15.055 2H11.352c-.57 0-1.032-.445-1.032-1 0-.512.399-.934.907-.992zm0 0" fill="rgb(0%,0%,0%)"/></svg>