<svg xmlns="http://www.w3.org/2000/svg" width="17" height="14"><path d="M2.574.11h12.02c1.367 0 2.488 1.109 2.57 2.503v.008l.004.156v8.895c0 1.418-1.07 2.578-2.418 2.664h-.008l-.148.004H2.574c-1.367 0-2.488-1.106-2.57-2.504v-.008L0 11.672V2.777C0 1.36 1.07.2 2.418.117h.008zM15.45 5.327l-5.437 3.758a2.501 2.501 0 0 1-2.715.094l.015.008-.156-.102L1.72 5.328v6.344c0 .453.328.832.754.883h.004l.097.008h12.02c.437 0 .8-.34.851-.782v-.004l.008-.105v-6.34zm-.855-3.437H2.574c-.437 0-.8.34-.851.78v.005l-.008.101v.414l6.394 4.414a.822.822 0 0 0 .856.06H8.96l.098-.06 6.39-4.414v-.414a.88.88 0 0 0-.754-.882h-.004zm0 0" fill="rgb(0%,0%,0%)"/></svg>