<svg xmlns="http://www.w3.org/2000/svg" width="18" height="18"><path d="M5.559.945c.558 0 1.011.43 1.011.95 0 .484-.386.886-.89.937h-.004l-.117.008H3.535c-.515 0-.945.37-1.004.836l-.004.113v5.688H4.13c.48 0 .937.152 1.297.437l.133.117 2.437 2.285h3.207l2.442-2.285a2.013 2.013 0 0 1 1.242-.55h.008l.175-.004h1.606V3.789c0-.488-.39-.89-.895-.945l-.117-.004h-2.02-.003c-.559 0-1.012-.426-1.012-.945 0-.485.39-.887.89-.938l.008-.004.118-.008h2.02c1.612 0 2.929 1.18 3.026 2.668v.012l.004.164V15.16c0 1.508-1.258 2.746-2.843 2.832l-.008.004-.18.004H3.54C1.926 18 .61 16.82.512 15.332v-.008l-.008-.164V3.79c0-1.513 1.258-2.747 2.848-2.837h.007l.18-.008zM2.527 15.16c0 .48.395.883.891.938l.117.007h12.13c.519 0 .944-.367 1.003-.835l.008-.11v-3.789H15.07l-2.437 2.285a2.086 2.086 0 0 1-1.246.547h-.008l-.176.008H7.996c-.476 0-.934-.16-1.297-.441l-.133-.114-2.437-2.285H2.527zm7.16-5.687h-.171l-.118-.02-.113-.027-.113-.043-.098-.047-.105-.07-.082-.07-3.032-2.844a.893.893 0 0 1-.3-.668c0-.528.453-.95 1.011-.95.235 0 .454.075.625.204h-.003l.093.074 1.309 1.23V.945.941c0-.52.453-.945 1.012-.945.515 0 .941.367 1 .836l.003.004.004.11v5.296l1.313-1.23a1.059 1.059 0 0 1 1.328-.074l.098.074c.363.343.39.879.082 1.254l-.082.086-3.078 2.882-.067.055-.11.066-.116.051-.11.031-.117.028a.342.342 0 0 1-.063.008zm0 0" fill="rgb(0%,0%,0%)"/></svg>