<svg xmlns="http://www.w3.org/2000/svg" width="18" height="18"><path d="M2.055 9.875A7.003 7.003 0 0 0 14.746 13H12c-.555 0-1-.445-1-1 0-.512.383-.934.879-.992h.004L12 11h5c.512 0 .934.387.992.883L18 12v5a1 1 0 0 1-1.992.121v-.004L16 17v-2.34C14.336 16.703 11.82 18 9.004 18H9a9.002 9.002 0 0 1-8.93-7.875 1.002 1.002 0 0 1 1.984-.254zM9 0a9.002 9.002 0 0 1 8.93 7.875 1.002 1.002 0 0 1-1.984.254v-.004A7.003 7.003 0 0 0 9 2h-.004a6.999 6.999 0 0 0-5.73 2.977L3.254 5H6c.555 0 1 .445 1 1a.998.998 0 0 1-.879.992h-.004L6 7H1a.997.997 0 0 1-.992-.883L0 6V1A1 1 0 0 1 1.992.879v.004L2 1v2.34A8.986 8.986 0 0 1 8.996 0H9zm0 0" fill="rgb(0%,0%,0%)"/></svg>