<svg xmlns="http://www.w3.org/2000/svg" width="18" height="18"><path d="M9 0c4.973 0 9 4.027 9 9s-4.027 9-9 9-9-4.027-9-9 4.027-9 9-9zm0 1.8A7.199 7.199 0 0 0 1.8 9c0 3.977 3.223 7.2 7.2 7.2 3.977 0 7.2-3.223 7.2-7.2 0-3.977-3.223-7.2-7.2-7.2zm0 3.598c.46 0 .84.348.895.793v.004l.003.106v1.8H11.7a.9.9 0 0 1 .895.79v.004l.008.105c0 .46-.348.84-.793.895h-.004l-.106.003H9.9V11.7a.902.902 0 0 1-.899.903.903.903 0 0 1-.895-.793v-.004l-.003-.106V9.9H6.3a.9.9 0 0 1-.895-.79v-.004L5.398 9c0-.46.348-.84.793-.895h.004l.106-.003h1.8V6.3c0-.496.403-.903.899-.903zm0 0" fill="rgb(0%,0%,0%)"/></svg>