<svg xmlns="http://www.w3.org/2000/svg" width="18" height="18"><path d="M11 12a1 1 0 0 1 .121 1.992h-.004L11 14h-1v3c0 .555-.445 1-1 1a.998.998 0 0 1-.992-.879v-.004L8 17v-4c0-.512.387-.934.883-.992L9 12zm6 4a1 1 0 0 1 .121 1.992h-.004L17 18h-4a1 1 0 0 1-.121-1.992h.004L13 16zM2 12h2c1.055 0 1.918.816 1.996 1.852L6 14v2a2.003 2.003 0 0 1-1.852 1.996L4 18H2a1.998 1.998 0 0 1-1.992-1.844v-.008L0 16v-2c0-1.055.816-1.918 1.852-1.996zm2 2H2v2h2zm13-2a1 1 0 0 1 .121 1.992h-.004L17 14h-2a1 1 0 0 1-.121-1.992h.004L15 12zM9 5c.512 0 .934.387.992.883L10 6v2h3.012c.511 0 .933.387.992.883l.008.117c0 .512-.387.934-.883.992l-.117.008H9a.997.997 0 0 1-.992-.883L8 9V6c0-.55.45-1 1-1zM5 8a1 1 0 0 1 .121 1.992h-.004L5 10H1c-.55 0-1-.45-1-1 0-.512.383-.934.879-.992h.004L1 8zM4 0c1.055 0 1.918.816 1.996 1.852L6 2v2a2.003 2.003 0 0 1-1.852 1.996L4 6H2A1.998 1.998 0 0 1 .008 4.156l-.004-.008L0 4V2C0 .945.816.082 1.852.004L2 0zm10 0h2c1.055 0 1.918.816 1.996 1.852L18 2v2a2.003 2.003 0 0 1-1.852 1.996L16 6h-2a1.998 1.998 0 0 1-1.992-1.844v-.008L12 4V2c0-1.055.816-1.918 1.852-1.996zM4 2H2v2h2zm12 0h-2v2h2zM9 0c.512 0 .934.387.992.883L10 1v1a1 1 0 0 1-1.992.121v-.004L8 2V1c0-.55.45-1 1-1zm0 0" fill="rgb(0%,0%,0%)"/></svg>