<svg xmlns="http://www.w3.org/2000/svg" width="14" height="17"><path d="M7.691 0c.497 0 .942.191 1.27.496l4.851 4.602c.333.32.524.754.524 1.207v8.144c0 1.41-1.203 2.551-2.688 2.551h-8.96C1.202 17 0 15.86 0 14.45V2.55C0 1.14 1.203 0 2.688 0zm0 1.7H2.688c-.493 0-.895.382-.895.85v11.9c0 .468.402.85.895.85h8.96c.497 0 .895-.382.895-.85V6.304zM6.637 12.581l-.059-.043-.043-.039-2.687-2.547a.83.83 0 0 1-.266-.605c0-.465.402-.848.895-.848.21 0 .402.066.554.18h-.004l.086.07L6.27 9.848V6.8c0-.434.347-.793.789-.844h.003l.106-.008c.457 0 .836.328.89.746v.008l.005.098v3.043l1.16-1.094a.912.912 0 0 1 .632-.25.92.92 0 0 1 .551.18v-.004l.082.074a.812.812 0 0 1 .075 1.121v-.004l-.07.082-2.618 2.473-.074.078-.098.082-.101.063-.102.043-.094.03-.105.02-.09.008h-.149l-.105-.02-.098-.027-.07-.031-.086-.043zm0 0" fill="rgb(0%,0%,0%)"/></svg>