<svg xmlns="http://www.w3.org/2000/svg" width="14" height="17"><path d="M7.691 0c.497 0 .942.191 1.27.496l4.851 4.602c.333.32.524.754.524 1.207v8.144c0 1.41-1.203 2.551-2.688 2.551h-8.96C1.202 17 0 15.86 0 14.45V2.55C0 1.14 1.203 0 2.688 0zm0 1.7H2.688c-.493 0-.895.382-.895.85v11.9c0 .468.402.85.895.85h8.96c.497 0 .895-.382.895-.85V6.304zm-.628 4.257l.105-.008c.457 0 .836.328.89.746v.008l.005.098V8.5h1.792c.461 0 .836.328.891.746v.004l.008.098c0 .437-.344.797-.79.847h-.003l-.106.004H8.062v1.703c0 .434-.343.79-.785.844h-.004l-.105.004c-.457 0-.836-.328-.887-.746L6.277 12l-.007-.098V10.2H4.48c-.457 0-.835-.324-.89-.746V9.45l-.004-.101c0-.434.344-.79.785-.844h.004L4.48 8.5h1.79V6.8c0-.433.347-.792.789-.843zm0 0" fill="rgb(0%,0%,0%)"/></svg>