<svg xmlns="http://www.w3.org/2000/svg" width="18" height="18"><path d="M7.2 0c3.976 0 7.198 3.223 7.198 7.2a7.155 7.155 0 0 1-1.511 4.413l4.847 4.852a.899.899 0 0 1-1.188 1.344v.003l-.085-.078-4.848-4.847a7.104 7.104 0 0 1-4.402 1.511h-.012A7.199 7.199 0 0 1 0 7.2C0 3.223 3.223 0 7.2 0zm0 1.8a5.4 5.4 0 1 0 .004 10.8 5.4 5.4 0 0 0-.005-10.8zm0 0" fill="rgb(0%,0%,0%)"/><path d="M7.2 3.602a.9.9 0 0 1 .894.789v.004l.008.105v1.8h1.796a.9.9 0 0 1 .895.79v.004l.008.105a.9.9 0 0 1-.793.895h-.004l-.106.008H8.102v1.796c0 .5-.407.903-.903.903a.893.893 0 0 1-.89-.793l-.004-.004-.004-.106V8.102H4.5a.903.903 0 0 1-.895-.793v-.004l-.003-.106c0-.46.343-.84.789-.89l.004-.004L4.5 6.3h1.8V4.5c0-.496.403-.898.9-.898zm0 0" fill="rgb(0%,0%,0%)"/></svg>