<svg xmlns="http://www.w3.org/2000/svg" width="18" height="14"><path d="M10.098 12.57h7.07c.559 0 1.012.461 1.012 1.024 0 .523-.39.953-.89 1.011l-.005.004-.117.004h-7.07a1.013 1.013 0 0 1-1.008-1.02c0-.523.387-.952.887-1.015h.003zM1.012 6.445h16.156c.559 0 1.012.457 1.012 1.02 0 .523-.39.953-.89 1.015h-.005l-.117.008H1.012h-.004A1.015 1.015 0 0 1 0 7.468c0-.523.387-.952.887-1.015H.89zm0-6.125h16.156c.559 0 1.012.457 1.012 1.02 0 .523-.39.953-.89 1.015h-.005l-.117.008H1.012h-.004A1.016 1.016 0 0 1 0 1.34C0 .82.387.387.887.328H.89zm0 0" fill="rgb(0%,0%,0%)"/></svg>