<svg xmlns="http://www.w3.org/2000/svg" width="18" height="18"><path d="M1.36 10.652l3.718-3.718c.84-.84 2-1.36 3.281-1.36 1.286 0 2.446.52 3.286 1.36a.926.926 0 0 1-.656 1.586.927.927 0 0 1-.657-.27 2.759 2.759 0 0 0-1.969-.816c-.707 0-1.351.261-1.84.691l-.132.125-3.715 3.715a2.768 2.768 0 0 0-.817 1.973 2.784 2.784 0 0 0 4.625 2.09v.003l.133-.125 1.024-1.023a.93.93 0 0 1 1.387 1.23l.003-.004-.078.09-1.023 1.024c-.84.84-2 1.355-3.282 1.355a4.643 4.643 0 0 1-4.644-4.644c0-1.2.453-2.293 1.2-3.118v.004zm8.269-8.27l1.023-1.023c.84-.84 2-1.355 3.282-1.355a4.643 4.643 0 0 1 3.441 7.762l.004-.004-.16.168-3.715 3.715c-.84.843-2 1.363-3.285 1.363a4.63 4.63 0 0 1-3.285-1.363.929.929 0 0 1 1.316-1.313c.504.504 1.2.816 1.969.816.707 0 1.351-.261 1.84-.691h-.004l.136-.125 3.715-3.715a2.784 2.784 0 0 0 .817-1.972 2.784 2.784 0 0 0-2.785-2.786c-.708 0-1.352.262-1.844.692h.004l-.133.125-1.02 1.02a.93.93 0 0 1-1.59-.656c0-.216.075-.415.2-.571H9.55zm0 0" fill="rgb(0%,0%,0%)"/></svg>