<svg xmlns="http://www.w3.org/2000/svg" width="18" height="18"><path d="M9 0c4.973 0 9 4.027 9 9s-4.027 9-9 9-9-4.027-9-9 4.027-9 9-9zm0 1.8A7.199 7.199 0 0 0 1.8 9c0 3.977 3.223 7.2 7.2 7.2 3.977 0 7.2-3.223 7.2-7.2 0-3.977-3.223-7.2-7.2-7.2zm-.266 3.864a.894.894 0 0 1 .075 1.188h.004l-.075.085-1.164 1.165h5.028c.46 0 .84.343.89.789l.004.004L13.5 9a.9.9 0 0 1-.79.895h-.003l-.105.003H7.574l1.164 1.165c.16.164.262.39.262.636 0 .211-.07.403-.191.555l.004-.004-.075.086a.901.901 0 0 1-1.191.074h.004l-.086-.074-2.7-2.7-.085-.1-.067-.098-.027-.06-.031-.07-.024-.07-.02-.105L4.5 9.05l.004-.098.012-.11.03-.124.04-.098.047-.09.058-.082.075-.086 2.699-2.699a.894.894 0 0 1 1.273 0zm0 0" fill="rgb(0%,0%,0%)"/></svg>