<svg xmlns="http://www.w3.org/2000/svg" width="18" height="18"><path d="M8.934 5.402h.12l.063.004.094.02.098.027.074.031.086.047.094.067.074.066 2.699 2.7a.902.902 0 0 1-.633 1.54.908.908 0 0 1-.555-.193l-.085-.074-1.165-1.164v8.629a.899.899 0 0 1-.789.89h-.004L9 18a.9.9 0 0 1-.895-.79v-.003l-.003-.105v-8.63L6.937 9.638A.901.901 0 0 1 5.59 8.445v.004l.074-.086 2.7-2.699c.03-.031.066-.062.1-.09l.098-.062.102-.047.098-.035.105-.02zM9 0a5.404 5.404 0 0 1 5.09 3.586l.012.039.066.207.207.066c2.133.758 3.629 2.754 3.629 5.102a5.4 5.4 0 0 1-5.399 5.398h-.007a.899.899 0 0 1-.899-.898c0-.496.403-.902.899-.902h.007A3.596 3.596 0 0 0 16.203 9a3.594 3.594 0 0 0-2.922-3.535l-.02-.004a.908.908 0 0 1-.722-.719v-.004A3.607 3.607 0 0 0 9 1.801a3.598 3.598 0 0 0-3.535 2.914l-.004.023a.899.899 0 0 1-.719.719l-.004.004a3.606 3.606 0 0 0-2.933 3.535 3.6 3.6 0 0 0 3.593 3.602.9.9 0 1 1 0 1.8A5.4 5.4 0 0 1 0 9a5.401 5.401 0 0 1 3.793-5.16l.039-.012C4.527 1.594 6.578 0 9 0zm0 0" fill="rgb(0%,0%,0%)"/></svg>