<svg xmlns="http://www.w3.org/2000/svg" width="14" height="17"><path d="M7.168 0l.117.008.09.015.098.028.074.031.09.043.093.063.07.062 6.274 5.95a.817.817 0 0 1 .262.6c0 .47-.399.852-.895.852a.901.901 0 0 1-.554-.183l.004.004-.086-.075-4.742-4.492v13.246c0 .434-.344.79-.786.844H7.27L7.168 17c-.461 0-.836-.328-.89-.746v-.004l-.008-.098V2.906L1.527 7.398a.92.92 0 0 1-1.184.074h.005l-.086-.07A.84.84 0 0 1 0 6.801c0-.2.07-.38.188-.52H.183L.262 6.2 6.532.25a1 1 0 0 1 .1-.078V.168l.102-.063.098-.042.094-.032.11-.023.077-.004zm0 0" fill="rgb(0%,0%,0%)"/></svg>