<svg xmlns="http://www.w3.org/2000/svg" width="17" height="14"><path d="M3.434.11h10.3c1.836 0 3.336 1.495 3.43 3.37v.012l.004.176v7.113c0 1.903-1.441 3.457-3.254 3.555h-.008l-.172.004h-10.3c-1.836 0-3.336-1.492-3.43-3.371v-.008L0 10.78V3.668C0 1.766 1.441.211 3.254.118h.008zm12.015 6.226H1.715v4.445c0 .938.7 1.703 1.586 1.778h.004l.129.004h10.3c.903 0 1.645-.723 1.711-1.641v-.004l.004-.133zM5.15 9.004c.476 0 .859.398.859.89a.88.88 0 0 1-.754.883H5.25l-.098.004h-.859a.873.873 0 0 1-.86-.886.88.88 0 0 1 .755-.883h.003l.102-.008zm3.433 0h.86c.472 0 .859.398.859.89a.88.88 0 0 1-.754.883h-.004l-.102.004h-.855a.87.87 0 0 1-.86-.886.88.88 0 0 1 .754-.883h.004zm5.152-7.113h-10.3c-.903 0-1.645.722-1.711 1.64v.004l-.008.133v.89h13.734v-.89c0-.934-.695-1.703-1.582-1.773h-.004zm0 0" fill="rgb(0%,0%,0%)"/></svg>