<svg xmlns="http://www.w3.org/2000/svg" width="11" height="17"><path d="M.34 10.938c.21-.192.5-.313.816-.313.27 0 .516.082.715.223h-.008l.114.09 3.812 3.496 3.816-3.496c.204-.192.497-.31.813-.31.64 0 1.156.474 1.156 1.063 0 .246-.09.47-.238.649l-.094.098-4.633 4.25c-.21.19-.5.312-.82.312-.27 0-.516-.082-.71-.223l-.106-.09-4.633-4.25a1.01 1.01 0 0 1-.34-.75c0-.289.129-.554.34-.75zm0-6.376L4.973.313A1.21 1.21 0 0 1 5.789 0c.27 0 .516.082.711.223l.11.09 4.632 4.25c.203.195.332.457.332.75 0 .585-.515 1.062-1.156 1.062-.27 0-.516-.082-.711-.223h.004l-.113-.09-3.809-3.496-3.812 3.497c-.211.19-.5.308-.82.308C.52 6.371 0 5.898 0 5.31c0-.247.09-.47.246-.649zm0 0" fill="rgb(0%,0%,0%)"/></svg>