<svg xmlns="http://www.w3.org/2000/svg" width="18" height="18"><path d="M9 0c4.973 0 9 4.027 9 9s-4.027 9-9 9-9-4.027-9-9 4.027-9 9-9zm0 1.8A7.199 7.199 0 0 0 1.8 9c0 3.977 3.223 7.2 7.2 7.2 3.977 0 7.2-3.223 7.2-7.2 0-3.977-3.223-7.2-7.2-7.2zm.016 2.7h.039l.078.008.078.015.098.032.074.027.086.05.094.067.074.063 2.699 2.703a.899.899 0 0 1-1.188 1.344v.003l-.085-.078-1.165-1.16v5.028a.899.899 0 0 1-.789.89h-.004L9 13.5a.9.9 0 0 1-.895-.79v-.003l-.003-.105V7.574l-1.165 1.16a.901.901 0 0 1-1.19.075l.003.004-.086-.075a.901.901 0 0 1-.074-1.191v.004l.074-.086 2.7-2.7.1-.09.098-.062.06-.027.07-.031.07-.024.105-.02.059-.007zm0 0" fill="rgb(0%,0%,0%)"/></svg>