<svg xmlns="http://www.w3.org/2000/svg" width="14" height="17"><path d="M6.445.434c-1.117 0-1.902.77-2.297 1.726H2.891C1.43 2.16.223 3.328.223 4.746V15.11c0 1.422 1.207 2.59 2.668 2.59h8.886c1.465 0 2.668-1.168 2.668-2.59V4.746c0-1.418-1.203-2.586-2.668-2.586H10.52C10.125 1.203 9.34.434 8.223.434zm0 1.726h1.778c.5 0 .89.375.89.86 0 .488-.39.867-.89.867H6.434a.864.864 0 0 1-.875-.852V3.02c0-.485.382-.86.886-.86zM2.891 3.887h1.257c.395.953 1.18 1.726 2.297 1.726h1.778c1.117 0 1.902-.773 2.297-1.726h1.257c.5 0 .891.375.891.86v10.362c0 .489-.39.864-.89.864H2.878A.862.862 0 0 1 2 15.12V4.746c0-.484.387-.86.89-.86zm1.777 4.316a.874.874 0 0 0-.887.863c0 .477.395.864.887.864h.008a.876.876 0 0 0 .886-.864.876.876 0 0 0-.886-.863zm2.668 0a.877.877 0 0 0-.89.863c0 .477.398.864.89.864H10c.492 0 .89-.387.89-.864a.877.877 0 0 0-.89-.863zm-2.668 3.453a.874.874 0 0 0-.887.864c0 .476.395.863.887.863h.008a.876.876 0 0 0 .886-.863.876.876 0 0 0-.886-.864zm2.668 0a.877.877 0 0 0-.89.864c0 .476.398.863.89.863H10c.492 0 .89-.387.89-.863a.877.877 0 0 0-.89-.864zm0 0" fill="rgb(0%,0%,0%)"/></svg>