<svg xmlns="http://www.w3.org/2000/svg" width="18" height="18"><path d="M2.844 1.895H7.582a.946.946 0 0 1 .113 1.886h-.008l-.109.008H2.844a.947.947 0 0 0-.942.836l-.007.11v10.421c0 .489.367.887.835.942l.114.007h10.418a.947.947 0 0 0 .941-.84l.008-.109v-4.734-.004a.947.947 0 1 1 1.887-.113v.004l.007.113v4.734a2.841 2.841 0 0 1-2.668 2.836l-.007.004-.168.004H2.84a2.844 2.844 0 0 1-2.836-2.668v-.008L0 15.156V4.734a2.844 2.844 0 0 1 2.668-2.836h.008l.164-.003zM17.168.832A2.85 2.85 0 0 1 18 2.844c0 .785-.316 1.492-.832 2.008l-8.133 8.132a.948.948 0 0 1-.672.278h-2.68a.947.947 0 0 1-.949-.946v-2.68c0-.253.102-.491.278-.671L13.148.832l.137-.129A2.82 2.82 0 0 1 15.156 0c.785 0 1.496.316 2.012.832zm-2.68 1.34l-7.855 7.855v1.34h1.34l7.855-7.855a.939.939 0 0 0 .277-.668.95.95 0 0 0-.949-.95.939.939 0 0 0-.668.278zm0 0" fill="rgb(0%,0%,0%)"/></svg>