<svg xmlns="http://www.w3.org/2000/svg" width="17" height="14"><path d="M16.309 5.45v.886c.476 0 .859-.399.859-.887zm0 3.554h.859c0-.492-.387-.89-.86-.89zm-15.45 0v-.89c-.476 0-.859.398-.859.89zm0-3.555H0c0 .489.383.887.86.887zM2.574.11C1.152.11 0 1.305 0 2.777h1.715c0-.488.387-.886.86-.886zm12.02 0H2.574v1.782h12.02zm2.574 2.668c0-1.472-1.152-2.668-2.574-2.668v1.782c.472 0 .855.398.855.886zm0 2.672V2.777h-1.715V5.45zm-1.719 1.778c0-.493.387-.891.86-.891V4.559c-1.422 0-2.575 1.195-2.575 2.668zm.86.886c-.473 0-.86-.398-.86-.886h-1.715c0 1.472 1.153 2.668 2.575 2.668zm.859 3.559V9.004h-1.715v2.668zm-2.574 2.668c1.422 0 2.574-1.195 2.574-2.668h-1.715c0 .492-.387.89-.86.89zm-12.02 0h12.02v-1.777H2.574zM0 11.672c0 1.473 1.152 2.668 2.574 2.668v-1.777c-.472 0-.855-.399-.855-.891zm0-2.668v2.668h1.715V9.004zm1.715-1.777c0 .492-.383.886-.856.886v1.782c1.422 0 2.575-1.196 2.575-2.668zm-.856-.891c.473 0 .856.398.856.89h1.719C3.434 5.755 2.28 4.56.859 4.56zM0 2.777V5.45h1.715V2.777zm0 0" fill="rgb(0%,0%,0%)"/><path d="M10.3 1v1.777c0 .493.384.891.86.891.473 0 .856-.398.856-.89V1c0-.492-.383-.89-.856-.89-.476 0-.86.398-.86.89zm0 5.336v1.777c0 .492.384.89.86.89.473 0 .856-.398.856-.89V6.336c0-.492-.383-.887-.856-.887a.87.87 0 0 0-.86.887zm0 5.336v1.777c0 .492.384.89.86.89.473 0 .856-.398.856-.89v-1.777c0-.492-.383-.89-.856-.89-.476 0-.86.398-.86.89zm0 0" fill="rgb(0%,0%,0%)"/></svg>