<svg xmlns="http://www.w3.org/2000/svg" width="18" height="18"><path d="M3.2.457A2.756 2.756 0 0 0 .456 3.199v14.63a.915.915 0 0 0 1.828 0v-3.657a.9.9 0 0 1 .914-.914h5.563l.648.648a.915.915 0 0 0 .649.266h7.77a.915.915 0 0 0 .812-1.332l.004.004v.008l-2.54-5.079 2.54-5.078a.913.913 0 0 0-.816-1.32h-7.392l-.171-.172-.055-.055-.422-.421a.91.91 0 0 0-.644-.27zm0 1.828h5.488v4.57a.91.91 0 0 0 .914.915.913.913 0 0 0 .914-.915V3.2h5.832l-2.082 4.164a.906.906 0 0 0 .004.82l-.004-.003 2.082 4.16h-5.914l-.645-.645a.92.92 0 0 0-.648-.27H3.199c-.355 0-.601.255-.914.384v-8.61a.9.9 0 0 1 .914-.914zm0 0" fill="rgb(0%,0%,0%)"/></svg>