<svg xmlns="http://www.w3.org/2000/svg" width="18" height="15"><path d="M11.008.563a.859.859 0 0 1 .629.835c0 .04-.004.075-.008.114v-.004l-.02.097-3.324 13.758a.837.837 0 0 1-.805.649.846.846 0 0 1-.832-.86c0-.039.004-.074.008-.113v.008l.02-.102L10 1.187a.837.837 0 0 1 1.012-.625zm3.71 3.664l3.325 3.441c.297.309.32.797.066 1.133l-.066.082-3.324 3.441a.827.827 0 0 1-.586.246.844.844 0 0 1-.832-.86c0-.194.066-.378.172-.523l.07-.082 2.734-2.832-2.734-2.828a.866.866 0 0 1-.242-.61c0-.472.37-.858.828-.858a.81.81 0 0 1 .43.12h-.004l.082.06zM.243 7.668l3.324-3.441a.827.827 0 0 1 .586-.247c.461 0 .832.383.832.86 0 .2-.062.379-.171.527v-.004l-.07.082-2.735 2.832 2.734 2.828a.866.866 0 0 1 .242.61c0 .473-.37.86-.832.86a.805.805 0 0 1-.507-.18h.003l-.078-.07L.242 8.882A.866.866 0 0 1 0 8.277c0-.199.066-.382.176-.53v.003zm0 0" fill="rgb(0%,0%,0%)"/></svg>