<svg xmlns="http://www.w3.org/2000/svg" width="18" height="18"><path d="M11.387 3.863L4.844 9.79c-.547.492-.89 1.172-.89 1.93 0 1.488 1.335 2.695 2.98 2.695a3.14 3.14 0 0 0 2.125-.8v-.005l6.379-5.933c1.93-1.754 1.93-4.598-.008-6.356C14.527.504 13.29 0 11.922 0c-1.375 0-2.617.504-3.516 1.32L2.027 7.254c-2.707 2.453-2.707 6.441.008 8.902 2.715 2.461 7.117 2.461 9.832 0l6.211-5.62a.86.86 0 0 0 .293-.638c0-.492-.445-.898-.992-.898-.274 0-.524.098-.703.266l-6.215 5.617c-.899.812-2.14 1.312-3.512 1.312-2.742 0-4.965-2.008-4.965-4.5 0-1.234.559-2.36 1.457-3.18l6.38-5.93c1.152-1.05 3.038-1.05 4.202.005.54.488.872 1.16.872 1.91 0 .746-.332 1.418-.872 1.91l-6.378 5.934c-.38.34-1.008.34-1.395-.012a.853.853 0 0 1-.293-.637c0-.246.113-.468.293-.636l6.54-5.922a.85.85 0 0 0 .288-.637c0-.5-.441-.898-.992-.898a1.06 1.06 0 0 0-.703.261zm0 0" fill="rgb(0%,0%,0%)"/></svg>