<svg xmlns="http://www.w3.org/2000/svg" width="18" height="16"><path d="M0 5.8a2.722 2.722 0 0 1 2.71-2.73h.84c.302 0 .583-.148.75-.402l.735-1.11A2.71 2.71 0 0 1 7.293.34h3.488c.934 0 1.762.48 2.246 1.207l.008.012.735 1.109a.904.904 0 0 0 .75.402h.84a2.72 2.72 0 0 1 2.71 2.73v8.192a2.72 2.72 0 0 1-2.71 2.73H2.71A2.722 2.722 0 0 1 0 13.993zm1.809 0v8.196c0 .5.402.91.902.91h12.648c.5 0 .903-.41.903-.91V5.801c0-.5-.403-.91-.903-.91h-.84a2.705 2.705 0 0 1-2.25-1.204l-.003-.011-.735-1.11a.902.902 0 0 0-.754-.402H7.293a.902.902 0 0 0-.754.406l-.734 1.11A2.708 2.708 0 0 1 3.55 4.895h-.84c-.5 0-.902.406-.902.91h-.004zm0 0" fill="rgb(0%,0%,0%)"/><path d="M12.648 9.445c0 2.008-1.617 3.64-3.613 3.64s-3.613-1.632-3.613-3.64c0-2.011 1.617-3.644 3.613-3.644s3.613 1.633 3.613 3.644zm-1.804 0c0-1.008-.809-1.82-1.809-1.82-.996 0-1.805.813-1.805 1.82 0 1.004.81 1.82 1.805 1.82 1 0 1.809-.816 1.809-1.82zm0 0" fill="rgb(0%,0%,0%)"/></svg>